<svg id="svgMap" xmlns="http://www.w3.org/2000/svg" width="100%" viewBox="0 0 620 620">
	<defs>
		<style>
			.st0 {
			fill: rgba(255,255,255,0.5);
			stroke: #666;
			stroke-width: 1px;
			}
			.st0:hover {
			fill: #336633;

			}
		</style>
	</defs>
<g id="wpapId" transform="translate(0,-414.36218)">
	<g id="id_20">
		<path id="path20" class="st0" d="M108.3,570.3v-6l40-24.2l22.8-13.3l9.5-5.4v-0.5h0.1v-0.1h-0.1l-0.3-1l-0.4-0.3l-0.1-0.6
			l-0.4-0.2l-0.4-0.3V518h0.1v-0.4l-0.2-0.1h0.1l0.3-0.9l1-0.6h0.1v-0.6h-0.1v-0.6h0.1v-0.1h0.1v-0.1h0.1v-0.3h-0.1v-0.1h-0.3
			l-0.1-0.3H180v-0.1h-0.1v-0.3h-0.1l-0.1-1.2l-0.3-0.1l0.1-0.5h0.1v-0.1h0.1l0.3-0.9h0.4v-0.1l0.2-0.1v-0.1l0.9,0.3l0.6-0.3v-0.1
			h0.5v-0.1l0.2,0.1l0.1,0.4l0.8,0.3v0.1l1,0.9l1,0.3l0.4-0.3l0.3-0.4l0.6,0.3l0.1,0.5l-0.3,0.4h0.1v0.1l0.3-0.1l-0.1-1.4l0.2-0.5
			l0.5-0.1l-0.1-0.3l-0.4-0.1l-0.9,0.3l0.1-0.5l0.8-0.5v-0.1h0.1v0.1h0.1l0.1,0.5l1,0.4l-0.3-1.1l0.6-0.8v-0.1h-0.1l0.1-0.1l0.6,0.4
			l-0.1-0.3l-0.6-0.5l0.1-0.6l0.6-0.1v-0.3l-0.8-0.2v-0.2l0.9-0.3l0.8,0.4v0.3l0.4-0.3v-0.1l1-0.4v0.4h0.5l-0.1-0.5l-0.5-0.2
			l0.1-0.4l1-0.4l0.7-0.1l0.3-0.5l0.1,0.1l-0.1,0.1l0.1,0.2l1.4-0.2v-0.3l-0.3-0.1l0.1-0.5l-0.3-0.1l0.1-0.4h-0.6l0.1-0.6h0.3
			l0.4,0.3l0.4-0.1l0.1-0.5l0.3-0.4l2-1.9l32.4,4.1l13.4,2l0.8,42.1l-4.5,10.1l-17,40.9l-5.5,13.6l0.5,1.6l-2,1l-0.9,4.3l3.6,5.7
			l5.1,8.9l5.2,8.7l-6.6,9.4l-19.6,6.6l-10.8,12l-15.5-3.4l-0.9,3.6l-1.6,0.9l-1,4.1l-7.4-1.1l1.2-4.5l-2.6-0.4l0.3-2.1l-0.4-0.4
			l1.1-2.5l-0.5-0.5l0.1-0.9l-0.1-0.4l-0.6-0.8l-0.3-0.9l-0.2-0.2h-0.4l-0.1-0.4l0.3-0.8l-0.3-0.8l-0.2-0.3l-0.5,0.1l-0.4-0.4
			l-0.4-0.1l-0.8-0.6h-0.2l-0.1,0.5l-2.1-0.8l-0.1-1.1l-0.6-0.4l-0.1-0.4l0.1-0.6l-0.3-1.1l-0.9-0.1l-1.1-0.9l-1-0.5l-0.9-0.9
			l0.2-1.1l-6.5-2.5l-3.5-0.9l-5.1-8.9l-0.5-0.6l-1.4-2.5l-2.2-3.4l-5-8.4l-3-6.2l-16.5,4.2l-0.5-13.8h0.3L108.3,570.3L108.3,570.3z
			"/>
		<title>Усть-Цилемский муниципальный район</title>
	</g>
	<g id="id_19">
		<path id="path19" class="st0" d="M208.9,868.4l1.7-9l11.1,1.6l1.8-9l-0.3-0.1l-0.3,0.1l-0.6-0.5l-0.5,0.5h-0.1l-0.3-1l0.5-0.4
			v-0.7l0.4-1l-0.5-0.6l0.1-0.3l-0.6-1.2l0.2-0.6l-0.1-1.6l0.3-0.4l-0.4-0.1l-0.1-0.4l0.5-0.4v-0.2h0.2l-0.4-1.4l-0.8-0.8h-0.5
			l-0.5-0.4l-1.3-0.5l0.4-1l0.8-1l1.1,0.3l3.9,2.1l0.8-4.1l4.1,0.6l0.2-2l1.6-0.1l0.5-2l1.1,0.3l0.6-1.6h1.4l1.1-7.6l-2.4-0.1
			l0.9-5.7l3,0.4l0.4-5l-3.1-0.4l2.4-9.4l-2.2-0.5l2.1-9.4l-1.9-0.9l0.5-9.6l26.6,5.7l16.6,3.9l13.5,3.6l-6.5,19.8l8.2,12.6
			l-3.1,5.4l1.8,3.5l4.5,0.9l2.1-2.6l12.1,7.5l3.6,5.6l1.8,2.9l-4.4,18.1l3.4,6.8l-0.1,0.9l0.5,0.8l-1.5,6.4l-13.1-3.5l-2.4,10.1
			l-13-3.6l-2,10.1l-4.2-1.1l-2.1,9.6l-7.2-1.8l-24-6.3l-1.4,9.6l-9.3-2l-4.2-1l1.8-9.8l-15.4-3.9l-4.5-1.4l2.9-14.9l-2-0.4l0.8-5.4
			L208.9,868.4L208.9,868.4z"/>
		<title>Усть-Куломский муниципальный район</title>
	</g>
	<g id="id_18">
		<path id="path18" class="st0" d="M109.6,855l1.4-8.1l3.6-19.8l0.3-1.5l0.6-0.2l1,0.4l0.4-0.5l-0.3-0.5l0.1-0.1l-0.4-0.1l0.2-1.4
			l2.4,0.4l2.2-12.4l3.2-19.4l0.3,0.1l1.9-9.7l11.2,2.2l-3.3,19l13.3,2.6l-0.6,4.9l7.4,1.5l-0.1,2.9l0.6,0.6l1.9,0.1l-0.1,1.9
			l-1.8,9.6l-9.4-1.2l-0.9,1l-2.5,0.2l1.4,1.5l-2,0.6l-0.5,0.6l-0.4,1.4l-2.7-0.2l-0.7,1.9l-2.5-0.1l-0.4,4.4l-2.7-0.5l-2.2,10.1
			l-8.9-1.9l-1.9,11.7L109.6,855L109.6,855z"/>
		<title>Усть-Вымский муниципальный район</title>
	</g>
	<g id="id_17">
		<path id="path17" class="st0" d="M6.1,690.6l7-4.2l2-1.1l3.9-1.4l11.7,1.6l-0.1,0.2l1.8,0.1l0.8-1l0.6-0.4l0.6,0.1l0.3,0.4
			l6.5-3.6l9.5-1.4l7.6-0.6l3.1-0.5l17.5,0.8l5.7-0.1l-0.1,0.9l0.2,3.6l0.9,3.2l7.6,1.4l1.6-9.7l10.3,1.9l0.1-0.3l0.3-0.1l-0.1-0.5
			l-0.2-0.3l2.1-8.7l14.9,3.4l2-9.7l10,1.9l0.3-0.8l12.6,3.1l2.4-11.7l1.6-6.6l2.7,1l-0.2,1.1l0.9,0.9l1,0.5l1.1,0.9l0.9,0.1
			l0.3,1.1l-0.1,0.6l0.4,0.6l0.4,0.1l0.1,1.1l2.1,0.8l0.1-0.5h0.2l0.8,0.6l0.4,0.1l0.4,0.4l0.5-0.1l0.2,0.3l0.3,0.8l-0.3,0.8
			l0.1,0.4h0.4l0.2,0.2l0.3,0.9l0.6,0.8l0.1,0.4l-0.1,0.9l0.5,0.5l-1.1,2.5l0.4,0.4l-0.3,2.1l2.6,0.4l-1.2,4.5l-2.7,13.9l-3.8-0.5
			l-3.8,17.4l-21.3-4.1l-4.4,19.1l6.7,2.1l-0.5,3.5l13.2,3.9l-1.1,5.1l2.9,0.4l-0.9,4.7l4.2,0.8l-0.8,4.6l3,0.2l-2.5,10.3l-14.1-2.8
			l-1.8,9.5l-2.4-0.4l-4.3,20l-30.5-6.4l-1.8,9.7l-9.4-2.1l-1.9,9.7l0.1,0.3l-1,4.9l1.2,1.9l0.8,11l-7.9-0.6L70,811l-0.5,10
			l-7.3-0.4l0.5-10l-4.9-0.1l0.4-19.6l-0.5-0.8l-4.1-10.4l-0.6-1.1l6.5-5.5l3.8-2.9l0.6-0.6h-1l1.8-3l1.7-2.5l0.3-4.3l0.5,0.1
			l0.4-2.1l-4.9-0.9l-4.6-4.2l-2-1.5l-3-0.6l-0.6-2.5l-2.5-3.6l0.1-3.6l-0.3-3.3l2.1-4.1l0.1-3.9l-0.6-0.8h-0.1l0.3-0.8l-4.4-8.5
			l-1-1.6l-8.9-7.1l-3.5-2l-4.9-2l-1.5-1.1l-5.9-0.9l-9.9-6.5l-3.9-5.1L6.1,690.6L6.1,690.6z"/>
		<title>Удорский муниципальный район</title>
	</g>
	<g id="id_16">
		<path id="path16" class="st0" d="M282.7,793.8l7.1-30l2.5-1.5l6.8-23l10.1,3.4l-1,3l3,0.9l1.1-0.2l3.6,2.1l0.5,4.1l10.4,3.4
			l1.6-2.5l1.3,0.2l1.2-2.2l18.1,6.6l9.6-28.9l2.6-6.3l4.6,8.1l1.5-4.2l4.1,2.1l2.5,18l10.4-2.1l3.4,3.2l2.4-0.1l3.8,0.9l0.3,3.3
			l1.7,2.9l-0.5,1.6l0.8,1.4l-0.3,0.6l3.1,2.5l-0.3,0.1v0.1h-0.1l0.5,0.6l-0.4,1.4l0.1,0.3l-0.5,1.1h-0.1l-0.1,0.5l-0.1,0.1l0.3,1.5
			l0.2,0.4l-0.1,0.4l0.3,0.3v0.5l0.5,0.1l1-0.1v0.1h0.1v0.2l0.4,0.1l0.1,0.9l0.8,1.2l0.8-0.1l1,0.3l0.9,0.5l0.3,0.4l0.1,0.5h0.5
			l0.4,2l-0.1,0.4h-0.1l-0.3,0.4H405l0.3,1h-0.1l-0.1,0.8l0.1,0.3h-0.1l0.1,1l-0.1,1.4H405l-0.1,2.1l-0.2,0.1l-0.3,0.8v0.3l-0.9,0.1
			l-0.6,0.3v0.1h-0.1v0.1l0.8,0.2l0.2,0.6l-0.2,0.5l-0.4,0.1v0.1l0.8,0.3l0.2,0.9l0.1,1.2l-0.3,1l0.3,0.4l0.2,0.1v0.1l0.3,0.1v0.1
			h0.3v-0.1h0.1l0.1,0.3l-0.4,0.2l-0.1,1.6l0.3,0.4l0.1,0.2l0.6,0.4l0.2,0.6l-0.1,0.9l-0.3,0.1l-0.1,0.8l-0.3,0.6l-0.1,0.1h0.1v0.1
			h0.1v0.1l0.5,0.1l0.6-0.3v0.1h0.4v-0.1l0.8,0.4l0.2,0.6l1.3,0.2l1.4-0.1l0.1-0.1l-0.1,1.9l-0.2,0.1l0.1,0.9l-0.1,1h-0.1l-0.1,0.5
			H410l0.1,1.4l-0.1,1.1h-0.1l-0.6,1.6l0.6,0.5l0.5,0.2l-0.1,1.3h-0.1v1.4l-0.9,0.4l-0.1,1.6l-0.2,0.1l-0.3,0.4l-0.4,0.1l-0.5-0.2
			v0.1l-0.4,0.3v0.9l-0.5,0.4l-0.1,0.6l0.4,0.9l0.1,0.3l-0.4,1.5l-0.2,0.6h-0.6l-0.4,0.6l0.1,0.5l-0.2,0.6l0.2,0.8l-0.6,1l0.1,0.6
			L405,821l-0.2,0.1l-0.1,0.4h-0.2l-0.3,1.1l0.1,0.9l-0.1,2.1l0.1,0.3l0.6,0.2h0.1l-0.1,1.5h0.1l0.1,1.1l-0.4,0.4l0.2,0.6l0.3,2.4
			l-0.1,0.3l0.8,0.1v0.1h0.1l0.1,0.8l0.5,2.2l-0.1,0.2h0.1l-0.9,0.6l-0.1-0.1l-0.6,1.1l-0.4,0.5l-0.5,0.3l-0.1,1.4l0.2,0.3l-0.5,0.5
			l-0.6,0.1l-0.4,0.8l-0.4,0.5v0.4l-0.4,0.5l0.3,0.8l-0.3,0.6v0.6l-0.2,0.2l0.2,1.5l0.5-0.1l0.1,0.3l0.3,0.1l0.1,0.6l0.4,0.2
			l0.6,0.3l0.6,0.6l-0.5,1v0.6l-1,1.1l0.1,0.6l-0.8,0.8l0.5,1.2l-0.4,0.5h-0.6l-0.2,0.3l-0.8,0.3l-0.3,0.9l-0.9,0.6l-0.3,0.4
			l-0.3-0.1l-0.1-0.2l-0.3-0.1l-0.1-0.2l-0.4-0.1l-0.5,0.8l-0.8-0.2l-0.4,0.2l-0.6,1.4l-0.3,1l-0.8,1.1l-0.1,0.9l-0.3,0.1v0.3h-0.1
			v0.1h-0.1v0.4H394h0.1H394v0.3h-0.1v0.1h-0.1l-0.1,0.4h-0.5v-0.1h-0.4v0.1l-0.4,0.1v-0.1l-0.6,0.3l-0.2,0.6l-1.6-0.6l-2.1,1v1.4
			l-49.6-0.4l-0.4,1.8l-12.1-3.3l-0.5,2.1l0.1,0.3l-1.2-0.3l-0.9,4.8l-5.4-1.5l-1.8,8.2l-3.4-6.8l4.4-18.1l-3.5-5.7l-1.9-2.7
			l-12.1-7.5l-2.1,2.6l-4.5-0.9l-1.8-3.5l3.1-5.4l-8.2-12.6l6.5-19.8L282.7,793.8L282.7,793.8z"/>
		<title>Троицко-Печорский муниципальный район</title>
	</g>
	<g id="id_15">
		<path id="path15" class="st0" d="M107.2,890.5l4-3.8l0.8-0.6l5.5,1.2l2.7-16.4l0.7-4l11,2.2l1.1-7.1l7.1,2.2l-0.4,1.4l4.9,1.3
			l-1,5l2.5,0.9l-0.6,2.2l2.7,0.6l-1.6,7.5l3.4,1.4l0.4-0.9l0.6,0.3l0.1,0.8l9.4,3.3l-0.5,4.9l4.3,0.8l-2.6,14.1l-6.3-0.5l-1.9,7.6
			l-7.8-1.1l-0.8,0.3l0.1,0.6l-0.4,0.8l0.1,0.1l0.3-0.3l0.2,0.1L145,916l0.1,0.1l0.3-0.1l0.4,0.1l0.2-0.4l0.4,0.6l-0.5,0.3l0.1,0.4
			l0.5-0.1l0.1,0.2l-1.1,1.5l-1.8-0.1l-6.5-1.2l-0.9,4.5h-0.6l-9.2-2.5l0.8-3.5l-5-1.5l-8.6-18.7l-5-2.7L107.2,890.5L107.2,890.5z"
			/>
		<title>Сысольский муниципальный район</title>
	</g>
	<g id="id_14">
		<path id="path14" class="st0" d="M175.9,891.4l3.4-14.9l-3.9-0.8l0.2-4.5l-9.1-1.7l1-5.6l-2.2-0.6l1.5-5.4l-2.3,1.8l-3-0.7l-1-2.5
			l-3.8-1.3l-6.6-8.1l0.5-1.7l-2.7-0.9l1.6-4.4l2.7,1l1.1-1.8l2.8,1l0.9,2.6l6.9,2.8l-0.3,2.2l3,2.1l3-1v-0.7l1.2-0.3l0.1-1.3l0.6-1
			l1-5.7l-6.4-1.6l2.3-18l-11.9-2.5l-1.7,9.6l-9.4-1.2l-0.9,1l-2.5,0.2l1.4,1.5l-2,0.7l-0.5,0.6l-0.4,1.4l-2.7-0.3l-0.8,1.9
			l-2.5-0.1l-0.4,4.3l-2.7-0.5l-2.3,10.2l-8.8-1.9l-1.9,11.7l3.9,0.9l-1.7,9.1l11,2.3l1.2-7.1l7.1,2.2l-0.4,1.4l4.9,1.2l-1,5
			l2.5,0.9l-0.6,2.3l2.7,0.6l-1.6,7.5l3.4,1.4l0.3-0.9l0.7,0.2l0.1,0.8l9.4,3.2l-0.5,4.9l4.2,0.8l-0.9,4.6l15.9,3.9l2.3-9.7"/>
		<title>Сыктывдинский муниципальный район</title>
	</g>
	<g id="id_13">
		<path id="path13" class="st0" d="M232.6,694.6l2-0.9l2.9-2l1-0.2l0.8,0.1l4.4-11.7l14,3.1l28.5-12l17.2,7.2l3.2,1.4l1-1.9l3.7,1.4
			l-8.6,25.2l2.7,0.6l-2.2,7l2.1,0.5l-3.3,10.1l5.6,2l0.5-0.8l7.4,1.8l-3.5,10.6l2.2,0.9l-1.9,4.1l8.5,3.8l-0.1,2.2l10,4.1l-1.2,2.2
			l-1.3-0.2l-1.6,2.5l-10.4-3.4l-0.5-4.1l-3.6-2.1l-1.1,0.2l-3-0.9l1-3l-10.1-3.4l-6.8,23l-2.5,1.5l-7.1,30l-3.6-1l-11.8-26.2
			l2.4-3.3l-5.5-8.9l-8.4-10.4l-2.1-2.5l-1.8-7.1l-4.1-1l0.3-0.6l0.3-2.4l-0.5-0.2l-2.1-0.6l-1-0.8l2.9-2l-0.2-0.8l-1-0.6l-3.1-1.4
			l-0.5-0.4l-1.2-1.8l-3.3-1.2l1-3l-3.3-0.8l1.9-10.1L232.6,694.6L232.6,694.6z"/>
		<title>Сосногорский муниципальный район</title>
	</g>
	<g id="id_12">
		<path id="path12" class="st0" d="M92,907.9l0.1-2.9l0.6-5l0.8-4.1l10.5-6.1l0.4-0.1v-0.1l1.9-1.1l1,2.1l1.5,2.4l4.9,2.6l8.6,18.7
			l5,1.5l-0.8,3.5l9.2,2.5l-0.6,6.2l3.6,0.5v3l-0.2,0.9l11.4,2.4l-1.2,9.7l-6.7-1.1l-5.4,33.3l-0.2,2h-0.3l0.3,1.8l0.9,0.9l0.4,0.1
			l1.8,1.9L139,984l-1.5-0.2l-0.5,0.1l-0.6,0.9l-3.2,0.3l-1.8,11l2,0.5l-1.1,7.4l1,0.3l-1.4,9.8h-0.4v-0.4l-0.2-0.3l0.1,0.4h-0.3
			l-0.5-0.4h-0.3l-0.5,1l-0.6,0.5l-5.9-1.2l0.4-1.1l-0.7-0.8l0.4-0.8h0.1l1.4-8.7l-6.4-1.1l0.4-3.3h-0.4v-0.4l-3.8-0.6l0.1-1
			l-0.6,0.1l-1.2-1.2l-1,0.5l-0.6,1.1h-1.6l1.8-11.7l-6.4-1.3v0.3l-0.6-0.3l-0.1,0.1l-0.8-0.8l-0.4-0.8l-0.3,1l-7.9-1.2l-0.5-12.6
			l0.1,0.1l-0.2-8l-0.5-0.4v-4.2l-0.4-2.6l0.3-0.8l0.4-3.4l5.2-5v-0.4l2.6-2.5l0.5-2.5l-1.4-1l-1.6-2l-0.1,0.8l-4.1-0.6l0.9-1.4
			l1.3,0.4l0.8-0.5l-0.1-0.3l-0.2,0.1l-0.4-0.5h-0.3v-0.3l-0.9-0.2l-0.4-1.3l-1.6-0.9v-0.3l0.5-0.1l-0.1-0.4l0.3-1.2l-0.6-0.9
			l1.8-2.2L92,907.9L92,907.9z"/>
		<title>Прилузский муниципальный район</title>
	</g>
	<g id="id_11">
		<path id="path11" class="st0" d="M165.6,863.3l1.5-5.4h1.6l2.2-4.9v-1.7l0.4-1.4l-0.2-1.1l-1.1,0.3v-0.8l1.1-0.3l0.1-1.4l0.6-1
			l1-5.6l-6.4-1.6l2.2-18l0.5-2.2l-0.5-0.4l1.3-6.2l1.5-0.5l2-9.9l-2.4-0.8l2.4-8.4l2.2,0.4l0.9-5.1l9,2.9l1.3-3.4l19.4,4.1l2-14.4
			l18.7,4.6l5.5,1l3.4,1l-0.5,9.6l1.9,0.9l-2.1,9.4l2.2,0.5l-2.4,9.4l3.1,0.4l-0.4,5l-3-0.4l-0.9,5.7l2.4,0.1l-1.1,7.6h-1.3
			l-0.6,1.6l-1.1-0.3l-0.5,2l-1.6,0.1l-0.2,2l-4.1-0.6l-0.8,4.1l-3.9-2.1l-1.1-0.3l-0.8,1l-0.4,1l1.3,0.5l0.5,0.4h0.5l0.8,0.8
			l0.4,1.4h-0.4v0.2l-0.5,0.4l0.1,0.4l0.4,0.1l-0.3,0.4l0.1,1.6l-0.2,0.6l0.6,1.2l-0.1,0.3l0.5,0.6l-0.4,1v0.8l-0.5,0.4l0.3,1h0.2
			l0.6-0.5l0.5,0.5l0.3-0.1l0.3,0.1l-1.8,9l-11.1-1.6l-1.7,9l6.5,1l-0.7,5.4l2,0.4l-2.9,14.9l4.5,1.4l-1.9,10l-10.6-2.5l-2,9.5
			l-24.5-6.3l2.2-9.6l-5.4-1.1l3.4-14.9l-3.9-0.9l0.3-4.5l-9.1-1.6l1-5.6L165.6,863.3L165.6,863.3z"/>
		<title>Корткеросский муниципальный район</title>
	</g>
	<g id="id_10">
		<path id="path10" class="st0" d="M135.1,928l0.6-6.2h0.9l0.9-4.5l6.5,1.2l1.8,0.1l1.1-1.6l-0.2-0.1l-0.5,0.1l-0.1-0.4l0.5-0.3
			l-0.4-0.6l-0.2,0.4l-0.5-0.1l-0.1,0.1l-0.1-0.3l0.2-0.5l-0.2-0.1l-0.3,0.3l-0.1-0.3l0.4-0.6l-0.1-0.6l0.7-0.3l7.8,1.1l1.9-7.6
			l6.3,0.5l1.7-9.5l27.1,6.8l-3.5,19.6l10.9,2.5l-0.9,5l6.4,1.8L203,938l0.1,0.8l1.1,0.3l-1.5,8.6l-7.1-5.4l-2.6,2l-3.3,5.9
			l-2.6,6.6l-2.9,3.9l-1.6,2.5l-1.6,3.1l-1.3,0.6l-0.3-0.1l-1,1.1l-0.5-0.8l-0.5,0.1l-0.4-0.8l-0.9-3.8l-2.2-1.1l-3.8-2.4l-1.5,0.9
			l-0.4-0.4l-1.9,0.5l-3.8,7.1l-1.1,0.8l-0.2,0.8l0.2,0.9l-0.4,0.8l-0.9,0.8l-1.4,0.2l-1.2-0.8l-7.5,2.2l-2-0.1l-3.3,2.1l-0.5,3.8
			l-8-1.9l1.8-11.4l3.6-22.1l6.8,1.1l1.2-9.7l-11.4-2.4l0.2-0.9v-3L135.1,928L135.1,928z"/>
		<title>Койгородский муниципальный район</title>
	</g>
	<g id="id_9">
		<path id="path9" class="st0" d="M129.7,721.1l4.4-19.1l21.3,4.1l3.8-17.4l3.8,0.5l2.7-13.9l7.4,1.1l1-4.1l1.6-0.9l0.9-3.6
			l16.9,3.6l-3.7,13.3l7.9,1.6l-2.1,12.5l8.4,0.9l-1,8l9.4,1.1l-4.8,18l2.4,0.8l-2.1,9.9l2.6,1.1l-1.2,7l8.5,2.4l-1.4,9l6.1,1.3
			l-2.2,10.9l9.6,2.1l-2.6,9.9l-18.7-4.6l-2,14.4l-19.4-4.1l-1.3,3.4l-9-2.9l-0.9,5.1l-2.2-0.4l-2.4,8.4l2.4,0.8l-2,9.9l-1.5,0.5
			l-1.3,6.2l0.5,0.4l-0.5,2.2l-11.9-2.5l0.1-1.9l-1.9-0.1l-0.6-0.6l0.1-2.9l-7.4-1.5l0.6-4.9l-13.3-2.6l3.3-19l-6.3-1.2l4.3-20
			l2.4,0.4l1.8-9.5l14.1,2.8l2.5-10.3l-3-0.2l0.8-4.6l-4.2-0.8l0.9-4.7l-2.9-0.4l1.1-5.1l-13.2-3.9l0.5-3.5L129.7,721.1L129.7,721.1
			z"/>
		<title>Княжпогостский муниципальный район</title>
	</g>
	<g id="id_8">
		<path id="path8" class="st0" d="M191.9,671.3l10.8-12l19.6-6.6l6.6-9.4l-8.7-14.6l-3.4-5.9l-1.9-2.9l0.9-4.3l2-1l-0.5-1.6
			l16.8-40.9l8.7-20.4l1.5-3.4l22.1,20l5.4,5.1l8.1,7.6l13.4,0.5l0.1,1.6l-0.5,1.2l0.1,0.4l-2.9,0.8l-0.9,1l0.3,0.6l-0.3,0.8
			l0.4,0.4l-0.5,1.4l-1.8,9.5l-8.1,14.9l-8.6,8l0.6,11.5l-6.1,37.1l6.6,6.3l-14.1,6l-14-3.1l-15.4-0.9l-3.4,1.1l-28.1-7.7
			L191.9,671.3L191.9,671.3z"/>
		<title>Ижемский муниципальный район</title>
	</g>
	<g id="id_7">
		<path id="path7" class="st0" d="M265.2,670.8l5-30.4l1.1-6.8l-0.6-11.5l8.6-8l22.1-14.6l9.5-6.1l5.7,11.2l13.6-8.6l1.5,2.9l3-1.3
			l10.4,4.4l0.1-2.5l2.6-1.2l0.8-0.5l0.5-0.6l2-6l0.1-1.1l2.5-3.8l2.1-1.9l0.4-0.5l0.1-0.5l1.8,1l1.9-1.5l5.4,2.2l2.7-0.9l1.4-0.3
			l1,0.4l0.8,0.5h1l3.1-1.4l8.4,2.1h1.2l3-0.4l1.5,0.3l0.5,0.4l0.9,1.2l2.1-0.9l3.2,1.8l-0.2,0.4l0.2,0.5l0.5,0.5l-0.5,0.9l-0.1,0.9
			h-0.3l-0.6,0.9l-1.3,1.4l0.1,0.4l-0.8,1.2v1.4l-1.8,1.2l-0.1,0.3l0.1,0.4l0.5,0.3l-1,1.1l-0.1,1.1l-0.4,0.9v0.5l-0.4,0.6l0.1,0.4
			l-0.5,0.5l-0.2,0.8l-0.8,0.8l0.2,1.3l-0.2,0.2h-0.8l-0.8,1.3l-1.4,1.5l-0.3,0.6l0.1,0.4l0.8,0.1l1.2,1.4l0.1,1l0.3,0.4l0.3,0.1
			l0.9,1.1l0.8,0.1l0.5-0.1l0.8-0.5l0.4,0.3l-0.2,0.6l1.5,1l0.9,0.4l0.3,0.6l0.5,0.1v0.3l-0.4,0.5l0.4,0.5h0.8l1.4,1.4l2.9-0.6
			l0.4-0.6l1.3-0.6l0.2,0.3l0.6,0.1l0.5,0.8h1l0.4,0.4l0.1,0.8l1.4-0.1l0.5,0.2v1l0.3,0.8l10.5-2l5.5,7l4.6,4.9l-0.5,0.1l-0.6,1.4
			l-0.1,0.3l-0.9-0.1v-0.1h-0.6l-0.1,0.3H424l-0.4,0.9l-1.4,0.6h-0.1v0.1l-0.4-0.1l0.1,0.9l-0.1,0.5l0.4,0.6l0.3,0.1l-0.1,1.1h-0.1
			v0.1l-0.5,0.1l0.2,1l-0.5,0.3H421l0.1,0.6H421v0.3l-0.3,0.1v0.1l-0.9,0.1l-0.5-0.5l-0.3,0.1l-0.3,0.4h-0.1v0.1l-1.1,0.3l-0.4,0.9
			l0.3,0.4l-0.1,0.1l0.3,0.5l-0.6,0.4v0.1l-1.2-0.9l-0.5-0.1l-0.5,0.9h-0.1l-0.1,0.5l-0.4,0.6h-0.6v0.1h-0.1v0.3h0.1l0.1,0.4
			l-0.4,0.1l-0.2,0.9l0.2,0.4v0.1l-0.6,0.3l-0.1,0.2l0.4,0.6v0.1l-0.5,0.1l-0.4,0.9H412v0.1l-0.3,0.1v0.2h-0.1v0.1l-0.3,0.1
			l-0.8-0.4l-0.4,0.1l0.1,0.5l-0.1,0.6h0.1v0.1h0.3v0.2l0.3,0.1l0.1,0.6l-0.6,0.3v0.5h-0.1v0.1l0.3,0.1l0.1,0.6l-0.1,0.2h0.1
			l-0.4,0.9l0.4,0.1v0.4l0.6,0.4v0.6h0.1l0.1,0.2h0.8l0.1,0.3l0.8,0.3l0.6,0.8l0.1,0.8h-0.1l-0.1,0.2l0.1,0.3l-0.4,0.5l-0.5-0.1
			l-0.8-0.1l-0.3,0.1l-0.1,0.3l-0.5-0.1l-0.1-0.2l-1,0.2v0.1h-0.1l0.1,0.5h0.1v0.1h0.1l-0.1,0.8l-0.1,0.3h-0.1v0.6l-1.2-0.3
			l-0.5,0.1l-4.5-2.4l-0.8,0.1l-0.8-0.1l-1,0.4l-0.5,0.5l-0.4,0.1l-0.5-0.1l-0.6,0.4h-1l-1,0.3l-1.6-0.3l-0.4,0.3l-1,1.4h-0.9
			l-0.5-0.4l-0.9,0.2l-1.1,0.8l-0.5,0.6l-1,0.3v0.8l-0.8,1.4l-0.2-0.4l-0.3-0.1l-1,0.4l-0.4-0.5l-0.2-0.1l-0.3,0.1l-0.4-0.1
			l-0.3-0.8l-0.4-0.4l-1.4,0.3h-1.8l-0.6,1.2l-0.6,0.4l0.1,0.4l0.3,0.1l-0.5,0.5l-0.2,0.8l-1,0.3l-5.7-2.1l-0.6,0.4l-13.9-3.4
			l-0.5,1.2l-0.1,1l0.3,1.4l0.9,2.7v0.6l-0.5,0.8l-0.6,0.5l-1-0.1l-0.8-0.6l-0.8-0.1l-0.4,0.2l-0.6-0.4l-0.6-1.9l-2.5-0.8l-2.2,0.6
			l-11.9-3.6l-10.8,24.4l-3.4-2.6V686l-2.4-1l0.5-1.6l-2.2-1.2l-7.5-3l-0.5,0.6l-3.8-1.4l-1,1.9l-19.1-8.1l-1.4-0.5l-14.4,6
			L265.2,670.8z"/>
		<title>Печора</title>
	</g>
	<g id="id_6">
		<path id="path6" class="st0" d="M189.6,684.8l3.8-13.3l24.6,6.6l7,2l3.4-1.1l15.3,0.9l-4.5,11.7l-0.8-0.1l-1,0.2l-2.9,2l-2,0.9
			l5.1,11.9l-1.9,10.1l3.3,0.8l-1,3l3.3,1.2l1.2,1.8l2.1,1.1l1.5,0.6l1,0.6l0.2,0.8l-2.9,2l1,0.8l2.1,0.6l0.6,0.5l-0.3,2.4l-0.3,0.6
			l4.1,1l1.8,7.1l6.4,7.6l4.1,5.2l5.5,8.9l-2.4,3.3l11.8,26.2l-26.5-6.1l-16.8-3.5l-3.4-1l-5.5-1l2.6-9.9l-9.6-2.1l2.2-10.9
			l-6.1-1.3l1.4-9l-8.5-2.4l1.2-7l-2.6-1.1l2.1-9.9l-2.4-0.8l4.8-18l-9.4-1.1l1-8l-8.4-0.9l2.1-12.5L189.6,684.8L189.6,684.8z"/>
		<title>Ухта</title>
	</g>
	<g id="id_5">
		<path id="path5" class="st0" d="M243.6,506.3l3.3,0.4h140.8l0.4,78.6l-4.2,0.4l-8.4-2.1l-0.9,0.5l-2.2,0.9h-1l-0.8-0.5l-1-0.4
			l-1.4,0.3l-2.7,0.9l-5.4-2.2l-1.9,1.5l-1.8-1l-0.1,0.5l-0.4,0.5l-2.1,1.9l-2.5,3.8l-0.1,1.1l-2,6l-0.5,0.6l-2.1,1.2l-1.3,0.5
			l-0.1,2.5l-10.4-4.4l-3,1.3l-1.5-2.9l-13.6,8.6l-5.7-11.2L292,606l-12.6,8.4l8.1-14.9l1.8-9.5l0.5-1.4l-0.4-0.4l0.3-0.8l-0.3-0.6
			l0.9-1l2.9-0.8l-0.1-0.4l0.5-1.2l-0.1-1.6l-13.4-0.5l-10.9-10.1l-5.5-5.3l-19.4-17.5L243.6,506.3L243.6,506.3z"/>
		<title>Усинск</title>
	</g>
	<g id="id_4">
		<path id="path4" class="st0" d="M462.6,506l-0.4,0.1l-0.2,0.6l0.2,0.6l-0.1,0.5l-0.6-0.1l-0.5,0.1l-0.1,0.2l-0.1-0.1l-0.5,0.1
			v-0.1h-0.1v0.1l0.2,0.1l-0.4,0.2v-0.8h-0.1l0.1-0.6h-0.2v0.1l-0.5-0.2v0.1h-0.1v-0.2H459v0.2v0.1h0.1v0.1h-0.6V507h-0.1v-0.4
			l-15.2-0.1l-19.1,0.1l-1,1.5l-0.2,0.1l-0.4,0.1v0.4h-0.2v0.1h-0.2L422,509h-0.6v-0.1h0.1l0,0h-0.4v0.1h0.1v0.1h-0.4V509l-0.1,0.4
			h-0.2v0.1h-0.8v0.1h-0.1v-0.1h-0.2v0.1h-0.1v0.1h-0.1v-0.1l-0.1,0.1l-0.2-0.4l-0.2-0.1l0.2-1l1.2-0.1l0.4-0.2l-0.2-0.6l0.2-0.6
			h-32.8l0.4,78.6l1.5,0.2l0.5,0.4l0.9,1.2l2.1-0.9l3.2,1.8l-0.2,0.4l0.2,0.5l0.5,0.5l-0.5,0.9v0.8l-0.4,0.1l-0.6,0.9l-1.2,1.4
			l0.1,0.4l-0.8,1.2v1.4l-1.8,1.2l-0.1,0.2l0.1,0.4l0.5,0.2l-1,1.1l-0.1,1.1l-0.4,0.9v0.5l-0.4,0.6l0.1,0.4l-0.5,0.5l-0.2,0.8
			l-0.8,0.8l0.2,1.2l-0.2,0.2H388l-0.8,1.2l-1.4,1.5l-0.2,0.6l0.1,0.4l0.8,0.1l1.2,1.4l0.1,1l0.2,0.4l0.2,0.1l0.9,1.1l0.4,0.1
			l0.9-0.1l0.6-0.5l0.5,0.2l-0.2,0.6l0.1,0.1l2.2,1.2l0.2,0.6l0.5,0.1v0.2l-0.4,0.5l0.4,0.5h0.8l1.4,1.4l2.9-0.6l0.4-0.6l1.2-0.6
			l0.2,0.2l0.6,0.1l0.5,0.8h1l0.4,0.4l0.1,0.8l1.4-0.1l0.5,0.2v1l0.2,0.8l10.5-2l5.5,7l4.6,4.9l2,0.1v0.1h0.1l0.1,0.2l0.6,0.4
			l0.4-0.1l0.6,0.5l0.4-0.8h0.1v-0.1h0.1v0.1l0.2,0.1v0.1l0.2,0.1l0.6-0.1v0.1h0.1v0.4l0.6,0.2l-0.1,0.6l0.2,0.6l-0.2,0.1l-0.1,0.4
			l-0.2,0.4l0.4,1.4l0.4,0.1l0.2,0.5l0.6,0.1l0.9,1.8l1,0.2l0.1,0.5h0.1v0.1h0.4l0.1,0.4l0.5,0.1l0.1,0.2l-0.2,0.4l0.2,0.5l0.2,0.1
			l0.1,0.2l0.8-0.1v0.4h0.1v-0.1h0.9v-0.1h0.9v0.1h0.1l0.1,0.2h0.1v-0.1h0.2l0.9-1.2l-0.1-1.2h0.1l0.1-0.2h0.1l-0.4-1l0.6-0.1
			l-0.1-0.4l0.1-0.5h0.2v-0.4l0.4-0.1v-0.4l0.2-0.6v-0.4l0.2,0.1l1.1-0.2l0.1,0.2l0.2,0.1l0.1-0.1l0.2,0.1l0.2-0.1l0.6,0.2l1,0.4
			l0.2-1l0.4-0.1l0.6-1.1l-0.1-0.2l0.2-1l0.2-0.1l1.1-0.1l0.4-0.5l0.5-0.1l0.2-0.5l-0.1-0.2l0.1-0.6l0.2-0.2l-0.1-0.5l0.1-0.1
			L450,629l0.4-0.6l-0.1-1l0.2-0.1l0.1-0.5l0.5-0.2l0.4-0.6l0.9,0.5l0.2-0.1l0.1-0.2h0.2V626l0.5,0.1l0.8,0.2l0.5-0.1l0.5,0.2
			l0.5-0.1l0.4-1.4l-0.1-0.4l0.1-0.5l-0.5-0.4v-0.1h0.1l0.4-0.5l0.2,0.1l0.5-0.1l0.8-1.5l0.2-0.1l0.1-0.4l-0.4-0.2v-0.9l0.2-0.4v-1
			l-0.5,0.1l-1.4,0.2l0.1-0.8l-0.4-0.5l0.1-0.5h-0.1l0.1-0.1l-0.1-0.2l0.1-0.8h0.1l0.1-0.5h0.1l0.5-0.8l0.2-0.1l0.1-0.2h0.1l0.1-0.8
			h0.1v-0.1l0.5-0.1l0.1-0.2l0.6-0.4l0.4-0.8l0.2-0.1v-0.1h0.1v-0.4h0.1l0.5-1.6l0.4-0.5l0.2-1.4l0.4-0.5l0.5-0.1l0.4-0.8l0.1-0.8
			l0.2-0.4l0.1-0.6l0.6-1l0.4-0.1v-0.1h0.1l0.1-0.9l0.6-0.5l0.5-1.1l0.4-0.6l0.2-0.1l1.1,0.2l0.6-1.1l0.9-0.1l0.1-0.2h0.1l0.4-0.5
			l-0.5-0.2v-0.1H467v-0.1h-0.1l-0.1-0.4l0.4-0.2l0.1-0.2h0.1l0.1-0.4h0.2l0.2-0.4l0.8-0.2l0.4,0.1l0.4-0.5l0.6-0.4l0.1-0.4h0.1
			v-0.2l-0.2-0.1l-0.2-0.5l0.4-0.6l0.6,0.2l0.5-0.1l0.4-0.5l-0.4-0.2l-0.2-0.9l1.2-0.1l1.5-0.4v-0.2l0.2-0.5l0.4-0.1v-0.1l0.6-0.4
			v-0.1h0.1l0.1-0.2l0.4-0.2l1.1-0.2l0.9-0.6l0.6-0.7l0.2-0.1l0.2-0.1h1.4l0.2-0.1l0.6-0.1v-0.1l0.6-0.1l0.1-0.6l0.2-0.1V587h0.1
			v-0.1h0.1l0.1-0.4h0.1v-0.1l0.4-0.1v-0.1l0.9,0.1l0.2-0.5l0.4-0.2v-0.1l0.2-0.1l0.2-0.4h0.1v-0.1l0.6-0.2l0.6,0.1l0.6-0.2l1.5-0.6
			l0.2-0.6h0.1v-1.5l0.4-0.1v-0.1h0.1v0.1h0.1l0.2,0.4l0.1-0.1l0.5-0.1l0.1,0.4h0.4l0.1-0.5l0.2-0.4l1.1,0.2l0.6-0.1v-0.1l0.4-0.1
			v-0.1l0.6,0.1v0.1h0.1l0.4,0.5l0.2-0.1l0.4-0.9l0.9,0.1v0.1h0.4l0.1-0.6h0.2l0.6,0.2l0.6,0.2l0.6-0.8h0.1v-0.1h0.1l0.1-1h-0.1V579
			h-0.1v-0.1l-0.5-0.1l-0.6-0.2v-0.1l-0.5-0.2l0.4-0.8h0.1v-0.2h0.1l0.5-1h0.1v-0.4h0.1v-0.4l0.2-0.1v-0.1l0.2-0.1v-0.1l0.2-0.1
			v-0.1l1-0.2v-0.1h0.1v-0.1h0.2v-0.1h0.2l-0.2-0.5h-0.1v-0.2h-0.1l-0.1-0.4l-0.6-0.1l-0.4-0.6l-0.4-0.2l-1,0.1v-0.1h-0.1l-0.1-0.2
			l0.4-0.2l0.1-0.4l0.5-0.1l0.1-0.2l0.2-0.1v-0.1l0.2-0.1l0.1-0.4h0.1l0.2-1.2h-0.2v-0.2h0.1l0.1-0.9h0.1v-0.1h0.2v-0.1h0.1l0.2-0.5
			h0.1v-0.1l0.6-0.2v-0.1h0.1l0.1-0.6h0.1v-0.1l0.6-0.4l-0.1-0.2h-0.1l-0.2-0.4H500v-0.1h0.1l0.2-0.4v0.1h0.6v0.1h0.1l0.1-0.8
			l-0.5-0.1v-0.1h0.1V564h0.1v-1.1h0.1l0.4-0.6h0.1l0.1-1.1h-0.1l-0.1-0.6h0.1l0.2-0.5l1-0.2l-0.1-0.5l0.1-0.8l0.4-0.1l0.4-2.9
			l-0.1-1l-1.4-1.4l-6.1-7.2l-0.8-1.8l-0.2-0.1l-0.4-0.5l-0.4-1.1l-1.9-1l-0.2-0.5l-0.9-0.6l-0.5-0.6l-1.4-0.1l-0.2-0.2l-0.2-1.2
			l-1.1,0.1l-17.4-12l3.6-4.2l0.2-13.4l-0.2-0.1l-0.2-0.6v-0.8l-1.1-0.2l-0.1,0.5l-0.2,0.1l-0.9-0.4l-0.9,0.2l-0.8-0.4l-0.8-0.1
			l-1.4,0.2l-0.2-0.1l-0.2-0.4l-0.5-0.2l-1.2,0.2l-0.5-0.1l-1,0.2l-0.4-0.1l-0.5,0.1l-0.4-0.2l-0.4-0.1v0.1H462l0.1,0.9l-0.5-0.4
			l-0.4-0.5l-0.6-0.4l-0.2,0.2l-0.1,0.6l-0.6,0.1l-0.4-0.2l0.2-0.4l0.1-0.4h-0.2l-0.2,0.4l-0.6,0.1V506L462.6,506L462.6,506z"/>
		<title>Инта</title>
	</g>
	<g id="id_3">
		<path id="path3" class="st0" d="M302.2,722.6l3.3-10.1l-2.1-0.5l2.2-7l-2.7-0.6l8.6-25.2l0.5-0.6l7.5,3l2.2,1.2l-0.5,1.6l2.4,1
			v0.8l3.4,2.6l10.8-24.4l11.9,3.6l2.2-0.6l2.5,0.8l0.6,1.9l0.6,0.4l0.4-0.2l0.8,0.1l0.8,0.6l1,0.1l0.6-0.5l0.5-0.8l-0.4-2l-0.5-1.4
			l-0.3-1.4l0.1-1l0.5-1.2l13.9,3.4l0.6-0.4l5.7,2.1l1-0.3l0.2-0.8l0.5-0.5l-0.3-0.1l-0.1-0.4l0.6-0.4l0.6-1.2h1.8l1.4-0.3l0.4,0.4
			l0.3,0.8l0.4,0.1l0.3-0.1l0.2,0.1l0.4,0.5l1-0.4l0.3,0.1l0.2,0.4l0.8-1.4v-0.8l1-0.3l0.5-0.6l1.1-0.8l0.9-0.2l0.5,0.4h0.9l1-1.4
			l0.4-0.3l1.6,0.3l1-0.3h1l0.6-0.4l0.5,0.1l0.4-0.1l0.5-0.5l1.2-0.4l0.5,0.1l0.8-0.1l4.5,2.4l1-0.1l0.8,0.3l-0.5,0.9l-0.6,0.4
			l-0.1,0.6l0.1,0.1l-0.4,1l-0.4,1l0.3,0.6l-0.6,0.3v0.5h-0.1l-0.1,0.8l-1,0.1l-0.3,0.8l-0.5,0.1l-0.1,0.8h0.5l0.1,0.2l1-0.1
			l0.1-0.3h0.1l0.2,0.4h0.1l0,0l0.6-0.4l1,0.1l0.1,0.5l-0.4,0.9l0.3,0.4v0.3l0.6,0.2h0.2v0.5l0.3,0.1l0.3,0.9l0.1,0.5l-0.4,0.6
			l-0.3,0.1l-0.4,0.9l0.3,0.1v0.1h0.1l-0.2,1h0.1v0.1l0.8,0.5l-0.3,1.2h-0.1l-0.3,0.8h-0.1l-0.1,0.5l-0.6,0.4l0.1,1.5h-0.1l-0.4,0.6
			l-0.1,1.3h-0.1v0.4h-0.1v1.6l-0.4,0.3l0.1,0.5l0.1,0.3h0.4v0.8l0.9,0.2l0.3,0.4h0.4l-0.1,0.9l-0.2,0.1l0.1,0.3l0.3,0.1v0.4h0.1
			v0.1l0.8,0.6v0.5l0.4,0.3l0.1,1.1l0.4,0.3l1.1,0.2l0.3,0.3l0.6-0.4l0.8,0.1l0.6,0.3l0.4,0.1l-0.4,1.4l0.3,0.6v0.8h0.1v0.1l0.3,0.1
			v0.1l-0.4,0.1l-0.3,0.5h-0.1l0.1,0.8l-1.4,1.6l-0.3,1.2v1l0.4,0.2v0.1h-0.1l-0.4,1.1h-0.4l-0.3,0.4l-0.3,0.1l-0.1,1l-0.3,0.4h-0.1
			v0.1l-0.6,0.5l-0.5,0.1l-0.3,0.1l-0.2,0.4l-1.6,0.8l-0.1,0.4l-0.6,0.4v0.1h-0.1l0.1,1.3l-0.1,0.4l0.6,1.1l-0.3,1.4l-0.1,0.1
			l0.1,0.2l-0.4,0.3l-0.1,0.6h-0.1l-0.5,1.2l0.1,0.5l-0.1,1.1h0.1v0.3h0.1v0.3h-0.3l-0.3,0.6l0.3,0.4l-0.1,1.3l-0.1,0.1l0.1,0.1
			l-0.3,0.9h0.1l0.3,0.8l-0.6,0.8l-0.2,1.4l-0.1,1.6l-0.4,0.1v0.8h-0.2v0.6h0.1v0.1h0.1v0.1h0.1l-0.3,0.1l-0.1,3.4h0.1v0.1H406
			l-0.3,1.6l-0.4,0.4l-0.4,0.1l-0.1,0.6l0.2,0.8h0.1l-0.3,1.1l-0.6,1.1l-0.4,0.1l-0.1,1.5l-0.4,1.1l0.1,0.1h-0.1l-0.3,0.6l-0.1,0.6
			h-0.1v0.1l-0.5,0.2l-1.1,1.6v0.1h-0.1l0.4,0.3v0.1l0.6,0.1l0.8,0.5h0.1l-0.1,0.6l-0.1,0.3l-0.8,0.1v0.1l-0.2,0.1l-0.1,0.4h0.1
			l0.1,0.4l-0.3,0.4l-0.1,1.5l0.4,0.3v0.1h-0.1l0.1,0.6l0.3,0.4l-0.1,0.6l0.1,0.3l0.2,0.1v0.4l0.4,0.3v0.3h-0.1l-0.1,0.4l0.2,0.4
			h-0.2v0.1H402l-0.1,0.4l0.1,0.3l-0.1,0.8l-0.4,0.5l0.1,0.5l-0.4,0.1l-0.1,0.6l0.5,0.3l-0.6,0.5l-0.2,0.4h-0.1l0.1,0.5l-0.1,0.5
			l0.1,0.1l-0.1,0.1l0.3,0.2v0.5l0.4,0.6l-0.1,0.4l0.2,0.6l0.3,0.3l-0.9,1.2l-0.6-0.1l-0.6,0.4l-0.2,0.1v0.4l-3.1-2.5l0.3-0.6
			l-0.8-1.4l0.5-1.6l-1.7-2.9l-0.3-3.3l-3.8-0.9l-2.4,0.1l-3.4-3.2l-10.4,2.1l-2.5-18l-4.1-2.1l-1.5,4.2l-4.6-8.1l-2.6,6.3
			l-9.6,28.9l-18.1-6.6l-10-4.1l0.1-2.2l-8.5-3.8l1.9-4.1l-2.2-0.9l3.5-10.6l-7.4-1.8l-0.5,0.8L302.2,722.6L302.2,722.6z"/>
		<title>Вуктыл</title>
	</g>
	<g id="id_2">
		<path id="path2" class="st0" d="M461.3,505.6v-0.3h0.1v0.1l0.5,0.2l0.8-0.1l-0.3-0.4h0.4v-0.3h0.1v0.1h0.5l0.1-0.5l-0.2-0.6
			l0.1-0.3l-0.1-0.5l0.6-0.4l0.4-1l-0.8-0.2l0.8-0.3l-0.4-0.9l0.1-0.3h0.4l0.1,0.5l0.3,0.1v-0.3h0.5v-0.3h-0.1l0.2-0.6l0.3-0.1v0.1
			l0.4,0.2l0.1-0.4h-0.1v-0.2h0.3v0.1l1-0.5v-0.1h-0.1v-0.1l11.9-6.4l14-8.2l3.1-1.2l-0.5-0.4l-0.1-0.6h0.1v-0.1l0.9-0.1l0.1-0.4
			l-0.1-0.5h-0.1v-0.3h0.3l0.1,0.3h0.1v0.1l0.1-0.4h-0.1h0.4l0.1-0.4h0.1v-0.1h-0.1l-0.1-0.5h0.1h-0.1V479h0.1v-0.1h-0.1v-0.3h0.1
			v-0.1h-0.1l-0.1-0.4l0.3-0.5h0.1v-0.1h0.1v-0.1l-0.4-0.1v-0.1h0.1V477h-0.1v-0.5h-0.2l-0.4-1.4l-0.4-0.3l-0.5-0.3V474h0.1
			l-0.4-0.5v-0.1l-0.3,0.3l-0.1-0.1l0.4-0.3l-0.1-0.3h-0.1l0.1-0.5l1.3,0.1l0.4-0.1v-0.4l0.2-0.1v-0.1h-0.1l0,0h0.1v-0.1h-0.1v-0.1
			l0.3-0.1v0.1l0.5-0.2h-0.1l-0.1-1.6h-0.1v-0.2h0.1l0.1-0.4h0.1v-0.8h-0.1v-0.3H498l-0.1-0.6h0.1l0.1,0.4l0.4,0.1v-0.3h-0.1
			l0.1-0.3l0.1,0.3h0.1v-0.3h0.1v0.1h0.1l-0.3-0.1v-0.2l0.6-0.1l0.1-0.5l0.9-0.1l1.5-0.6l0.2-0.1v-0.4h0.3v0.1l0.1-0.1l0.4,0.1v-0.1
			l-0.2-0.1h0.5l-0.1-0.2l0.4-0.1l0.1-0.2l0.3-0.1l-0.3-0.1v-0.1l0.3,0.1l0.1-0.5l-0.1-0.3l0.1-0.4l0.5-0.4h-0.2v-0.4h0.1v-0.3h0.1
			v-0.1h0.1v-0.1h-0.1v-0.4h0.1v-0.3l0.2,0.1v-0.1h0.8v-0.1h0.3v0.1l0.4-0.1v-0.1l0.4-0.1l0.3,0.1v-0.4h-0.1l0.1-0.4h0.9v-0.1h0.1
			v-0.1l0.6,0.1l0.5-0.1v0.1h0.1l0.1-0.5h0.1v-0.3h-0.1v-0.3h-0.3v-0.4h0.1v-0.1h0.1v-0.1l0.3,0.1v-0.1h0.2l-0.1-0.3h0.1v-0.5h0.1
			v-0.1h0.5v-0.1l0.4,0.1l0.6-0.1v-0.3l0.5-0.2v-0.1h0.1l0.1-0.2l0.5-0.1l0.1,0.3h0.1V457h0.1v0.1h0.1l-0.1,0.1l0.6,0.1v0.1l0.8,0.3
			v0.1h0.1v0.3H514l0.1,0.5h0.1v0.1l0.5,0.1l0.1-0.1v0.1h0.1v-0.1l0.5,0.3v0.1l0.2,0.1l0.1-0.6l0.6,0.3h0.4v0.1l0.4,0.1v0.1h0.8
			v-0.3h0.5l-0.1,0.1h0.4v-0.1h0.3v-0.1l0.4,0.1v-0.1h-0.1v-0.1l0.5,0.1v0.3h0.3v-0.4h0.1v0.1h0.1v0.1l0.4-0.1v0.4h0.1l0.1,0.4h0.3
			v0.1h0.1v0.1l0.4-0.1l-0.1-0.4l0.1-0.2h-0.1v-0.2l-0.1,0.1v-0.1h0.1v-0.4h0.5v-0.4h-0.4v0.1h-0.3v-0.1h0.1V458h0.1l-0.3-0.4h-0.6
			v-0.1h0.1v-0.1l-0.4-0.1v-0.1l-0.4-0.1v-0.2h0.1v-0.1l-0.5-0.3v-0.4h0.3v-0.5h0.1l0.1-0.6h-0.2v-0.1h0.4l-0.3-0.8h0.1v0.1l0.3-0.1
			l0.1-0.3l0.8-0.3v0.3h-0.1v0.1h0.1v0.1l0.3,0.1l0.1,0.4l0.4-0.5l-0.4-0.3h0.1v-0.3l0.5-0.6h0.1v0.1h0.1v-0.1h0.2l0.3,0.5l0.5-0.2
			v-0.2h0.3l0.1,0.3h0.1v-0.1l0.6-0.1l0.1-0.4h0.2l0.3-0.5l0.4,0.1v-0.1h0.1v-0.4h0.4v-0.4l-0.4-0.1l0.3-0.1v-0.6h0.3v-0.1h0.1v-0.1
			h-0.1v-0.4l0.6,0.1l0.1-0.6h0.1v-0.1H527v-0.4h-0.1l0.5-0.1v0.1l0.8-0.1v-0.1h0.1h-0.1l0.1-0.5h-0.1v-0.3h-0.3l-0.1-0.3l-0.4,0.1
			l-0.3-0.1v-0.2H527v-0.1l-0.6-0.4v-0.4h-0.1v-0.2h-0.1l0.1-0.5h0.1v-0.1h0.1v-0.1h0.3v-0.3h0.1v-0.1h-0.2l-0.1-0.4h-0.2v-0.1h0.1
			v-0.1h0.1h-0.1v-0.1l0.3-0.1l-0.1-0.4h-0.1l-0.3-0.5h-0.2v-0.1H526l0.1-0.4l-0.1-0.4h-0.2l-0.1-0.4l0.4-0.3l-0.1-0.3l-0.6-0.1
			l0.1-0.8l-0.4-1.2h-0.3v-0.1h0.3v-0.1h0.5v0.1h0.1v-0.1h-0.1v-0.1l0.8-0.1v-0.2h0.1v0.1l0.3-0.1v0.1h0.1v-0.1l0.3-0.1v0.1h0.4
			v-0.1l-0.3-0.1l0.4-0.1v0.1l0.4-0.3H528v-0.1l0.3-0.1v-0.3l0.4,0.1l0.4-0.1v-0.1l0.5,0.1l0.3-0.1l0.1-0.3l0.3-0.1v-0.3l0.4-0.1
			v0.1l0.4-0.1l0.2-0.4h0.3v-0.1l-0.4-0.1v-0.1h-0.1V436h0.1v-0.1l0.9,0.4V436H532v-0.1l-0.8-0.1v-0.1h0.1v-0.1h0.4v0.1h0.1v-0.1
			h0.1v-0.1v0.1h0.1v0.1l1.3-0.2l0.2,0.1l0.1-0.5h0.2l-0.1-0.4h-0.1l0.1-0.3h0.1l0.1,0.3l0.6,0.1l0.5-0.6l0.6,0.3l0.6-0.1l0.1-0.5
			l1.1,0.5l0.4-0.6l0.3-0.1l0.3,0.1v-0.1h0.1l-0.1-0.4l0.2-0.1v0.1l0.5,0.3l0.2-0.3l-0.1-0.8l0.9-1.1l-0.4-0.1l-0.1,0.2l-0.9-0.1
			l0.1-0.3h0.5l0.1-0.6l-0.1-0.3l0.9-0.1l0.6-0.5v-0.3h0.3l0.5-0.6l0.5-0.1l0.4,0.3l0.5-0.1l0.1,0.8l0.6-0.1l0.9-0.4l0.6,0.1
			l0.1-0.5l-0.6-0.4l0.4-0.3l-0.1-1.8l0.1-0.6l-0.3-0.1v-0.1h-0.1l0.5-0.8l-0.3-0.4l-0.2-0.1v-0.2h0.1v-0.1l-0.5,0.1l-0.4-0.2
			l-0.3-0.6l0.3-1.1l0.1-0.4l-0.1-0.5h-0.1l-0.1-0.5l0.3-0.4l0.6-0.1l-0.1-0.3l-0.4-0.1v-0.3l0.5-0.1l0.5,0.1l0.2-0.1l-0.2-0.6
			l0.1-0.2l1.1-0.6l0.5,0.1l0.6-0.4l0.1-0.6l-0.1-0.3h0.1l0.1-0.3h0.1v-0.1h0.1v-0.1l0.4-0.3v-0.1l0.9,0.3l0.4,0.4h0.5v-0.1l0.5-0.1
			l0.3-0.9l0.5-0.3v-0.2l0.8,0.1l0.5,0.1l0.1,0.4l0.4-0.1l0.1-0.3h0.3l0.1,1l0.6-0.1v-0.1h0.3v-0.1l0.2-0.1v0.1h0.3v-0.1l0.8-0.5
			v0.3h0.1v-0.1h0.1v0.1h0.1v0.1h0.1v-0.1l0.3,0.1l0.4,0.9l0.8,0.1v0.1l0.4,0.1l0.3-0.1v-0.1l0.8-0.2l-0.3-0.9l1.9-0.9v0.1l0.5,0.1
			v0.2h0.3v0.1l0.5-0.1l0.1,0.3h-0.1v0.1h0.1v-0.1l1.4,0.3v-0.1l0.9,0.4v0.1h0.1l0.1-0.3h-0.1l0.3-0.4h0.2v-0.1h0.4v0.1l0.3,0.1v0.1
			h0.1v0.4l0.8-0.1l0.4-0.1l0.4-0.9h0.1v-0.1h0.2v0.1h0.3v0.2h0.3l0.1-0.5h-0.1v-0.3l0.6-0.1v0.1l0.5-0.1l0.1-0.1v0.1l0.6,0.1v0.1
			l0.4,0.1v0.1h0.1v-0.1h0.1v-0.1h0.3v0.4H571l-0.4,0.6l-0.6,0.5l-0.1,0.3l0.1,0.4l-0.1,0.3h-0.1v0.3l0.3,0.1l0.1,0.6l-0.8,0.1v0.1
			h-0.1l-0.1,1l0.1,0.4l-0.1,0.4h-0.1l-0.2,1h-0.1l-0.2,0.4l-0.3,0.1l-0.1,0.5h-0.1v0.1h0.1l-0.1,1.1l0.1,0.2h-0.1l-0.2,0.6
			l-0.6-0.1l0.1-0.1h-0.1v-0.1h-0.1v0.3h-0.1l0.1,0.2l-0.3,0.4h-0.1v0.1h-0.1l-0.1,0.5h-0.1v0.1h-0.1v0.1h0.1v0.1h0.1v0.4l-0.5,0.1
			v0.2h-0.3v0.1h-0.1l0.1,0.3h0.1l-0.1,0.6l0.1,0.6h-0.1l0.3,1.1l0.6,0.2h0.1h-0.1v0.1l-0.4,0.1v0.1h0.1v0.1v-0.1l0.2-0.1l0.3,0.1
			v0.1h-0.1v0.4h-0.1l0.1,0.3h-0.1l-0.4,1v0.1h-0.1v0.1h-0.1l0.1,0.1l0.3-0.1v0.1h0.1v0.3h-0.1l0.2,0.9l0.4,1.2v0.4h0.1v0.1l0.8-0.1
			v0.3h-0.3v0.1h-0.3v0.3h0.4v0.1h0.1v0.1h-0.1v0.1l-0.2,0.1l-0.1,0.6l0.4,0.2v0.1h-0.1v0.1h-0.1v0.1h-0.1l0.4,0.9l-0.2,0.1v0.1
			l-0.3,0.1l-0.1,1h0.1v0.5h-0.1l0.1,0.4l-0.1,0.2h-0.1v0.4h-0.1l0.1,0.4l0.3,0.4l-0.1,0.8h0.4l-0.1,0.5l0.4,0.2h0.1l0.1,0.3
			l-0.3,0.1v0.1H568l0.1,0.5l0.1,0.3h0.1l-0.1,0.6l0.4,0.3l0.4,0.1v0.1h0.1v0.2H569l0.1,0.9l0.5,0.1v0.1h0.1l0.1,0.4l0.1,0.3h0.1
			v0.1l0.4,0.1v0.1h0.1v-0.1l0.5-0.1v0.1l1.1-0.1l0.3-0.4h0.3v-0.1h0.1v-0.1h0.3v0.1v-0.1l1.6-0.1l2.4,0.1v0.1h0.3v0.1h0.3v-0.1
			l0.2-0.1v0.1h0.4v0.1h0.1v0.1h0.2v0.1l0.6,0.1l0.5,0.1v-0.1l0.4-0.1l2.8-2.2l1.6-0.3l0.3,0.1v0.1h0.1l0.3,0.5l0.9,0.3h0.3v0.1h0.1
			l0.1,0.3l0.6,0.2l0.1,0.3v-0.1l1.5-0.4l0.4,0.5h0.1v0.1h0.5l0.1,0.5l0.3,0.1l0.2,0.6v0.1h-0.1l-0.2,0.5l0.1,0.8l-0.3,0.3v-0.1
			l-0.3,0.1v0.1h-1v0.1l-0.4,0.1v0.3h-0.1l-0.1,0.8h0.3l0.3,0.8l0.4,0.1l-0.1,0.6l0.1,0.2h-0.1l-0.1,0.6h-0.1v0.1l-0.3,0.1l-0.1,0.4
			h-0.2v0.1H588v0.1h-0.1v0.1h-0.3v0.1h-0.1v0.3h0.1l0.1,0.2h0.4v0.1l0.6,0.1l-0.1,0.8h-0.1v0.3h-0.1h0.1l0.1,0.2l1.6-0.1l1.4,0.8
			l0.6,0.9l1.1,0.3l0.5,0.8l0.1,0.6h-0.1l-0.1,0.2h-0.1l-0.4,0.8l0.1,1.1h-0.1l-0.1,1l-1.6,2.2l-1.4,0.1l-0.6-0.8l-1.4-1l-1.8-0.1
			l-0.2,0.8l0.1,0.4l-0.5,0.4l-0.5-0.4l-0.9-0.4l-0.8-0.1l-0.3,0.1l-0.6-0.2l-0.3,0.1l-0.6,0.9l-0.4,0.1l-0.8,0.6l0.3,0.5l0.6,0.5
			v0.8h0.2l0.3,0.6l0.1,0.4l-0.2,0.1l-0.1,0.3l-0.8,0.6l-0.2,0.9l0.6,1.6l0.4,0.5l1.1-0.1l0.6-0.4l0.1-0.4l2.2-0.5l0.5-0.4v-0.1
			l0.5-0.1l0.5-0.4v-0.1l0.9-0.3l0.3,1l-0.1,0.2l0.3,1.6l0.8,1.6l-0.1,1.9l-1,2l-0.5,0.9l-0.6,1.9h-0.1v0.1l-0.9,0.4l-2-0.1
			l-1.5,0.5l-0.8,0.6l-1-0.4l-2.7,0.8l-0.3,0.8h0.1l0.1,0.5l0.6,0.4v0.1h0.1l0.2,0.5l0.5,0.1l-0.1,0.8l-2.2,0.6l0.1,0.6l-0.1,0.3
			l0.1,0.8l-0.4,0.3l-1-0.5v-0.2l-0.6,0.4v0.4l-0.4,0.6l-0.5,0.2l0.1,0.9l-0.4,0.2v0.1H574v0.2l-1.2,0.4l-0.3,0.6h-0.4l-0.8,1
			l-0.1,0.2l-0.5,0.4l-0.1,0.3l-0.4,0.1l-0.3-0.5l-0.9-0.1l-0.4,0.2l-0.8,0.6h-0.3v0.1H567l-0.1,0.8h-0.1l-0.1,0.4l-1.2,1v0.6h-0.1
			v0.1l-0.9-0.1l-0.1,0.2h-0.1l-0.2,0.4l-0.8,0.1v0.5l0.2,0.1v0.1l0.6,0.2v0.1h0.1l-0.1,0.9l-0.3,0.6l0.5,0.2l0.6,0.9l-0.6,1.1
			l-0.4,0.5h-0.1v0.1h-0.9l-1.2,0.3l-0.8,0.9l-0.5,0.4l-0.1,0.3l1,2.6l-0.1,1.2l0.3,0.8v0.5l0.6,0.1v0.3H562v0.2h-0.1l0.1,0.4
			l-0.1,0.3l0.1,0.3h0.1v0.1h0.1v0.5h-0.1v1.3H562l-0.2,0.4l-1,0.4l-0.4,0.5l-0.6,0.1v0.1h-0.1v0.6l-0.6,0.3l-0.6,0.1l-0.3,0.1v0.1
			l-0.4,0.1l-0.1,0.3h-0.5l-0.1-0.3l-0.8,0.1l-0.1,0.4h-0.1v0.4H556v0.1l-0.4,0.1l-0.1,0.3h-0.1l-0.1,0.3l-0.6,0.4l-0.6-0.1
			l-0.1,0.3l-0.4,0.3v-0.1h-0.1l-0.1-0.2v0.1l-0.5-0.1l0.3-0.1v-0.1l-1.1,0.1v0.1H552l-0.1,0.5l-0.4,0.1l-0.4-0.2l-1-0.3l-0.1,0.8
			l0.3,0.1l0.1,0.5l-0.4,0.2l-0.9,0.4h-0.5l-0.1-0.2l-0.4-0.1v-0.1H548v0.5h-0.1v0.1l-0.8,0.1v-0.1H547v-0.1l-1.2,0.3v0.1h0.1
			l-0.1,0.6l0.1,1.2l-0.4,0.3h-0.1v0.1l-0.6,0.3l-0.2,0.4l0.1,0.9l0.6,0.5l0.2,0.1v0.5h-0.1l-0.1,0.4h-0.6v-0.1l-0.4-0.1v-0.4h-0.1
			v0.1l-1.1,0.2l-0.3-0.4l-1.5-0.1l-0.5,0.6h-0.4v0.1h-0.1l-0.1,0.3h-0.1l-0.4,0.5l-0.1,0.5l0.1,0.3h0.1v0.3h-0.1v0.1l-0.4,0.1v0.1
			h-0.1l-0.1,0.4l0.3,0.1l0.1,0.3h-0.1v0.1h-0.1v0.1h-0.4v0.1h-0.1v0.1h-0.1v-0.1l-0.5,0.1l-0.1-0.1l-0.3,0.1l0.1,0.8h-0.1v0.1
			l-1.5-0.2l-0.5-0.1v-0.1l-0.6,0.1l-0.1,0.3H535v0.3h-0.1v0.1h-0.2v-0.2h-0.4v-0.1l-0.4-0.1l-1.1,0.3v0.1l-0.6,0.1l-1,0.4v-0.1
			l-0.9-0.1v-0.1h-0.1v0.1h-0.3v0.1h-0.1v0.1h-0.1l-0.1,0.9h-0.1l-0.5,1.1l-0.5,0.6l-0.9,0.4l-0.1,0.4l-0.4,0.3v0.1l-0.6-0.2
			l-0.3,0.1v0.8h-0.1l-0.3,1.4h-0.1v0.1h-0.1v-0.1l-0.4,0.1l-0.1,0.6l-1,0.1l-0.2-0.1l-0.3,0.1l-0.3,0.5l-1.2,0.1v0.1l-0.9,0.4v-0.1
			h-0.1v0.1l-0.6-0.1v-0.1l-0.5-0.1v0.1h-0.1l-0.1,0.6l-0.3,0.1v0.1l-0.8,0.4v0.1h-0.1l-0.1,0.5l-0.4,0.1v0.1H518l-0.1,0.8l-0.6,0.1
			v0.1l-0.3,0.1l-0.4,0.5v0.3l-1.1-0.3h-0.2v-0.1l-0.3-0.1v-0.1h-0.1v-0.1l-0.4,0.1l-0.3,0.1v-0.1h-0.4v0.3h-0.1v0.3h-0.1l0.1,0.4
			l0.1,0.4l-0.3,0.1v-0.1l-0.8,0.2l-0.1,0.6l-0.3,0.1l-0.1,0.5l-0.5,0.2v-0.2l-0.5,0.2l-0.1,0.4l0.3,0.1v0.1h-0.1l-0.2,0.9l-0.3,0.4
			l-0.1,0.8l0.1,0.3l-0.4,0.8h0.1v0.5h-0.4v0.4H510v0.6h0.1l0.1,0.3l-0.8,0.2v0.1h-1l0.1,0.9h0.1v0.3h0.1l-0.3,0.5h0.1l-0.1,0.8
			l0.1,0.3l0.5,0.1v0.3h0.1v0.8l0.3,0.1l0.1,0.6l0.3,0.4l0.6,0.4l0.1,0.4h-0.3l-0.1,0.5H510l-0.4,1.2h-0.1v-0.1h-0.1v-0.1l-0.6,0.1
			l-0.1-0.5h-0.1v-0.1h-0.3l-0.1-0.4h-0.5v0.1h-0.1v0.1l-0.6-0.9l-0.4-0.1V556l-0.6-0.3v-0.1h-0.3v-0.1l-0.9,0.6l-0.1,0.9l-0.2,0.4
			v0.4h-0.1v0.2h-0.1l-0.1,0.3h-0.1v0.1H504l-0.1,0.4l-0.6,0.1l0.4-2.9l-0.1-1l-3.5-3.8l-4-4.9l-0.8-1.7l-0.3-0.1l-0.4-0.5l-0.4-1.1
			l-1.9-1l-0.3-0.5l-0.9-0.6l-0.5-0.6l-1.4-0.1l-0.3-0.2l-0.2-1.3l-1.1,0.1l-17.4-12l3.6-4.3l0.3-13.4l-0.3-0.1l-0.3-0.6l-0.1-0.9
			l-1-0.1l-0.1,0.5l-0.5,0.1l-0.6-0.4l-0.9,0.2l-0.8-0.4l-0.8-0.1l-1.4,0.3l-0.3-0.1l-0.2-0.4l-0.5-0.2l-1.2,0.2l-0.5-0.1l-1,0.3
			l-0.4-0.1v-0.2h-0.1L461.3,505.6L461.3,505.6z"/>
		<title>Воркута</title>
	</g>
	<g id="id_1">
		<path id="path1" class="st0" d="M163.6,847.9l3,2.1l3-1.1l1.4,0.9l-0.4,1.4l-0.1,2.2l-2.1,4.4l-1.7,0.1l-2.3,1.7l-3-0.7l-0.9-2.5
			l-3.8-1.4l-6.6-8l0.5-1.7l-2.8-0.9l1.6-4.4l2.8,0.9l1.1-1.7l2.8,0.9l0.9,2.6l6.9,2.8L163.6,847.9z"/>
		<title>Сыктывкар</title>
	</g>
</g>
</svg>
