<svg version="1.1" id="districts-svg" xmlns="http://www.w3.org/2000/svg" xmlns:xlink="http://www.w3.org/1999/xlink" x="0px"
	 y="0px" viewBox="0 0 600 600" style="enable-background:new 0 0 600 600;" xml:space="preserve">
<style>
	.districts-path.hover > .districts-path-territory,
	.districts-path:hover > .districts-path-territory {
		fill: rgba(0,150,0,0.7);
	}
	.districts-path.hover > .districts-path-city,
	.districts-path:hover > .districts-path-city {
		fill: rgba(255,255,255,0.7);
	}
	.districts-path-territory {
		fill: rgba(120,255,120,0.7);
		stroke: rgba(0,50,0,0.7);
		stroke-width: 1px;
		cursor: pointer;
		transition: .2s;
	}
	.districts-path-city {
		fill: rgba(255,255,255,0.3);
		stroke: rgba(0,50,0,0.7);
		stroke-width: 1px;
		width: 15px;
		height: 15px;
		cursor: pointer;
		transition: .2s;
	}
</style>
<g class="districts-path" id="districts-path-20">
	<path class="districts-path-territory" id="districts-path-territory-20" class="st0" d="M105.1,155.7v-6l41-24.2l23.4-13.3l9.8-5.4v-0.5h0.1l0,0h-0.1l-0.3-1
		l-0.4-0.3l-0.1-0.6l-0.4-0.2l-0.4-0.3v-0.4h0.1V103l-0.2-0.1h0.1l0.3-0.9l1-0.6h0.1v-0.6H179v-0.6h0.1v-0.1h0.1V100h0.1v-0.3h-0.1
		v-0.1h-0.3l-0.1-0.3h-0.1v-0.1h-0.1v-0.3h-0.1l-0.1-1.2l-0.3-0.1l0.1-0.5h0.1V97h0.1l0.3-0.9h0.4V96l0.2-0.1v-0.1l0.9,0.3l0.6-0.3
		v-0.1h0.5v-0.1l0.2,0.1l0.1,0.4l0.8,0.3v0.1l1,0.9l1,0.3l0.4-0.3l0.3-0.4l0.6,0.3l0.1,0.5l-0.3,0.4h0.1v0.1l0.3-0.1l-0.1-1.4
		l0.2-0.5l0.5-0.1l-0.1-0.3l-0.4-0.1l-0.9,0.3l0.1-0.5l0.8-0.5V95h0.1v0.1h0.1l0.1,0.5l1,0.4l-0.3-1.1l0.6-0.8V94h-0.1l0.1-0.1
		l0.6,0.4l-0.1-0.3l-0.6-0.5l0.1-0.6l0.6-0.1v-0.3l-0.8-0.2v-0.2l0.9-0.3l0.8,0.4v0.3l0.4-0.3v-0.1l1-0.4v0.4h0.5l-0.1-0.5l-0.5-0.2
		l0.1-0.4l1-0.4l0.7-0.1l0.3-0.5l0.1,0.1l-0.1,0.1l0.1,0.2l1.4-0.2v-0.3l-0.3-0.1l0.1-0.5l-0.3-0.1l0.1-0.4H193l0.1-0.6h0.3l0.4,0.3
		l0.4-0.1l0.1-0.5l0.3-0.4l2-1.9l33.3,4.1l13.8,2l0.8,42.1l-4.9,11.3L222,185.2l-5.8,13.2l0.5,1.6l-2,1l-0.9,4.3l3.8,6.2l5.2,8.9
		l5.2,8.4l-6.7,9.4l-20,6.6l-10.8,11.9l-15.7-3.4l-0.9,3.6l-1.9,0.9l-1,4.1l-7.6-1.1l1.2-4.5l-2.7-0.4l0.3-2.1l-0.4-0.4l1.1-2.5
		l-0.5-0.5l0.1-0.9l-0.1-0.4l-0.6-0.8l-0.3-0.9l-0.2-0.2H161l-0.1-0.4l0.3-0.8l-0.3-0.8l-0.2-0.3l-0.5,0.1l-0.4-0.4l-0.4-0.1
		l-0.8-0.6h-0.2l-0.1,0.5l-2.1-0.8l-0.1-1.1l-0.6-0.4l-0.1-0.4l0.1-0.6l-0.3-1.1l-0.9-0.1l-1.1-0.9l-1-0.5l-0.9-0.9l0.2-1.1
		l-6.6-2.5l-3.6-0.9l-5-8.9l-0.5-0.6l-1.4-2.5l-2.2-3.4l-5.1-8.4l-3.1-6.2l-16.9,4.2l-0.5-13.8h0.3L105.1,155.7L105.1,155.7z"/>
	<circle class="districts-path-city" id="districts-path-city-20" class="st1" cx="208.5" cy="191.4" r="3.5"/>
</g>
<g class="districts-path" id="districts-path-19">
	<path class="districts-path-territory" id="districts-path-territory-19" class="st2" d="M207.3,453.8l1.7-9l11.4,1.6l1.6-9.4l-0.3-0.1l-0.3,0.1l-0.5-0.5l-0.6,0.5
		h-0.2l-0.3-1l0.5-0.4v-0.8l0.4-1l-0.5-0.6l0.1-0.3l-0.6-1.2l0.2-0.6l-0.1-1.6l0.3-0.4l-0.4-0.1l-0.1-0.4l0.5-0.4V428h0.4l-0.4-1.4
		l-0.9-1.1h-0.5l-0.5-0.4l-0.8-0.3l-0.5-0.2l1.4-1.7l1.1,0.3l4,2.1l0.8-4.1l4.2,0.6l0.2-2l1.6-0.1l0.4-2l1.1,0.3l0.7-1.6h1.3
		l1.1-7.6l-2.4-0.1l0.9-5.7l3.1,0.4l0.4-5l-3.2-0.4l2.4-9.4l-2.2-0.5l2.1-9.4l-1.9-0.9l0.5-9.3l44.4,9.7l3.6,1l10.9,2.7l-7.2,19.3
		l8.4,12.6l-3.2,5.4l1.8,3.5l4.6,0.9l2.1-2.6l12.5,7.5l3.7,5.6l1.8,2.9l-4.5,18.1l3.5,6.8l-0.1,0.9l0.5,0.8l-1.5,6.4l-13.5-3.5
		l-2.4,10.1l-13.4-3.6l-2,10.1l-4.3-1.1l-2.1,9.6l-7.3-1.8l-24.6-6.3l-1.4,9.6l-9.6-2l-4.3-1l1.8-9.8l-15.8-3.9l-4.6-1.4l3-14.5
		l-2-0.4l0.7-5.4l-5.6-0.8L207.3,453.8z"/>
	<circle class="districts-path-city" id="districts-path-city-19" class="st1" cx="243.5" cy="436.4" r="3.5"/>
</g>
<g class="districts-path" id="districts-path-18">
	<path class="districts-path-territory" id="districts-path-territory-18" d="M105.6,440l1.4-8.1l3.7-19.8l0.3-1.5l0.6-0.2l1,0.4l0.4-0.5l-0.3-0.5l0.1-0.1l-0.4-0.1
		l0.2-1.4l2.4,0.4l2.2-12.4l3.3-19.4l0.3,0.1l1.9-9.7l11.5,2.2l-3.4,19l13.7,2.6l-0.6,4.9l7.6,1.5l-0.3,3.5l0.6,0.6l1.9,0.1
		l-0.1,1.9l-2,9.1l-9.7-1.2l-0.9,1l-2.6,0.2l1.4,1.5l-2,0.7l-0.5,0.6l-0.4,1.4l-2.8-0.3l-0.8,1.9l-2.6-0.1l-0.4,4.3l-2.8-0.5
		l-2.3,10.2l-9.1-1.9l-1.9,11.7L105.6,440L105.6,440z"/>
	<circle class="districts-path-city" id="districts-path-city-18" class="st1" cx="135.5" cy="410.4" r="3.5"/>
</g>
<g class="districts-path" id="districts-path-17">
	<path class="districts-path-territory" id="districts-path-territory-17" class="st3" d="M0,275.5l7.1-4.2l2-1.1l4-1.4l12,1.6l-0.1,0.2l1.8,0.1l0.8-1l0.6-0.4
		l0.6,0.1l0.3,0.4l6.6-3.6l9.8-1.4l7.8-0.6l3.2-0.5l18,0.8l5.8-0.1l-0.1,0.9l0.2,3.6l0.9,3.2l7.8,1.4l1.6-9.7l10.6,1.9l0.1-0.3
		l0.3-0.1l-0.1-0.5l-0.2-0.3l2.1-8.7l15.3,3.4l2-9.7l10.3,1.9l0.3-0.8l13,3.1L147,242l1.6-6.6l2.8,1l-0.2,1.1l0.9,0.9l1,0.5l1.1,0.9
		l0.9,0.1l0.3,1.1l-0.1,0.6l0.4,0.6l0.4,0.1l0.1,1.1l2.1,0.8l0.1-0.5h0.2l0.8,0.6l0.4,0.1l0.4,0.4l0.5-0.1l0.2,0.3l0.3,0.8l-0.3,0.8
		l0.1,0.4h0.4l0.2,0.2l0.3,0.9l0.6,0.8l0.1,0.4l-0.1,0.9l0.5,0.5l-1.1,2.5l0.4,0.4l-0.3,2.1l2.7,0.4l-1.2,4.5l-2.8,13.9l-3.9-0.5
		l-3.9,17.4l-21.8-4.1l-4.5,19.1l6.8,2.1l-0.5,3.5l13.6,3.9l-1.1,5.1l3,0.4l-0.9,4.7l4.3,0.8l-0.8,4.6l3.1,0.2l-2.6,10.3l-14.5-2.8
		l-1.8,9.5l-2.4-0.4l-4.4,19.7L97,361.9l-1.8,9.7l-9.7-2.1l-1.9,9.7l0.1,0.3l-1,4.9l1.2,1.9l0.8,11l-8.1-0.6l-11.3-0.8l-0.5,10
		l-7.5-0.4l0.5-10l-5-0.1l0.4-19.6l-0.5-0.8l-4.2-10.4l-0.6-1.1l6.6-5.5l3.9-2.9l0.6-0.6h-1l1.8-3l1.7-2.5l0.3-4.3l0.5,0.1l0.4-2.1
		l-5-0.9l-4.7-4.2l-2-1.5l-3.1-0.6l-0.6-2.5l-2.6-3.6l0.1-3.6l-0.3-3.3l2.1-4.1l0.1-3.9l-0.6-0.8H46l0.3-0.8l-4.5-8.5l-1-1.6
		l-9.2-7.1l-3.6-2l-5-2l-1.5-1.1l-6-0.9l-10.2-6.5l-4-5.1L0,275.5L0,275.5z"/>
	<circle class="districts-path-city" id="districts-path-city-17" class="st1" cx="101.5" cy="320.4" r="3.5"/>
</g>
<g class="districts-path" id="districts-path-16">
	<path class="districts-path-territory" id="districts-path-territory-16" class="st0" d="M282.7,379.2l7.2-30l2.6-1.5l7-23.1l9.8,2.9l-1,3l3,0.9l1.7,0.1l3.7,2.1
		l0.5,4.1l10.9,3.4l1.6-2.5l1.3,0.2l1.2-2.2l18.4,6.5l9.9-28.9l2.7-6.3l4.7,8.1l1.5-4.2l4.2,2.1l2.6,18l10.7-2.1l3.5,3.2l2.4-0.1
		l3.9,0.9l0.3,3.3l1.7,2.9l-0.5,1.6l0.8,1.4l-0.3,0.6l2.5,2l0.4,0.3l0.3,0.2l0.1,0.2l0.3,0.4l-0.4,1.4l0.1,0.3l-0.5,1.1h-0.1
		l-0.1,0.5l-0.1,0.1l0.3,1.5l0.2,0.4l-0.1,0.4l0.3,0.3v0.5l0.5,0.1l1-0.1v0.1h0.1v0.2l0.4,0.1l0.1,0.9l0.8,1.2l0.8-0.1l1,0.3
		l0.9,0.5l0.3,0.4l0.1,0.5h0.5l0.4,2l-0.1,0.4h-0.1l-0.3,0.4h-0.1l0.3,1h-0.1l-0.1,0.8l0.1,0.3h-0.1l0.1,1l-0.1,1.4h-0.1l-0.1,2.1
		l-0.2,0.1l-0.3,0.8v0.3l-0.9,0.1l-0.6,0.3v0.1H406v0.1l0.8,0.2l0.2,0.6v0.7l-0.4,0.1v0.1l0.8,0.3l0.2,0.9l0.1,1.2l-0.3,1l0.3,0.4
		l0.2,0.1v0.1l0.3,0.1v0.1h0.3v-0.1h0.1l0.1,0.3l-0.4,0.2l-0.1,1.6l0.3,0.4l0.1,0.2l0.6,0.4l0.2,0.6l-0.1,0.9L409,379l-0.1,0.8
		l-0.3,0.6l-0.1,0.1h0.1v0.1h0.1v0.1l0.5,0.1l0.6-0.3v0.1h0.4v-0.1l0.8,0.4l0.2,0.6l1.3,0.2l1.4-0.1l0.1-0.1l-0.1,1.9l-0.2,0.1
		l0.1,0.9l-0.1,1h-0.1l-0.1,0.5h-0.1l0.1,1.4l-0.1,1.1h-0.1l-0.6,1.6l0.6,0.5l0.5,0.2l-0.1,1.3h-0.1v1.4l-0.9,0.4l-0.1,1.6l-0.2,0.1
		l-0.3,0.4l-0.4,0.1l-0.5-0.2v0.1l-0.4,0.3v0.9l-0.5,0.4l-0.1,0.6l0.4,0.9l0.1,0.3l-0.4,1.5l-0.2,0.6h-0.6l-0.4,0.6l0.1,0.5
		l-0.2,0.6l0.2,0.8l-0.6,1l0.1,0.6l-0.3,0.5l-0.2,0.1l-0.1,0.4h-0.2l-0.3,1.1l0.1,0.9l-0.1,2.1l0.1,0.3l0.6,0.2h0.1l-0.1,1.5h0.1
		l0.1,1.1l-0.4,0.4l0.2,0.6l0.3,2.4l-0.1,0.3l0.8,0.1v0.1h0.1l0.1,0.8l0.5,2.2l-0.1,0.2h0.1l-0.9,0.6l-0.1-0.1l-0.6,1.1L408,423
		l-0.5,0.3l-0.1,1.4l0.2,0.3l-0.5,0.5l-0.6,0.1l-0.4,0.8l-0.4,0.5v0.4l-0.4,0.5l0.3,0.8l-0.3,0.6v0.6l-0.2,0.2l0.2,1.5l0.5-0.1
		l0.1,0.3l0.3,0.1l0.1,0.6l0.4,0.2l0.6,0.3l0.6,0.6l-0.5,1v0.6l-1,1.1l0.1,0.6l-0.8,0.8l0.5,1.2l-0.4,0.5h-0.6l-0.2,0.3l-0.8,0.3
		l-0.3,0.9l-0.9,0.6l-0.3,0.4l-0.3-0.1l-0.1-0.2l-0.3-0.1l-0.1-0.2l-0.4-0.1l-0.5,0.8l-0.8-0.2l-0.4,0.2l-0.6,1.4l-0.3,1l-0.8,1.1
		l-0.1,0.9l-0.3,0.1v0.3h-0.1v0.1h-0.1v0.4h-0.1h0.1h-0.1v0.3h-0.1v0.1h-0.1L397,448h-0.5v-0.1h-0.4v0.1l-0.4,0.1V448l-0.6,0.3
		l-0.2,0.6l-1.6-0.6l-2.1,1v1.4l-50.9-0.4l-0.4,1.8l-12.5-3.3l-0.5,2.1l0.1,0.3l-1.2-0.3l-0.9,4.8l-5.5-1.5L317,462l-3.5-6.8
		l4.5-18.1l-3.1-4.9l-2.4-3.6L300,421l-2.1,2.6l-4.6-0.9l-1.8-3.5l3.2-5.4l-8.4-12.6l7.2-19.3l-9.6-2.4L282.7,379.2z"/>
	<circle class="districts-path-city" id="districts-path-city-16" class="st1" cx="311.5" cy="368.4" r="3.5"/>
</g>
<g class="districts-path" id="districts-path-15">
	<path class="districts-path-territory" id="districts-path-territory-15" class="st4" d="M101.8,473.4l4.9-1.5l0.8-0.6l5.6,1.2l2.8-16.4l0.7-4.1l11.3,2.3l1.2-7.1
		l7.2,2.2l-0.4,1.4l5,1.2l-1,5l2.6,0.9l-0.6,2.3l2.8,0.6l-1.6,7.5l3.5,1.4l0.3-0.9l0.7,0.2l0.1,0.8l9.7,3.2l-0.5,4.9l4.3,0.8
		l-2.7,14.3l-6.4-0.5l-1.9,7.6l-8-1.1l-0.8,0.3l0.1,0.6l-0.4,0.8l0.1,0.1l0.3-0.3l0.2,0.1l-0.2,0.6l0.1,0.1l0.3-0.1l0.4,0.1l0.2-0.4
		l0.4,0.6l-0.5,0.3l0.1,0.4l0.5-0.1l0.1,0.2l-1.1,1.5l-1.8-0.1l-6.6-1.2l-0.9,4.5H132l-9.5-2.5l0.8-3.8l-5.1-1.5l-8.9-18.7l-5-2.6
		l-1.2-2L101.8,473.4z"/>
	<circle class="districts-path-city" id="districts-path-city-15" class="st1" cx="128.5" cy="479.4" r="3.5"/>
</g>
<g class="districts-path" id="districts-path-14">
	<path class="districts-path-territory" id="districts-path-territory-14" class="st5" d="M173.6,477l3.5-14.9l-4-0.9l0.3-4.5l-9.7-2.2l1-5.6l-2.2-0.6l1.5-5.3
		l-2.3,1.7l-3.1-0.7l-1-2.5l-3.9-1.3l-6.7-8.1l0.5-1.7l-2.8-0.9l1.6-4.4l2.9,0.9l1-1.7l2.9,1l0.9,2.6l7,2.8l-0.3,2.2l3.1,2.1l3.1-1
		l0.5-0.1l1.1-0.3l0.1-1.4l0.6-1l1-5.6l-6.5-1.6l2.2-18l-12.2-2.5l-2,9.1l-9.7-1.2l-0.9,1l-2.6,0.2l1.4,1.5l-2,0.7l-0.5,0.6
		l-0.4,1.4l-2.8-0.3l-0.8,1.9l-2.6-0.1l-0.4,4.3l-2.8-0.5l-2.3,10.2l-9.1-1.9l-1.9,11.7l4,0.9l-1.7,9.1l11.3,2.3l1.2-7.1l7.2,2.2
		l-0.4,1.4l5,1.2l-1,5l2.6,0.9l-0.6,2.3l2.8,0.6l-1.6,7.5l3.5,1.4l0.3-0.9l0.7,0.2l0.1,0.8l9.7,3.2l-0.5,4.9l4.3,0.8l-0.9,4.7
		l16.5,4.2l2.2-9.6"/>
	<circle class="districts-path-city" id="districts-path-city-14" class="st1" cx="155.5" cy="434.4" r="3.5"/>
</g>
<g class="districts-path" id="districts-path-13">
	<path class="districts-path-territory" id="districts-path-territory-13" class="st5" d="M231.7,280l2-0.9l3-2l1-0.2l0.8,0.1l4.5-11.4l14,3l30.3-11.8L305,264
		l3.3,1.4l1-1.9l3.8,1.4l-10.5,24.5l2.8,0.6l-2.2,7l2.1,0.5l-3.4,10.1l6.3,2.2l0.5-0.8l7.7,1.8l-3.6,10.6l2.2,0.9l-1.9,4.1l8.8,3.8
		l-0.1,2.2l10.5,4.2l-1.2,2.2l-1.3-0.2l-1.6,2.5l-10.9-3.4l-0.5-4.1l-3.7-2.1l-1.7-0.1l-3.1-0.9l1-3l-9.7-2.9l-6.9,23l-2.6,1.5
		l-7.2,30l-3.6-1l-12.2-26.2l2.4-3.3l-5.6-8.9l-8.7-10.4l-2.1-2.5l-1.7-7l-4.2-1l0.3-0.6l0.2-2.5l-0.5-0.2l-2.1-0.6l-0.9-1l3-2
		l-0.3-0.6l-1-0.6l-3.2-1.4l-0.5-0.4l-1.2-1.8l-3.4-1.2l1-3l-3.4-0.8l2.1-10.2L231.7,280L231.7,280z"/>
	<circle class="districts-path-city" id="districts-path-city-13" class="st1" cx="254.5" cy="310.4" r="3.5"/>
</g>
<g class="districts-path" id="districts-path-12">
	<path class="districts-path-territory" id="districts-path-territory-12" d="M87.2,492.9l0.1-2.9l0.6-5l0.8-4.1l10.8-6.1l0.4-0.1v-0.1l1.9-1.1l1,2.1l1.5,2.4l5,2.6
		l8.9,18.7l5.1,1.5l-0.8,3.8l9.5,2.5l-0.8,6.5l3.3,0.4v3l-0.2,0.9l11.7,2.4l-1.2,9.7l-6.9-1.1l-5.5,33.5l0.1,0.6l0.1,0.7l0.3,1.8
		l0.9,0.9l0.4,0.1l1.8,1.9l-0.5,0.6l-1.5-0.2l-0.5,0.1l-0.6,0.9l-3.3,0.3l-1.8,11l2,0.5l-1.1,7.4l1,0.3l-1.4,9.8h-0.4v-0.4l-0.2-0.3
		l0.1,0.4h-0.3l-0.5-0.4h-0.3l-0.5,1l-0.6,0.5l-6-1.2l0.4-1.1l-0.7-0.8l0.4-0.8h0.1l1.4-8.7l-6.5-1.1l0.4-3.3h-0.4v-0.5l-3.9-0.6
		l0.1-1l-0.6,0.1l-1.2-1.2l-1,0.5l-0.6,1.1h-1.6l1.8-11.7l-6.5-1.3v0.3l-0.6-0.3l-0.1,0.1l-0.8-0.8l-0.4-0.8l-0.3,1l-8.1-1.2L90,554
		l0.1,0.1l-0.2-8l-0.5-0.4v-4.2l-0.4-2.6l0.3-0.8l0.4-3.4l5.3-5v-0.3l2.7-2.5l0.5-2.5l-1.4-1l-1.6-2l-0.1,0.8l-4.2-0.6l0.9-1.4
		l1.3,0.4l0.8-0.5l-0.1-0.3l-0.2,0.1l-0.4-0.5h-0.3v-0.3l-0.9-0.2l-0.4-1.3l-1.6-0.9v-0.3l0.5-0.1l-0.1-0.4l0.3-1.2l-0.6-0.9
		l1.8-2.2L87.2,492.9L87.2,492.9z"/>
	<circle class="districts-path-city" id="districts-path-city-12" class="st1" cx="118.5" cy="523.4" r="3.5"/>
</g>
<g class="districts-path" id="districts-path-11">
	<path class="districts-path-territory" id="districts-path-territory-11" class="st4" d="M265.1,255.8l5.1-30.4l1.1-6.8l-0.6-11.5l8.9-8l22.7-14.6l9.4-5.8l5.8,11.2
		l14-8.6l1.5,2.9l3.1-1.3l10.6,4.4l0.1-2.5l2.6-1.2l0.8-0.5l0.5-0.6l2-6l0.1-1.1l2.6-3.8l2.1-1.9l0.4-0.5l0.1-0.5l1.8,1l1.9-1.5
		l5.5,2.2l2.8-0.9l1.4-0.3l1,0.4l0.8,0.5h1l3.1-1.4l8.7,2.1l1.6-0.1l2.8-0.3v-0.2l1.6,0.3l1.9,1.6l2.1-0.9l3.1,1.8l-0.2,0.4l0.2,0.5
		l0.5,0.5l-0.5,0.9v0.8l-0.4,0.1l-0.6,0.9l-1.2,1.4l0.1,0.4l-0.8,1.3v1.4l-1.8,1.2l-0.1,0.2l0.1,0.4l0.5,0.2l-1,1.1l-0.1,1.1
		l-0.4,0.9v0.5l-0.4,0.6l0.1,0.4l-0.5,0.5l-0.2,0.8l-0.8,0.8l0.2,1.2l-0.2,0.2h-0.8l-1,1.5l-1.2,1.6l-0.3,0.6l0.1,0.4l0.8,0.1
		l0.7,1.6l0.2,0.5l0.1,1l0.2,0.4l0.2,0.1l0.9,1.1l0.4,0.1l0.9-0.1l0.6-0.5l0.5,0.2l-0.2,0.6l0.1,0.1l1.1,0.6l1.1,0.6l0.2,0.6
		l0.5,0.1v0.2l-0.4,0.5l0.4,0.5h0.8l1.4,1.4l3-0.6l0.4-0.6l1.2-0.6l0.2,0.2l0.6,0.1l0.5,0.8h1l0.4,0.4l0.1,0.8l1.4-0.1l0.5,0.2v1
		l0.2,0.8l10.8-2l5.7,7l4.6,4.9l-0.4,0.1l-0.6,1.4l-0.1,0.3l-0.9-0.1v-0.1h-0.6l-0.1,0.3h-0.1l0.4,0.6l-1.4,0.6h0.3v0.1l-0.4-0.1
		l0.1,0.9l-0.1,0.5l0.4,0.6l0.3,0.1l-0.1,1.1h-0.1v0.1l-0.5,0.1l0.2,1l-0.5,0.3h-0.4l0.1,0.6h-0.1v0.3l-0.3,0.1v0.1l-0.9,0.1
		l-0.5-0.5l-0.3,0.1l-0.3,0.4h-0.1v0.1l-1.1,0.3l-0.4,0.9l0.3,0.4l-0.1,0.1l0.3,0.5l-0.6,0.4v0.1l-1.2-0.9l-0.5-0.1l-0.5,0.9h-0.1
		l-0.1,0.5l-0.4,0.6h-0.6v0.1h-0.1v0.3h0.1l0.1,0.4l-0.4,0.1l-0.2,0.9l0.2,0.4v0.1l-0.7,0.3l-0.1,0.2l0.4,0.6v0.1l-0.5,0.1l-0.4,0.9
		h-0.1v0.1l-0.3,0.1v0.2h-0.1v0.1l-0.3,0.1l-0.8-0.4l-0.4,0.1l0.1,0.5l-2-0.2h0.1v0.1h0.3v0.2l0.3,0.1l0.1,0.6l-0.6,0.3v0.5h-0.1
		v0.1l0.3,0.1l0.1,0.6l-0.1,0.2h0.1l-0.4,0.9l0.4,0.1v0.4l0.6,0.4v0.6h0.1l0.1,0.2h0.8l0.1,0.3l0.8,0.3l0.6,0.8l0.1,0.8h-0.1
		l-0.1,0.2l0.1,0.3l-0.4,0.5l-0.5-0.1l-0.8-0.1l-0.3,0.1l-0.1,0.3l-0.5-0.1l-0.1-0.2l-1,0.2v0.1h-0.1l0.1,0.5h0.1v0.1h0.1l-0.1,0.8
		l-0.1,0.3h-0.1v0.6l-1.2-0.3l-0.5,0.1l-4.6-2.4l-0.8,0.1l-0.8-0.1l-1,0.4l-0.5,0.5l-0.4,0.1l-0.5-0.1l-0.6,0.4h-1l-1,0.3l-1.6-0.3
		l-0.4,0.3l-1,1.4H395l-0.5-0.4l-0.9,0.2l-1.1,0.8l-0.5,0.6l-1,0.3v0.8l-0.8,1.4l-0.2-0.4l-0.3-0.1l-1,0.4l-0.4-0.5l-0.2-0.1
		l-0.3,0.1l-0.4-0.1l-0.3-0.8l-0.4-0.4l-1.4,0.3h-1.8l-0.6,1.2l-0.6,0.4l0.1,0.4l0.3,0.1l-0.5,0.5l-0.2,0.8l-1,0.3l-5.8-2.1
		l-0.6,0.4l-14.2-3.3l-0.5,1.2l-0.1,1l0.3,1.4l0.9,2.7v0.6l-0.5,0.8l-0.6,0.5l-1-0.1l-0.8-0.6l-0.8-0.1l-0.4,0.2l-0.6-0.4l-0.6-1.9
		l-2.6-0.8l-2.2,0.6l-10.4-3l-11.1,24.4l-3.5-2.6V271l-2.4-1l0.5-1.6l-2.2-1.2l-7.7-3l-0.5,0.6l-3.9-1.4l-1,1.9l-19.6-8.1l-1.4-0.5
		l-14.8,6L265.1,255.8z"/>
	<circle class="districts-path-city" id="districts-path-city-11" class="st1" cx="348.5" cy="211.4" r="3.5"/>
</g>
<g class="districts-path" id="districts-path-10">
	<path class="districts-path-territory" id="districts-path-territory-10" class="st0" d="M162.5,448.2l1.5-5.3l1.7-0.1l0.8-1.8l1.3-2.6l0.1-2.2l0.4-1.4v-0.4l0.1-0.4
		l0.1-0.5l0.1-1.4l0.6-1l1-5.6l-6.5-1.6l2.2-18l0.5-2.2l-0.5-0.4l1.3-6.2l1.5-0.5l2-9.9l-2.4-0.8l2.4-8.4l2.2,0.4l0.9-5.1l9.3,2.9
		l1.3-3.4l19.9,4.1l2-14.4l19.2,4.6l5.6,1l3.5,1l-0.5,9.3l1.9,0.9l-2.1,9.4l2.2,0.5l-2.4,9.4l3.2,0.4l-0.4,5l-3.1-0.4l-0.9,5.7
		l2.4,0.1l-1.1,7.6h-1.3l-0.7,1.6l-1.1-0.3l-0.4,2l-1.6,0.1l-0.2,2l-4.2-0.6l-0.8,4.1l-4-2.1l-1.1-0.3l-0.8,1l-0.6,0.7l1.3,0.5
		l0.5,0.4h0.5l0.9,1.1l0.4,1.4h-0.4v0.2l-0.5,0.4l0.1,0.4l0.4,0.1l-0.3,0.4l0.1,1.6l-0.2,0.6l0.6,1.2l-0.1,0.3l0.5,0.6l-0.4,1v0.8
		l-0.5,0.4l0.3,1h0.2l0.6-0.5l0.5,0.5l0.3-0.1l0.3,0.1l-1.6,9.4l-11.4-1.6l-1.7,9l6.6,1l-0.7,5.4l2,0.4l-3,14.5l4.6,1.4L215,487
		l-10.9-2.5l-2,9.5l-25.1-6.3l2.2-9.6l-5.5-1.1l3.5-14.9l-4-0.9l0.3-4.5l-9.7-2.2l1-5.6l-1-0.3L162.5,448.2z"/>
	<circle class="districts-path-city" id="districts-path-city-10" class="st1" cx="173.5" cy="443.4" r="3.5"/>
</g>
<g class="districts-path" id="districts-path-9">
	<path class="districts-path-territory" id="districts-path-territory-9" class="st3" d="M131.2,513.6l0.8-6.5h0.6l0.9-4.5l6.6,1.2l1.8,0.1l1.1-1.5l-0.1-0.2l-0.5,0.1
		l-0.1-0.4l0.5-0.3l-0.4-0.6l-0.2,0.4l-0.4-0.1l-0.3,0.1l-0.1-0.1l0.2-0.6l-0.2-0.1l-0.3,0.3l-0.1-0.1l0.4-0.8l-0.1-0.6l0.8-0.3
		l8,1.1l1.9-7.6l6.4,0.5l1.8-9.6l27.8,7l-3.7,19.7l11.2,2.5l-0.9,5l6.5,1.8l-0.6,4.1l0.1,0.8l1.1,0.3l-1.5,8.6l-7.2-5.4l-2.7,2
		l-3.4,5.9l-2.7,6.6l-3,3.9l-1.6,2.5l-1.6,3.1l-1.3,0.6l-0.3-0.1l-1,1.1l-0.5-0.8l-0.5,0.1L174,552l-0.9-3.8l-2.2-1.1l-3.9-2.4
		l-1.5,0.9l-0.4-0.4l-1.9,0.5l-3.9,7.1l-1.1,0.8l-0.2,0.8l0.2,0.9l-0.4,0.8l-0.9,0.8l-1.4,0.2l-1.2-0.8l-7.7,2.2l-2-0.1l-3.4,2.1
		l-0.5,3.8l-8.2-1.9l1.8-11.4l3.7-22.1l6.9,1.1l1.2-9.7l-11.7-2.4l0.2-0.9v-3L131.2,513.6L131.2,513.6z"/>
	<circle class="districts-path-city" id="districts-path-city-9" class="st1" cx="164.5" cy="515.4" r="3.5"/>
</g>
<g class="districts-path" id="districts-path-8">
	<path class="districts-path-territory" id="districts-path-territory-8" class="st2" d="M126.8,305.7l4.3-18.3l21.8,4.1l3.9-17.4l3.9,0.5l2.8-13.8l6.1,0.8l1-4.1
		l1.6-0.9l0.9-3.6l17.4,3.6l-3.8,13.3l8.1,1.6l-2.1,12.5l8.7,0.9l-1,8l9.7,1.1l-4.9,18l2.4,0.8l-2.1,9.9l2.7,1.1l-1.2,7l8.8,2.4
		l-1.4,9l6.2,1.3l-2.2,10.9l9.9,2.1l-2.7,9.9l-19.2-4.6l-2,14.4l-19.9-4.1l-1.3,3.4l-9.3-2.9l-0.9,5.1l-2.2-0.4l-2.4,8.4l2.4,0.8
		l-2,9.9l-1.5,0.5l-1.3,6.2l0.5,0.4l-0.5,2.2l-12.2-2.5l0.1-1.9l-1.9-0.1l-0.6-0.6l0.3-3.5l-7.6-1.5l0.6-4.9l-13.7-2.6l3.4-19
		l-5.8-1.1l4.4-19.7l2.4,0.4l1.8-9.5l14.5,2.8l2.6-10.3l-3.1-0.2l0.8-4.6l-4.3-0.8l0.9-4.7l-3-0.4l1.1-5.1l-13.6-3.9l0.5-3.5
		l-6.8-2.1L126.8,305.7z"/>
	<circle class="districts-path-city" id="districts-path-city-8" class="st1" cx="160.5" cy="392.4" r="3.5"/>
</g>
<g class="districts-path" id="districts-path-7">
	<path class="districts-path-territory" id="districts-path-territory-7" class="st2" d="M190.9,256.1l10.5-11.4l20-6.6l6.7-9.4l-8.9-14.6l-3.5-5.9l-1.9-2.9l0.9-4.3
		l2-1l-0.5-1.6l18-40.8l8.9-20.4l1.5-3.4l21.7,19.9l5.5,5.1l8.1,7.5l13.7,0.5l0.1,1.6l-0.5,1.2l0.1,0.4l-3,0.8l-0.9,1l0.3,0.6
		l-0.2,0.8l0.4,0.4l-0.5,1.4l-1.9,9.5l-8.3,14.9l-8.5,7.6l0.6,11.5l-6.2,37.3l7.3,6.8l-15.2,6l-14.1-3l-15.5-1.2l-3.5,1.1l-28.6-7.7
		l-4.8-1.3L190.9,256.1z"/>
	<circle class="districts-path-city" id="districts-path-city-7" class="st1" cx="245.5" cy="213.4" r="3.5"/>
</g>
<g class="districts-path" id="districts-path-6">
	<path class="districts-path-territory" id="districts-path-territory-6" d="M301.9,307.7l3.4-10.1l-2.1-0.5l2.2-7l-2.8-0.6l10.6-24.6l0.5-0.6l7.7,3l2.2,1.2l-0.5,1.6
		l2.4,1v0.8l3.5,2.6l11.1-24.4l10.4,3l2.2-0.6l2.6,0.8l0.6,1.9l0.6,0.4l0.4-0.2l0.8,0.1l0.8,0.6l1,0.1l0.6-0.5l0.5-0.8l-0.4-2
		l-0.5-1.4l-0.3-1.4l0.1-1l0.5-1.2l14.3,3.4l0.6-0.4l5.8,2.1l1-0.3l0.2-0.8l0.5-0.5l-0.3-0.1l-0.1-0.4l0.6-0.4l0.6-1.2h1.8l1.4-0.3
		l0.4,0.4l0.3,0.8l0.4,0.1l0.3-0.1l0.2,0.1l0.4,0.5l1-0.4l0.3,0.1l0.2,0.4l0.8-1.4v-0.8l1-0.3l0.5-0.6l1.1-0.8l0.9-0.2l0.5,0.4h0.9
		l1-1.4l0.4-0.3l1.6,0.3l1-0.3h1l0.6-0.4l0.5,0.1l0.4-0.1l0.5-0.5l1.2-0.4l0.5,0.1l0.8-0.1l4.6,2.4l1-0.1l0.8,0.3l-0.5,0.9l-0.6,0.4
		l-0.1,0.6l0.1,0.1l-0.4,1l-0.4,1l0.3,0.6l-0.6,0.3v0.5h-0.1l-0.1,0.8l-1,0.1l-0.3,0.8l-0.5,0.1l-0.1,0.8h0.5l0.1,0.2l1-0.1l0.1-0.3
		h0.1l0.2,0.4h0.1l0,0l0.6-0.4l1,0.1l0.1,0.5v0.8l0.3,0.4v0.3l0.6,0.2h0.2v0.5l0.3,0.1l0.3,0.9l0.1,0.5l-0.4,0.6l-0.3,0.1l-0.4,0.9
		l0.3,0.1v0.1h0.1l-0.2,1h0.1v0.1l0.8,0.5l-0.3,1.2h-0.1l-0.3,0.8H412l-0.1,0.5l-0.6,0.4l0.1,1.5h-0.1l-0.4,0.6l-0.1,1.3h-0.1v0.4
		h0.7v1.6l-0.4,0.3l0.1,0.5l0.1,0.3h0.4v0.8l0.9,0.2l0.3,0.4h0.4l-0.1,0.9l-0.2,0.1l0.1,0.3l0.3,0.1v0.4h0.1v0.1l0.8,0.6v0.5
		l0.4,0.3l0.1,1.1l0.4,0.3l1.1,0.2l0.3,0.3l0.6-0.4l0.8,0.1l0.6,0.3l0.4,0.1l-0.4,1.4l0.3,0.6v0.8h0.1v0.1l0.3,0.1v0.1l-0.4,0.1
		l-0.3,0.5h-0.1l0.1,0.8l-1.4,1.6l-0.3,1.2v1l0.4,0.2v0.1h-0.1l-0.4,1.1h-0.3l-0.3,0.4l-0.3,0.1l-0.1,1l-0.3,0.4h-0.1v0.1l-0.6,0.5
		l-0.5,0.1l-0.3,0.1l-0.2,0.4l-1.6,0.8l-0.1,0.4l-0.6,0.4v0.1h-0.1l0.1,1.3l-0.1,0.4l0.6,1.1l-0.3,1.4l-0.1,0.1l0.1,0.2l-0.4,0.3
		l-0.1,0.6H411l-0.5,1.2l0.1,0.5l-0.1,1.1h0.1v0.3h0.1v0.3h-0.3l-0.3,0.6l0.3,0.4l-0.1,1.3l-0.1,0.1l0.1,0.1l-0.3,0.9h0.1l0.3,0.8
		l-0.6,0.8l-0.4,1.4l-0.1,1.6l-0.4,0.1v0.8h-0.2v0.6h0.1v0.1h0.1v0.1h0.1l-0.3,0.1l-0.1,3.4h0.1v0.1h-0.1l-0.3,1.6l-0.4,0.4
		l-0.4,0.1l-0.1,0.6l0.2,0.8h0.1l-0.3,1.1l-0.6,1.1l-0.4,0.1l-0.1,1.5l-0.4,1.1l0.1,0.1h-0.1l-0.3,0.6l-0.1,0.6h-0.1v0.1l-0.5,0.2
		l-1.1,1.6v0.1h-0.1l0.4,0.3v0.1l0.6,0.1l0.8,0.5h0.1l-0.1,0.6l-0.1,0.3l-0.8,0.1v0.1l-0.2,0.1l-0.1,0.4h0.1l0.1,0.4l-0.3,0.4
		l-0.1,1.5l0.4,0.3v0.1h-0.1l0.1,0.6l0.3,0.4l-0.1,0.6l0.1,0.3l0.2,0.1v0.4l0.4,0.3v0.3h-0.1l-0.1,0.4l0.2,0.4h-0.2v0.1h-0.6
		l-0.1,0.4l0.1,0.3l-0.1,0.8L404,338l0.1,0.5l-0.4,0.1l-0.1,0.6l0.5,0.3l-0.6,0.5l-0.2,0.4h-0.1l0.1,0.5l-0.1,0.5l0.1,0.1l-0.1,0.1
		l0.3,0.2v0.5l0.4,0.6l-0.1,0.4l0.2,0.6l0.3,0.3l-0.9,1.2l-0.6-0.1l-0.6,0.4l-0.2,0.1v0.4l-3.2-2.5l0.3-0.6l-0.8-1.4l0.5-1.6
		l-1.7-2.9l-0.3-3.3l-3.9-0.9l-2.4,0.1l-3.5-3.2l-10.7,2.1l-2.6-18l-4.2-2.1l-1.5,4.2l-4.7-8.1l-2.7,6.3l-9.9,28.9l-18.6-6.6
		l-10.3-4.1l0.1-2.2l-8.8-3.8l1.9-4.1l-2.2-0.9l3.6-10.6l-7.6-1.8l-0.5,0.8L301.9,307.7L301.9,307.7z"/>
	<circle class="districts-path-city" id="districts-path-city-6" class="st1" cx="350.5" cy="300.4" r="3.5"/>
</g>
<g class="districts-path" id="districts-path-5">
	<path class="districts-path-territory" id="districts-path-territory-5" d="M186.7,269.8l3.9-13.3l26.2,6.9l7.1,2l3.5-1.1l15.5,1.2l-4.5,11.4l-0.8-0.1l-1,0.2l-3,2
		l-2,0.9l5.2,11.9l-1.9,10.1l3.4,0.8l-1,3l3.4,1.2l1.2,1.8l2.1,1.1l1.5,0.6l1,0.6l0.2,0.8l-3,2l1,0.8l2.1,0.6l0.6,0.5l-0.3,2.4
		l-0.3,0.6l4.2,1l1.8,7.1l6.5,7.6l4.2,5.2l5.6,8.9l-2.4,3.3l12.1,26.2l-25.8-5.6l-18.7-4l-3.4-1l-5.6-1l2.7-9.9l-9.9-2.1l2.2-10.9
		l-6.2-1.3l1.4-9l-8.8-2.4l1.2-7l-2.7-1.1l2.1-9.9l-2.4-0.8l4.9-18l-9.7-1.1l1-8l-8.7-0.9l2.1-12.5l-7.2-1.4L186.7,269.8z"/>
	<circle class="districts-path-city" id="districts-path-city-5" class="st1" cx="239.5" cy="321.4" r="3.5"/>
</g>
<g class="districts-path" id="districts-path-4">
	<path class="districts-path-territory" id="districts-path-territory-4" class="st3" d="M243.7,91.8l3.4,0.4l143-0.5l0.4,78.6l-4.3,0.4l-8.7-2.1l-0.9,0.5l-2.2,0.9
		h-1l-0.8-0.5l-1-0.4l-1.4,0.3l-2.8,0.9l-5.5-2.2l-1.9,1.5l-1.8-1l-0.1,0.5l-0.4,0.5l-2.1,1.9l-2.6,3.8l-0.1,1.1l-2,6l-0.5,0.6
		l-2.1,1.2l-1.3,0.5l-0.1,2.5l-10.7-4.4l-3.1,1.3l-1.5-2.9l-14,8.6l-5.8-11.2L292.2,191l-13,8.4l8.3-14.9l1.8-9.5l0.5-1.4l-0.4-0.4
		l0.3-0.8l-0.3-0.6l0.9-1l3-0.8l-0.1-0.4l0.5-1.2l-0.1-1.6l-13.8-0.5l-11.2-10.1l-5.6-5.3l-18.5-17.1L243.7,91.8L243.7,91.8z"/>
	<circle class="districts-path-city" id="districts-path-city-4" class="st1" cx="356.5" cy="153.4" r="3.5"/>
</g>
<g class="districts-path" id="districts-path-3">
	<path class="districts-path-territory" id="districts-path-territory-3" class="st0" d="M466.3,92.9l0.2,0.6l-0.1,0.5l-0.6-0.1l-0.5,0.1l-0.1,0.2l-0.1-0.1l-0.5,0.1
		v-0.1h-0.1v0.1l0.2,0.1l-0.4,0.2v-0.8h-0.1l0.1-0.6h-0.2v0.1l-0.5-0.2v0.1h-0.1v-0.2h-0.2v0.2v0.1h0.1v0.1h-0.6v-0.1h-0.1v-0.4
		l-15.3-0.4l-19.6,0.1l-1,1.5l-0.2,0.1l-0.4,0.1v0.4H426v0.1h-0.2l-0.1,0.2h-0.6v-0.1h0.1l0,0h-0.4v0.1h0.1V95h-0.4v-0.1l-0.1,0.4
		H424v0.1h-0.8v0.1h-0.1v-0.1h-0.2v0.1h-0.1v0.1h-0.1v-0.1l-0.1,0.1l-0.2-0.4l-0.2-0.1l0.2-1l1.2-0.1l0.4-0.2l-0.2-0.6l0.2-0.6
		l-33.8-0.9l0.4,78.4l1.6,0.3l0.5,0.4l1.4,1.2l2.1-0.9l3.1,1.8l-0.2,0.4l0.2,0.5l0.5,0.5l-0.5,0.9v0.8l-0.4,0.1l-0.6,0.9l-1.2,1.4
		l0.1,0.4l-0.8,1.2v1.4l-1.8,1.2l-0.1,0.2l0.1,0.4l0.5,0.2l-1,1.1l-0.1,1.1l-0.4,0.9v0.5l-0.4,0.6l0.1,0.4l-0.5,0.5l-0.2,0.8
		l-0.8,0.8l0.2,1.2l-0.2,0.2H391l-0.8,1.2l-1.4,1.9l-0.2,0.6l0.1,0.4l0.8,0.1l0.9,2.1l0.1,1l0.2,0.4l0.2,0.1l0.9,1.1l0.4,0.1
		l0.9-0.1l0.6-0.5l0.5,0.2l-0.2,0.6l0.1,0.1l2.2,1.2l0.2,0.6l0.5,0.1v0.2l-0.4,0.5l0.4,0.5h0.8l1.4,1.4l3-0.6l0.4-0.6l1.2-0.6
		l0.2,0.2l0.6,0.1l0.5,0.8h1l0.4,0.4l0.1,0.8l1.4-0.1l0.5,0.2v1l0.2,0.8l10.8-2l5.6,7l4.7,4.9l2,0.1v0.1h0.1l0.1,0.2l0.6,0.4
		l0.4-0.1l0.6,0.5l0.4-0.8h0.1v-0.1h0.1v0.1l0.2,0.1v0.1l0.2,0.1l0.6-0.1v0.1h0.1v0.4l0.6,0.2l-0.1,0.6l0.2,0.6l-0.2,0.1l-0.1,0.4
		l-0.2,0.4l0.4,1.4l0.4,0.1l0.2,0.5l0.6,0.1l0.9,1.8l1,0.2l0.1,0.5h0.1v0.1h0.4l0.1,0.4l0.5,0.1l0.1,0.2l-0.2,0.4l0.2,0.5l0.2,0.1
		l0.1,0.2l0.8-0.1v0.4h0.1v-0.1h0.9v-0.1h0.9v0.1h0.1l0.1,0.2h0.1v-0.1h0.2l0.9-1.2l-0.1-1.2h0.1l0.1-0.2h0.1l-0.4-1l0.6-0.1
		l-0.1-0.4l0.1-0.5h0.2v-0.4l0.4-0.1v-0.4l0.2-0.6v-0.4l0.2,0.1l1.1-0.2l0.1,0.2l0.2,0.1l0.1-0.1l0.2,0.1l0.2-0.1l0.6,0.2l1,0.4
		l0.2-1l0.4-0.1l0.6-1.1l-0.1-0.2l0.2-1l0.2-0.1l1.1-0.1l0.4-0.5l0.5-0.1l0.2-0.5l-0.1-0.2l0.1-0.6l0.2-0.2l-0.1-0.5l0.1-0.1
		l-0.2-0.8l0.4-0.6l-0.1-1l0.2-0.1l0.1-0.5l0.5-0.2l0.4-0.6l0.9,0.5l0.2-0.1l0.1-0.2h0.2v-0.3l0.5,0.1l0.8,0.2l0.5-0.1l0.5,0.2
		l0.5-0.1l0.4-1.4l-0.1-0.4l0.1-0.5l-0.5-0.4v-0.1h0.1l0.4-0.5l0.2,0.1l0.5-0.1l0.8-1.5l0.2-0.1l0.1-0.4l-0.4-0.2v-0.8l0.2-0.4v-1
		l-0.5,0.1l-1.4,0.2l0.1-0.8l-0.4-0.5l0.1-0.5h-0.1l0.1-0.1l-0.1-0.2l0.1-0.8h0.1l0.1-0.5h0.1l0.5-0.8l0.2-0.1l0.1-0.2h0.1l0.1-0.8
		h0.1v-0.1l0.5-0.1l0.1-0.2l0.6-0.4l0.4-0.8l0.2-0.1v-0.1h0.1v-0.4h0.1l0.5-1.6l0.4-0.5l0.2-1.4l0.4-0.5l0.5-0.1l0.4-0.8l0.1-0.8
		l0.2-0.4l0.1-0.6l0.6-1l0.4-0.1v-0.1h0.1l0.1-0.9l0.6-0.5l0.5-1.1l0.4-0.6l0.2-0.1l1.1,0.2l0.6-1.1l0.9-0.1l0.1-0.2h0.1l0.4-0.5
		l-0.5-0.2v-0.1h-0.4V184h-0.1l-0.1-0.4l0.4-0.2l0.1-0.2h0.1l0.1-0.4h0.2l0.2-0.4l0.8-0.2l0.4,0.1l0.4-0.5l0.6-0.4l0.1-0.4h0.1v-0.2
		l-0.2-0.1l-0.2-0.5l0.4-0.6l0.6,0.2l0.5-0.1l0.4-0.5l-0.4-0.2l-0.2-0.9l1.2-0.1l1.5-0.4v-0.2l0.2-0.5l0.4-0.1v-0.1l0.6-0.4v-0.1
		h0.1l0.1-0.2l0.4-0.2l1.1-0.2l0.9-0.6l0.6-0.7l0.2-0.1l0.2-0.1h1.4l0.2-0.1l0.6-0.1v-0.1l0.6-0.1l0.1-0.6l0.2-0.1v-0.1h0.1v-0.1
		h0.1l0.1-0.4h0.1v-0.1l0.4-0.1v-0.1l0.9,0.1l0.2-0.5l0.4-0.2v-0.1l0.2-0.1l0.2-0.4h0.1v-0.1l0.6-0.2l0.6,0.1l0.6-0.2l1.5-0.6
		l0.2-0.6h0.1v-1.5l0.4-0.1v-0.1h0.1v0.1h0.1l0.2,0.4l0.1-0.1l0.5-0.1l0.1,0.4h0.4l0.1-0.5l0.2-0.4l1.1,0.2l0.6-0.1v-0.1l0.4-0.1
		v-0.1l0.6,0.1v0.1h0.1l0.4,0.5l0.2-0.1l0.4-0.9l0.9,0.1v0.1h0.4l0.1-0.6h0.2l0.6,0.2l0.6,0.2l0.6-0.8h0.1V166h0.1l0.1-1h-0.1v-0.1
		H501v-0.1l-0.5-0.1l-0.6-0.2v-0.1l-0.5-0.2l0.4-0.8h0.1v-0.2h0.1l0.5-1h0.1v-0.4h0.1v-0.4l0.2-0.1v-0.1l0.2-0.1V161l0.2-0.1v-0.1
		l1-0.2v-0.1h0.1v-0.1h0.2v-0.1h0.2l-0.2-0.5h0.4v-0.2h-0.1l-0.1-0.4l-0.6-0.1l-0.4-0.6l-0.4-0.2l-1,0.1v-0.1h-0.1l-0.1-0.2l0.4-0.2
		l0.1-0.4l0.5-0.1l0.1-0.2l0.2-0.1V157l0.2-0.1l0.1-0.4h0.1l0.2-1.2h-0.2v-0.2h0.1l0.1-0.9h0.1v-0.1h0.2V154h0.1l0.2-0.5h0.1v-0.1
		l0.6-0.2v-0.1h0.1l0.1-0.6h0.1v-0.1l0.6-0.4l-0.1-0.2h-0.1l-0.2-0.4h-0.1v-0.1h0.1l0.2-0.4v0.1h0.6v0.1h0.1l0.1-0.8l-0.5-0.1v-0.1
		h0.1v-0.2h0.1v-0.8h0.1l0.7-0.5h0.1l0.1-1.1h-0.1l-0.1-0.6h0.1l0.2-0.5l1-0.2l-0.1-0.5l0.1-0.8l0.4-0.1l0.4-2.9l-0.1-1l-1.4-1.4
		l-6.2-7.2l-0.8-1.8l-0.2-0.1l-0.4-0.5l-0.4-1.1l-2.2-1.1l-0.2-0.5l-0.9-0.6l-0.5-0.6l-1.4-0.1l-0.2-0.2l-0.2-1.2l-1.1,0.1l-17.9-12
		l3.7-4.2l0.2-13.5l-0.2-0.1l-0.2-0.6l-0.2-0.9l-1.1-0.2l-0.1,0.5l-0.2,0.1l-0.9-0.4l-0.9,0.2l-0.8-0.4l-0.8-0.1l-1.5,0.3l-0.2-0.1
		l-0.2-0.4l-0.5-0.2l-1.2,0.2l-0.5-0.1l-1,0.3L466.3,92.9z"/>
	<circle class="districts-path-city" id="districts-path-city-3" class="st1" cx="425.5" cy="153.4" r="3.5"/>
</g>
<g class="districts-path" id="districts-path-2">
	<path class="districts-path-territory" id="districts-path-territory-2" class="st2" d="M463.9,91.5v-0.3h0.1v0.1l0.5,0.2l0.8-0.1L465,91h0.4v-0.3h0.1v0.1h0.5
		l0.1-0.5l-0.2-0.6l0.1-0.3l-0.1-0.5l0.6-0.4l0.4-1l-0.8-0.2l0.8-0.3l-0.4-0.9l0.1-0.3h0.4l0.1,0.5l0.3,0.1v-0.3h0.5v-0.3h-0.1
		l0.2-0.6l0.3-0.1v0.1l0.4,0.2l0.1-0.4h-0.1v-0.2h0.3v0.1l1-0.5v-0.1h-0.1v-0.1l12.2-6.4l14.4-8.2l3.2-1.2l-0.5-0.4l-0.1-0.6h0.1
		v-0.1l0.9-0.1l0.1-0.4l-0.1-0.5H500V66h0.3l0.1,0.3h0.1v0.1l0.1-0.4h-0.1h0.4l0.1-0.4h0.1v-0.1H501l-0.1-0.5h0.1h-0.1v-0.1h0.1
		v-0.1h-0.1v-0.3h0.1v-0.1h-0.1l-0.1-0.4l0.3-0.5h0.1v-0.1h0.1v-0.1l-0.4-0.1v-0.1h0.1v-0.2h-0.1v-0.5h-0.2l-0.4-1.4l-0.4-0.3
		l-0.5-0.3v-0.5h0.1l-0.4-0.5v-0.1l-0.3,0.3l-0.1-0.1l0.4-0.3l-0.1-0.3h-0.1l0.1-0.5l1.3,0.1l0.4-0.1V58l0.2-0.1v-0.1h-0.1l0,0h0.1
		v-0.1h-0.1l0,0l0.3-0.1v0.1l0.5-0.2h-0.1l-0.1-1.6h0.1v-0.2h0.1l0.1-0.4h0.1v-0.8h-0.1v-0.3h-0.1l-0.1-0.6h0.1l0.1,0.4l0.4,0.1
		v-0.3H502l0.1-0.3l0.1,0.3h0.1v-0.3h0.1v0.1h0.1l-0.3-0.1v-0.2l0.6-0.1l0.1-0.5l0.9-0.1l1.5-0.6l0.2-0.1v-0.4h0.3v0.1l0.1-0.1
		l0.4,0.1v-0.1l-0.2-0.1h0.5l-0.1-0.2l0.4-0.1l0.1-0.2l0.3-0.1l-0.3-0.1v-0.1l0.3,0.1l0.1-0.5l-0.1-0.3l0.1-0.4l0.5-0.4h-0.2v-0.4
		h0.1v-0.3h0.1v-0.1h0.1v-0.1l0,0v-0.4h0.1v-0.3l0.2,0.1v-0.1h0.8v-0.1h0.3v0.1l0.4-0.1v-0.1l0.4-0.1l0.3,0.1v-0.4h0.1l0.1-0.4h0.9
		v-0.1h0.1v-0.1l0.6,0.1l0.5-0.1v0.1h0.1l0.1-0.5h0.1v-0.3H513v-0.3h-0.3v-0.4h0.1v-0.1h0.1v-0.1l0.3,0.1v-0.1h0.2l-0.1-0.3h0.1
		v-0.5h0.1v-0.1h0.5v-0.1l0.4,0.1l0.6-0.1v-0.3l0.5-0.2v-0.1h0.1l0.1-0.2l0.5-0.1l0.1,0.3h0.1V43h0.1v0.1h0.1l-0.1,0.1l0.6,0.1v0.1
		l0.8,0.3v0.1h0.1v0.3h-0.1l0.1,0.5h0.1v0.1l0.5,0.1l0.1-0.1v0.1h0.1v-0.1l0.5,0.3v0.1l0.2,0.1l0.1-0.6l0.6,0.3h0.4V45l0.4,0.1v0.1
		h0.8v-0.3h0.5l-0.1,0.1h0.4v-0.1h0.3v-0.1l0.4,0.1v-0.1h-0.1v-0.1l0.5,0.1v0.3h0.3v-0.4h0.1v0.1h0.1v0.1l0.4-0.1v0.4h0.1l0.1,0.4
		h0.3v0.1h0.1v0.1l0.4-0.1l-0.1-0.4l0.1-0.2h-0.1v-0.2l-0.1,0.1v-0.1h0.1v-0.4h0.5v-0.4h-0.4v0.1l0,0v-0.1h0.1V44h0.1l-0.3-0.4H525
		v-0.1h0.1v-0.1l-0.4-0.1v-0.1l-0.4-0.1v-0.2h0.1v-0.1l-0.5-0.3v-0.4h0.3v-0.5h0.1l0.1-0.6h-0.2v-0.1h0.4l-0.3-0.8h0.1v0.1l0.3-0.1
		l0.1-0.3l0.8-0.3v0.3h-0.1v0.1h0.1V40l0.3,0.1l0.1,0.4l0.4-0.5l-0.4-0.3h0.1v-0.3l0.5-0.6h0.1v0.1h0.1v-0.1h0.2l0.3,0.5l0.5-0.2
		v-0.2h0.3l0.1,0.3h0.1v-0.1l0.6-0.1l0.1-0.4h0.2l0.3-0.5l0.4,0.1v-0.1h0.1v-0.4h0.4v-0.4l-0.4-0.1l0.3-0.1v-0.6h0.3v-0.1h0.1v-0.1
		l0,0v-0.4l0.6,0.1l0.1-0.6h0.1v-0.1h-0.1v-0.4h-0.1l0.5-0.1v0.1l0.8-0.1v-0.1h0.1h-0.1l0.1-0.5h-0.1v-0.3h-0.3l-0.1-0.3l-0.4,0.1
		l-0.3-0.1v-0.2h-0.1v-0.1l-0.6-0.4v-0.4h-0.1v-0.2h-0.1l0.1-0.5h0.1v-0.1h0.1v-0.1h0.3v-0.3h0.1v-0.1h-0.2l-0.1-0.4h-0.2v-0.1h0.1
		v-0.1h0.1h-0.1v-0.1l0.3-0.1l-0.1-0.4H531l-0.3-0.5h-0.2v-0.1h-0.1l0.1-0.4l-0.1-0.4h-0.2l-0.1-0.4l0.4-0.3l-0.1-0.3l-0.6-0.1
		l0.1-0.8l-0.4-1.2h-0.3v-0.1h0.3v-0.1h0.5v0.1h0.1v-0.1H530v-0.1l0.8-0.1v-0.2h0.1V25l0.3-0.1V25h0.1v-0.1l0.3-0.1v0.1h0.4v-0.1
		l-0.3-0.1l0.4-0.1v0.1l0.4-0.3h-0.1v-0.1l0.3-0.1v-0.3l0.4,0.1l0.4-0.1v-0.1l0.5,0.1l0.3-0.1l0.1-0.3l0.3-0.1V23l0.4-0.1V23
		l0.4-0.1l0.2-0.4h0.3v-0.1l-0.4-0.1v-0.1h-0.1v-0.3h0.1v-0.1l0.9,0.4v-0.3h-0.1v-0.1l-0.8-0.1v-0.1h0.1v-0.1h0.4v0.1h0.1v-0.1h0.1
		v-0.1v0.1h0.1v0.1l1.3-0.2l0.2,0.1L538,21h0.2l-0.1-0.4H538l0.1-0.3h0.1l0.1,0.3l0.6,0.1l0.5-0.6l0.6,0.3l0.6-0.1l0.1-0.5l1.1,0.5
		l0.4-0.6l0.3-0.1l0.3,0.1v-0.1h0.1l-0.1-0.4l0.2-0.1v0.1l0.5,0.3l0.2-0.3l-0.1-0.8l0.9-1.1l-0.4-0.1l-0.1,0.2l-0.9-0.1l0.1-0.3h0.5
		l0.1-0.6l-0.1-0.3l0.9-0.1l0.6-0.5v-0.3h0.3l0.5-0.6l0.5-0.1l0.4,0.3l0.5-0.1l0.1,0.8l0.6-0.1L549,15l0.6,0.1l0.1-0.5l-0.6-0.4
		l0.4-0.3l-0.1-1.8l0.1-0.6l-0.3-0.1v-0.1h-0.1l0.5-0.8l-0.3-0.4l-0.2-0.1V9.8h0.1V9.7l-0.5,0.1V9.6L548.5,9l0.3-1.1l0.1-0.4
		L548.8,7h-0.1l-0.1-0.5l0.3-0.4l0.6-0.1l-0.1-0.3L549,5.6V5.3l0.5-0.1l0.5,0.1l0.2-0.1L550,4.6l0.1-0.2l1.1-0.6l0.5,0.1l0.6-0.4
		l0.1-0.6l-0.1-0.3h0.1l0.1-0.3h0.1V2.2h0.1V2.1l0.4-0.3V1.7L554,2l0.4,0.4h0.5V2.3l0.5-0.1l0.3-0.9l0.5-0.3V0.8l0.8,0.1l0.5,0.1
		l0.1,0.4l0.4-0.1l0.1-0.3h0.3l0.1,1l0.6-0.1V1.8h0.3V1.7l0.2-0.1v0.1h0.3V1.6l0.8-0.5v0.3h0.1V1.3h0.1v0.1h0.1v0.1h0.1V1.4l0.3,0.1
		l0.4,0.9l0.8,0.1v0.1l0.4,0.1l0.3-0.1l0,0l0.8-0.2l-0.3-0.9l1.9-0.9v0.1l0.5,0.1V1h0.3v0.1L567,1l0.1,0.3H567v0.1h0.1V1.3l1.4,0.3
		V1.5l0.9,0.4V2h0.1l0.1-0.3h-0.1l0.3-0.4h0.2V1.2h0.4v0.1l0.3,0.1v0.1h0.1v0.4l0.8-0.1l0.4-0.1l0.4-0.9h0.1V0.7h0.2v0.1h0.3V1h0.3
		l0.1-0.5h0.4V0.2l0.6-0.1v0.1l0.5-0.1L575,0v0.1l0.6,0.1v0.1l0.4,0.1v0.1h0.1V0.4h0.1V0.3h0.3v0.4h-0.1L576,1.3l-0.6,0.5l-0.1,0.3
		l0.1,0.4l-0.1,0.3h-0.1v0.3l0.3,0.1l0.1,0.6L575,3.9V4h-0.1l-0.1,1l0.1,0.4l-0.1,0.4h-0.1l-0.2,1h-0.1l-0.2,0.4l-0.3,0.1l-0.1,0.5
		h-0.1v0.1h0.1L573.6,9l0.1,0.2h-0.1l-0.2,0.6l-0.6-0.1l0.1-0.1h-0.1V9.5h-0.1v0.3h-0.1l0.1,0.2l-0.3,0.4h-0.1v0.1h-0.1l-0.1,0.5
		h-0.2v0.1h-0.1v0.1h0.1v0.1h0.1v0.4l-0.5,0.1V12h-0.3v0.1h-0.1l0.1,0.3h0.1l-0.1,0.6l0.1,0.6h-0.1l0.3,1.1l0.6,0.2h0.1h-0.1V15
		l-0.4,0.1v0.1h0.1v0.1v-0.1l0.2-0.1l0.3,0.1v0.1h-0.1v0.4h-0.1l0.1,0.3h-0.1l-0.4,1v0.1h-0.1v0.1h-0.1l0.1,0.1l0.3-0.1v0.1h0.1v0.3
		h-0.1l0.2,0.9l0.4,1.2v0.4h0.1v0.1l0.8-0.1v0.3h-0.3v0.1h-0.2v0.3h0.4v0.1h0.1V21h-0.1v0.1l-0.2,0.1l-0.1,0.6l0.4,0.2v0.1h-0.1v0.1
		h-0.1v0.1h-0.1l0.4,0.9l-0.2,0.1v0.1l-0.3,0.1l-0.1,1h0.1V25h-0.1l0.1,0.4l-0.1,0.2h-0.1V26h-0.1l0.1,0.4l0.3,0.4l-0.1,0.8h0.4
		l-0.1,0.5l0.4,0.2h0.1l0.1,0.3l-0.3,0.1v0.1h-0.1l0.1,0.5l0.1,0.3h0.1l-0.1,0.6l0.4,0.3l0.4,0.1v0.1h0.1v0.2h-0.1l0.1,0.9l0.5,0.1
		V32h0.1l0.1,0.4l0.1,0.3h0.1v0.1l0.4,0.1V33h0.1v-0.1l0.5-0.1v0.1l1.1-0.1l0.3-0.4h0.3v-0.1h0.1v-0.1h0.3v0.1v-0.1l1.6-0.1l2.4,0.1
		v0.1h0.3v0.1h0.3v-0.1l0.2-0.1v0.1h0.4v0.1h0.1v0.1h0.2v0.1l0.6,0.1l0.5,0.1v-0.2l0.4-0.1l2.9-2.2l1.6-0.3l0.3,0.1v0.1h0.1l0.3,0.5
		l0.9,0.3h0.3v0.1h0.1l0.1,0.3l0.6,0.2l0.1,0.3v-0.1l1.5-0.4l0.4,0.5h0.1V32h0.5l0.1,0.5l0.3,0.1l0.2,0.6v0.1h-0.1l-0.2,0.5l0.1,0.8
		l-0.3,0.3v-0.1l-0.3,0.1V35h-1v0.1l-0.4,0.1v0.3h-0.1l-0.1,0.8h0.3l0.3,0.8l0.4,0.1l-0.1,0.6l0.1,0.2h-0.1l-0.1,0.6h-0.1v0.1
		l-0.3,0.1l-0.1,0.4h-0.2v0.1h0.2v0.1h0.1v0.1h-0.3v0.1h-0.1V40h0.1l0.1,0.2h0.4v0.1l0.6,0.1l-0.1,0.8h-0.1v0.3h-0.1h0.1l0.1,0.2
		l1.6-0.1l1.4,0.8l0.6,0.9l1.1,0.3l0.5,0.8L600,45h-0.1l-0.1,0.2h-0.1l-0.4,0.8l0.1,1.1h-0.1l-0.1,1l-1.6,2.2l-1.4,0.1l-0.6-0.8
		l-1.4-1l-1.8-0.1l-0.2,0.8l0.1,0.4l-0.5,0.4l-0.5-0.4l-0.9-0.4l-0.8-0.1l-0.3,0.1l-0.6-0.2l-0.3,0.1l-0.6,0.9l-0.4,0.1l-0.8,0.6
		l0.3,0.5l0.6,0.5v0.8h0.2l0.3,0.6l0.1,0.4l-0.2,0.1l-0.1,0.3l-0.8,0.6l-0.2,0.9l0.6,1.6l0.4,0.5l1.1-0.1l0.6-0.4l0.1-0.4l2.2-0.5
		l0.5-0.4v-0.1l0.5-0.1l0.5-0.4v-0.1l0.9-0.3l0.3,1l-0.1,0.2l0.3,1.6l0.8,1.6l-0.1,1.9l-1,2l-0.5,0.9l-0.6,1.9h-0.1V66l-0.9,0.4
		l-2-0.1l-1.5,0.5l-0.8,0.6l-1-0.4l-2.8,0.8l-0.3,0.8h0.1l0.1,0.5l0.6,0.4v0.1h0.1l0.2,0.5l0.5,0.1l-0.1,0.8l-2.2,0.6l0.1,0.6
		l-0.1,0.3l0.1,0.8l-0.4,0.3l-1-0.5v-0.2l-0.6,0.4v0.4l-0.4,0.6l-0.5,0.2l0.1,0.9l-0.4,0.2v0.1H580v0.2l-1.2,0.4l-0.3,0.6H578
		l-0.8,1l-0.1,0.2l-0.5,0.4l-0.1,0.3l-0.4,0.1l-0.3-0.5l-0.9-0.1l-0.4,0.2l-0.8,0.6h-0.3v0.1h-0.5l-0.1,0.8h-0.1l-0.1,0.4l-1.2,1V82
		h-0.1v0.1l-0.9-0.1l-0.1,0.2h-0.1l-0.2,0.4l-0.8,0.1v0.5l0.2,0.1v0.1l0.6,0.2v0.1h0.1l-0.1,0.9l-0.3,0.6l0.5,0.2l0.6,0.9l-0.6,1.1
		l-0.4,0.5h-0.1V88h-0.9l-1.2,0.3l-0.8,0.9l-0.5,0.4l-0.1,0.3l1,2.6l-0.1,1.2l0.3,0.8V95l0.6,0.1v0.3h-0.1v0.2h-0.1l0.1,0.4
		l-0.1,0.3l0.1,0.3h0.1v0.1h0.1v0.5H568v1.3h-0.1l-0.2,0.4l-1,0.4l-0.4,0.5l-0.6,0.1v0.1h-0.1v0.6l-0.6,0.3l-0.6,0.1l-0.3,0.1v0.1
		l-0.4,0.1l-0.1,0.3H563l-0.1-0.3l-0.8,0.1l-0.1,0.4h-0.1v0.4h-0.1v0.1l-0.4,0.1l-0.1,0.3h-0.1l-0.1,0.3l-0.6,0.4l-0.6-0.1l-0.1,0.3
		l-0.4,0.3v-0.2h-0.1l-0.1-0.2v0.1l-0.5-0.1l0.3-0.1v-0.1l-1.1,0.1v0.1h-0.1l-0.1,0.5l-0.4,0.1l-0.4-0.2l-1-0.3l-0.1,0.8l0.3,0.1
		l0.1,0.5l-0.4,0.2l-0.9,0.4h-0.5l-0.1-0.2l-0.4-0.1v-0.1h-0.1v0.5h-0.9v0.1l-0.8,0.1v-0.1H552v-0.1l-1.2,0.3v0.1h0.1l-0.1,0.6
		l0.1,1.2l-0.4,0.3h-0.1v0.1l-0.6,0.3l-0.2,0.4l0.1,0.9l0.6,0.5l0.2,0.1v0.5h-0.1l-0.1,0.4h-0.6v-0.1l-0.4-0.1v-0.4h-0.1v0.1
		l-1.1,0.2l-0.3-0.4l-1.5-0.1l-0.5,0.6h-0.4v0.1h-0.1l-0.1,0.3H545l-0.4,0.5l-0.1,0.5l0.1,0.3h0.1v0.3h-0.1v0.1l-0.4,0.1v0.1h-0.1
		L544,114l0.3,0.1l0.1,0.3h-0.1v0.1h-0.1v0.1h-0.4v0.1h-0.1v0.1h-0.1v-0.1l-0.5,0.1l-0.1-0.1l-0.3,0.1l0.1,0.8h-0.1v0.1l-1.5-0.2
		l-0.5-0.1v-0.1l-0.6,0.1l-0.1,0.3h-0.1v0.3h-0.1v0.1h-0.2v-0.2h-0.4v-0.1l-0.4-0.1l-1.1,0.3v0.1l-0.6,0.1l-1,0.4v-0.1l-0.9-0.1
		v-0.1h-0.4v0.1h-0.3v0.1h-0.1v0.1h-0.1l-0.1,0.9H534l-0.5,1.1l-0.5,0.6l-0.9,0.4L532,120l-0.4,0.3v0.1l-0.6-0.2l-0.3,0.1v0.8h-0.1
		l-0.3,1.4h-0.1v0.1h-0.1v-0.1l-0.4,0.1l-0.1,0.6l-1,0.1l-0.2-0.1l-0.3,0.1l-0.3,0.5l-1.2,0.1v0.1l-0.9,0.4v-0.1h-0.1v0.1l-0.6-0.1
		v-0.1l-0.5-0.1v0.1h-0.1l-0.1,0.6l-0.3,0.1v0.1l-0.8,0.4v0.1H523l-0.1,0.5l-0.4,0.1v0.1h-0.1l-0.1,0.8l-0.6,0.1v0.1l-0.3,0.1
		l-0.4,0.5v0.3l-1.4-0.3h-0.2v-0.1l-0.3-0.1v-0.1H519v-0.1l-0.4,0.1l-0.3,0.1v-0.1h-0.4v0.3h-0.1v0.3h-0.2l0.1,0.4l0.1,0.4l-0.3,0.1
		v-0.1l-0.8,0.2l-0.1,0.6l-0.3,0.1l-0.1,0.5l-0.5,0.2v-0.2l-0.5,0.2l-0.1,0.4l0.3,0.1v0.1h-0.1l-0.2,0.9l-0.3,0.4l-0.1,0.8l0.1,0.3
		l-0.4,0.8h0.1v0.5h-0.4v0.4H514v0.6h0.1l0.1,0.3l-0.8,0.2v0.1h-1l0.1,0.9h0.1v0.3h0.1l-0.3,0.5h0.1l-0.1,0.8l0.1,0.3l0.5,0.1v0.3
		h0.1v0.8l0.3,0.1l0.1,0.6l0.3,0.4l0.6,0.4l0.1,0.4h-0.3l-0.1,0.5H514l-0.4,1.2h-0.1v-0.2h-0.1v-0.1l-0.6,0.1l-0.1-0.5h-0.1v-0.1
		h-0.3l-0.1-0.4h-0.6v0.1h-0.1v0.1l-0.6-0.9l-0.4-0.1v-0.1l-0.6-0.3v-0.1h-0.3v-0.1l-0.9,0.6l-0.1,0.9l-0.2,0.4v0.4h-0.1v0.2h-0.1
		l-0.1,0.3H508v0.1h-0.1l-0.1,0.4l-0.6,0.1l0.4-2.9l-0.1-1l-3.6-3.8l-4.1-4.9l-0.8-1.7l-0.3-0.1l-0.4-0.5l-0.4-1.1l-1.9-1l-0.3-0.5
		l-0.9-0.6l-0.5-0.6l-1.4-0.1l-0.3-0.2l-0.2-1.3l-1.1,0.1l-17.9-12l3.7-4.3l0.3-13.4l-0.3-0.1l-0.3-0.6l-0.1-0.9l-1-0.1l-0.1,0.5
		l-0.5,0.1l-0.6-0.4l-0.9,0.2l-0.8-0.4l-0.8-0.1l-1.4,0.3l-0.3-0.1l-0.2-0.4l-0.5-0.2l-1.2,0.2l-0.5-0.1l-1,0.3l-0.4-0.1v-0.2h-0.1
		L463.9,91.5L463.9,91.5z"/>
	<circle class="districts-path-city" id="districts-path-city-2" class="st1" cx="540.5" cy="60.4" r="3.5"/>
</g>
<g class="districts-path" id="districts-path-1">
	<path class="districts-path-territory" id="districts-path-territory-1" d="M160.6,432.8l3.1,2.1l3.1-1l0.5-0.1l1.1-0.3l-0.1,0.5l-0.1,0.4v0.4l-0.4,1.4l-0.1,2.2
		l-2.1,4.4l-1.7,0.1l-2.3,1.7l-3.1-0.7l-1-2.5l-3.9-1.3l-6.7-8.1l0.5-1.7l-2.8-0.9l1.6-4.4l2.9,0.9l1-1.7l2.9,1l0.9,2.6l7,2.8
		L160.6,432.8z"/>
	<circle class="districts-path-city" id="districts-path-city-1" class="st1" cx="155.5" cy="434.4" r="3.5"/>
</g>
</svg>
