<?xml version="1.0" encoding="utf-8"?>
<!-- Generator: Adobe Illustrator 25.0.0, SVG Export Plug-In . SVG Version: 6.00 Build 0)  -->
<svg version="1.1" id="Слой_1" xmlns="http://www.w3.org/2000/svg" xmlns:xlink="http://www.w3.org/1999/xlink" x="0px" y="0px"
	 viewBox="0 0 500 160" style="enable-background:new 0 0 500 160;" xml:space="preserve">
<style type="text/css">
	.st0{fill:#224F9C;}
	.st1{fill:#019746;}
</style>
<g>
	<path class="st0" d="M79,0c0,0.1,0,0.2,0,0.2c0.4,0.2,0.7,0.3,1.1,0.6c0.6,0.4,1,0.8,1.4,1.3C87,9,92.5,16,98,22.9
		c0.2,0.3,0.4,0.5,0.7,0.8c0.3,0.4,0.6,0.8,0.8,1.3c0.4,1,0.5,1.9,0.1,2.9c-0.2,0.5-0.4,0.9-0.8,1.3c-0.2,0.1-0.3,0.3-0.5,0.4
		c-5,4.2-10.1,8.5-15.1,12.7c-2,1.7-4,3.3-6,5c-0.2,0.2-0.5,0.4-0.7,0.6c-0.9,0.7-2,1.1-3.1,1.2c-1.2,0.1-2.3-0.2-3.2-1
		c-0.4-0.3-0.7-0.7-0.9-1.1c-0.2-0.3-0.3-0.6-0.2-1c0-0.3,0-0.6,0-0.8c0-2.1,0-4.2,0.1-6.2c0-1-0.1-1.2-1.1-1
		c-2.2,0.3-4.3,0.8-6.4,1.5C54.9,41.6,49,45,43.8,49.7c-6.7,6.2-11.2,13.7-13.4,22.5c-0.1,0.2-0.1,0.4-0.2,0.6
		c0,0.1-0.1,0.2-0.2,0.4c-0.3,0.4-0.8,0.3-1-0.1c-0.1-0.3-0.2-0.7-0.2-1c0.1-0.8,0.1-1.5,0.2-2.3c0.2-1.8,0.5-3.6,0.9-5.3
		c1.4-5.6,3.9-10.6,7.6-15c3.3-4.1,7.4-7.3,11.9-9.9c4-2.2,8.3-3.9,12.7-5c2.1-0.5,4.2-0.9,6.3-1.2c1.4-0.2,2.8-0.3,4.2-0.4
		c0.2,0,0.4,0,0.6,0c0.4,0,0.8,0.4,0.8,0.8c0,0.1,0,0.2,0,0.3c-0.1,1.6-0.3,3.1-0.4,4.7c-0.1,1.7-0.3,3.3-0.4,5c0,0.1,0,0.2,0,0.3
		c0,0.1,0.1,0.3,0.2,0.3c0.1,0.1,0.3,0,0.4,0c0.2-0.2,0.4-0.3,0.6-0.5c2.5-2.1,4.9-4.1,7.4-6.2c3.8-3.2,7.7-6.5,11.5-9.7
		c0.3-0.3,0.6-0.5,0.9-0.8c0.4-0.4,0.5-0.9,0.2-1.4c-0.1-0.1-0.1-0.2-0.2-0.4c-0.1-0.1-0.2-0.3-0.3-0.4C89,18.5,83.8,12,78.7,5.6
		c-0.2-0.2-0.4-0.5-0.6-0.7c-0.2-0.2-0.5-0.1-0.6,0.2c0,0.1-0.1,0.3-0.1,0.4c-0.2,1.5-0.3,3.1-0.5,4.6c0,0.2-0.1,0.5-0.1,0.7
		c-0.1,0.4-0.4,0.7-0.8,0.8c-0.1,0-0.2,0-0.3,0c-0.7,0-1.4,0.1-2.1,0.1c-1.8,0.1-3.6,0.3-5.4,0.5c-7.7,1-15.2,2.9-22.4,6
		c-5.5,2.3-10.7,5.3-15.4,8.9C21.8,33.8,15.2,42,10.7,51.9c-2.2,4.8-3.8,9.7-5,14.8c-0.5,2.2-0.9,4.3-1.2,6.5
		c-0.2,1.6-0.4,3.2-0.5,4.9c-0.3,4.2-0.3,8.4-0.1,12.6c0.1,1.3,0.2,2.6,0.3,3.9c0.1,0.9,0.2,1.7,0.3,2.6c0,0.4,0.1,0.9,0.2,1.3
		c0,0.3,0,0.6,0,0.8c0,0.4-0.6,0.7-1,0.4c-0.1-0.1-0.2-0.2-0.3-0.3c-0.1-0.2-0.2-0.4-0.2-0.6C2.3,96,1.6,93,1.1,90
		c-0.3-1.7-0.5-3.4-0.7-5.1c-0.1-1.3-0.3-2.7-0.3-4c0-0.8-0.1-1.5-0.1-2.3c0-0.5,0-1,0-1.6c0-0.7,0-1.3,0.1-2
		c0.1-2.3,0.3-4.5,0.6-6.7c0.7-4.6,1.8-9.2,3.5-13.5c2.2-5.8,5.1-11.1,8.7-16.1c4.8-6.5,10.5-12.1,17-16.9c5.6-4,11.6-7.3,18-9.8
		c3.5-1.4,7.1-2.4,10.8-3.2c2-0.4,4.1-0.7,6.2-0.9c2.2-0.2,4.5-0.3,6.7-0.2c0.2,0,0.4,0,0.6,0c0.3,0,0.5-0.2,0.6-0.5
		c0-0.2,0.1-0.4,0-0.6c-0.1-0.7,0-1.5,0.1-2.2c0.2-1.1,0.6-2,1.4-2.8c0.5-0.5,1.1-0.9,1.7-1.1c0.2-0.1,0.4-0.1,0.6-0.2
		c0,0,0-0.1,0-0.2C77.5,0,78.3,0,79,0z"/>
	<path class="st0" d="M70.7,160c-0.1-0.1-0.2-0.2-0.4-0.2c-0.7-0.1-1.4-0.1-2.2-0.2c-0.7-0.1-1.4-0.1-2.2-0.2
		c-2.7-0.3-5.3-0.7-8-1.4c-7-1.6-13.7-4.1-20-7.6c-5.5-3-10.5-6.5-15.1-10.7c-4-3.6-7.5-7.6-10.4-12.1c-0.7-1.1-1.4-2.2-2-3.4
		c-0.1-0.2-0.2-0.4-0.4-0.6c-0.2-0.3-0.6-0.4-0.9-0.2c-0.3,0.1-0.5,0.3-0.8,0.5c-0.6,0.4-1.3,0.7-2,0.9c-1.1,0.3-2.2,0.3-3.3-0.1
		c-1.5-0.6-2.5-1.8-3-3.4c-0.1-0.3-0.1-0.6-0.1-0.9c0-0.1,0-0.3,0-0.4c0-0.5,0.2-1,0.4-1.5c1.5-3.8,3-7.7,4.6-11.5
		c1.7-4.4,3.5-8.7,5.2-13.1c0.2-0.4,0.3-0.8,0.5-1.3c0.2-0.7,0.6-1.3,1.2-1.8c0.9-0.8,1.9-1.2,3.1-1c0.3,0.1,0.7,0.2,1,0.3
		c3,1.1,6,2.2,9.1,3.3c5.7,2.1,11.4,4.1,17.1,6.2c0.5,0.2,1,0.4,1.5,0.7c1.1,0.7,1.9,1.6,2.3,2.9c0.3,0.8,0.3,1.6,0.1,2.4
		c-0.2,0.8-0.6,1.4-1.4,1.9c-1,0.5-1.9,1.1-2.9,1.6c-1,0.5-1.9,1.1-2.9,1.6c-0.2,0.1-0.4,0.2-0.6,0.4c-0.3,0.2-0.4,0.5-0.2,0.8
		c0.2,0.4,0.5,0.7,0.7,1.1c0.4,0.7,0.8,1.3,1.3,1.9c0.2,0.2,0.3,0.4,0.2,0.7c0,0.9-0.1,1.8,0,2.7c0,0.2,0,0.3,0,0.5
		c-0.1,0.7-0.2,1.3,0,1.9c0,0,0,0.1,0,0.1c0,0-0.1,0-0.1,0c-0.2-0.2-0.4-0.3-0.5-0.5c-2.7-2.7-5-5.5-7.1-8.6
		c-0.2-0.3-0.4-0.6-0.6-0.9c-0.1-0.2-0.2-0.4-0.3-0.6c-0.1-0.3,0-0.7,0.2-0.8c0.2-0.2,0.5-0.3,0.7-0.4c1.4-0.6,2.8-1.3,4.1-1.9
		c1.4-0.7,2.9-1.4,4.3-2c0.2-0.1,0.5-0.2,0.4-0.5c0-0.2-0.2-0.3-0.4-0.4c-1.4-0.5-2.8-1-4.2-1.5c-6.7-2.4-13.5-4.9-20.2-7.3
		c-0.2-0.1-0.5-0.2-0.7-0.2c-0.3-0.1-0.5-0.1-0.8,0.1c-0.3,0.2-0.5,0.4-0.6,0.7c-0.1,0.3-0.2,0.6-0.4,0.9c-2.5,6.4-5,12.9-7.6,19.3
		c-0.5,1.3-1,2.6-1.5,3.9c-0.1,0.2-0.1,0.4-0.2,0.6c0,0.2,0.2,0.4,0.4,0.4c0.2-0.1,0.5-0.1,0.7-0.2c1.3-0.6,2.7-1.2,4-1.8
		c0.3-0.1,0.5-0.2,0.8-0.3c0.4-0.1,0.7,0,1,0.2c0.2,0.2,0.3,0.4,0.5,0.7c0.9,1.3,1.8,2.6,2.7,3.9c3,4.1,6.3,8,9.9,11.6
		c4.9,4.8,10.4,8.9,16.4,12.3c5.6,3.1,11.5,5.3,17.7,6.8c2.2,0.5,4.5,0.9,6.7,1.1c3.9,0.5,7.8,0.5,11.7,0.3c1.1-0.1,2.3-0.2,3.4-0.3
		c1.1-0.1,2.3-0.3,3.4-0.5c2.2-0.4,4.4-0.8,6.6-1.4c6.1-1.6,11.8-3.9,17.4-6.8c5-2.6,9.8-5.7,14.3-9.1c0.2-0.2,0.5-0.4,0.7-0.6
		c0.3-0.2,0.7-0.2,0.9,0c0.2,0.2,0.3,0.7,0.1,1c-0.1,0.1-0.2,0.3-0.3,0.4c-5.9,6.2-12.6,11.4-20.3,15.3c-5,2.5-10.2,4.3-15.6,5.5
		c-1.9,0.4-3.8,0.7-5.7,0.9c-1.4,0.2-2.8,0.3-4.1,0.4c-0.1,0-0.3,0-0.3,0.2C75.3,160,73,160,70.7,160z"/>
	<path class="st0" d="M500,31.8c-0.1,0-0.1,0.1-0.1,0.1c-0.4,2.5-0.9,4.9-1.4,7.3c-0.4,2.2-0.9,4.5-1.3,6.7
		c-0.5,2.7-1.1,5.4-1.6,8.1c0,0.1,0,0.2-0.1,0.3c-0.1,0.2-0.2,0.4-0.4,0.5c-0.2,0.1-0.3,0.1-0.5,0.2c-1.2,0.2-2.4,0.2-3.6,0
		c-0.1,0-0.2,0-0.3-0.1c-0.2-0.1-0.4-0.3-0.4-0.6c0-0.1,0-0.3,0.1-0.4c0.5-2.5,1-5,1.5-7.5c0.4-1.9,0.7-3.7,1.1-5.6
		c0.1-0.5,0.3-1.1,0.4-1.6c0-0.1,0-0.3,0-0.4c0,0,0-0.1,0-0.1c0,0-0.1,0-0.1,0c-0.1,0.1-0.2,0.2-0.3,0.3c-1.6,2.1-3.4,4.2-5.2,6.2
		c-2.5,2.8-5,5.7-7.5,8.5c-0.2,0.2-0.4,0.5-0.6,0.7c-0.3,0.3-0.6,0.5-1,0.5c-1.2,0.2-2.3,0.2-3.5,0c-0.1,0-0.1,0-0.2-0.1
		c-0.2-0.1-0.3-0.2-0.3-0.4c0-0.2,0-0.3,0-0.5c0.9-4.3,1.7-8.5,2.6-12.8c0.7-3.5,1.4-7.1,2.1-10.6c0.1-0.6,0.4-0.9,1-1
		c0.2,0,0.3-0.1,0.5-0.1c0.9-0.1,1.8-0.1,2.7,0c0.2,0,0.3,0.1,0.5,0.1c0.5,0.1,0.6,0.3,0.5,0.8c-0.2,0.9-0.3,1.8-0.5,2.6
		c-0.6,2.9-1.2,5.8-1.8,8.7c-0.2,1.2-0.5,2.3-0.8,3.4c0,0.2-0.1,0.4-0.1,0.6c0,0,0,0.1,0,0.1c0.1,0,0.1,0,0.2-0.1
		c0.1-0.1,0.2-0.3,0.3-0.4c1-1.3,2-2.5,3.1-3.8c3-3.5,6-6.9,9-10.4c0.4-0.4,0.7-0.8,1.1-1.2c0.4-0.4,0.8-0.6,1.4-0.7
		c0.9-0.1,1.8-0.1,2.7,0c0.2,0,0.5,0.1,0.7,0.2C500,30.4,500,31.1,500,31.8z"/>
	<path class="st1" d="M120.7,32c0.4,0,0.9,0,1.3,0c0,0,0.1,0.1,0.1,0.1c0,0.1,0,0.3,0,0.4c0,0.6,0,1.2-0.1,1.9
		c0,0.2,0.1,0.4,0.3,0.5c0.3,0.1,0.4,0.4,0.4,0.6c0.1,0.4,0.1,0.8,0.2,1.1c0,0.2,0.2,0.3,0.4,0.3c0.4,0,0.8-0.1,1.1-0.1
		c0.4,0,0.9-0.1,1.3-0.1c0.1,0,0.3,0.1,0.3,0.2c0.2,0.4,0.3,0.8,0.5,1.1c0.1,0.2,0.2,0.5,0.2,0.7c0,0.2,0,0.5,0,0.7
		c0,0.4-0.1,0.5-0.4,0.6c-0.2,0-0.4,0.1-0.6,0.2c-0.1,0-0.1,0.2-0.1,0.3c0,0.1,0.1,0.2,0.1,0.3c0.2,0.1,0.3,0.1,0.5,0.1
		c0.2,0,0.3,0.1,0.3,0.3c0,0.2,0,0.5,0,0.7c0,0.9,0.1,0.8-0.7,1.2c-0.1,0.1-0.3,0.1-0.4,0.2c-0.1,0.1-0.1,0.1-0.2,0.2
		c0,0.1-0.1,0.2-0.1,0.3c-0.2,0.8-0.6,1.5-1.3,2c-0.8,0.7-0.6,0.5-0.7,1.5c0,0.4,0,0.9,0,1.3c0,0.1-0.1,0.3-0.2,0.4
		c-0.2,0.2-0.3,0.3-0.5,0.5c-1.8,1.6-3.6,3.3-5.4,4.9c-1,0.9-0.8,0.5-0.9,1.7c0,0.3,0,0.6-0.1,0.8c0,0.2-0.1,0.3-0.3,0.3
		c-1.3,0.2-1.1,0.1-1.2,1.3c0,0.4,0,0.8-0.1,1.2c0,0.5-0.2,0.9-0.4,1.3c-0.4,0.6-0.8,1.1-1.5,1.4c-0.4,0.2-0.8,0.4-1.2,0.7
		c-1.7,1.2-2.7,2.7-3.1,4.7c-0.1,0.2-0.1,0.5-0.1,0.7c0,0.5-0.2,0.9-0.5,1.2c-0.3,0.4-0.6,0.8-0.9,1.3c-0.3,0.5-0.7,0.9-0.8,1.4
		c-0.1,0.2-0.2,0.4-0.3,0.5c-0.2,0.3-0.6,0.4-0.9,0.2c-0.2-0.1-0.4-0.2-0.5-0.3c-0.2-0.3-0.4-0.6-0.6-0.8c-0.1-0.2-0.3-0.3-0.5-0.3
		c-0.1,0-0.3,0-0.4,0.1c-0.4,0.5-0.9,1-1.3,1.6c-0.2,0.2-0.3,0.6-0.4,0.8c-0.1,0.4-0.2,0.8,0.3,1.1c0.1,0.1,0.2,0.2,0.3,0.3
		c0,0,0,0.1,0,0.2c0,0.1-0.1,0.1-0.1,0.1c-0.8,0.6-0.6,0.5-0.6,1.4c0,0.8,0.1,1.6,0.1,2.4c0,0.2,0.1,0.4,0.2,0.6
		c0.4,0.5,0.8,1,1.3,1.5c0.2,0.2,0.2,0.4,0.2,0.7c0,0.2,0,0.4-0.1,0.6c0,0.3-0.1,0.6-0.4,0.8c0,0,0,0-0.1,0.1
		c-0.3,0.4-0.7,0.7-0.9,1.1c0,0.5,0,1,0,1.5c0,0.6,0,1.2,0,1.8c0,0.2-0.1,0.4-0.2,0.6c-0.1,0.1-0.2,0.3-0.3,0.4
		c-0.2,0.2-0.2,0.4-0.2,0.7c0.1,0.8,0.1,1.5,0.2,2.3c0.1,0.5,0,0.9-0.3,1.3c-0.1,0.1-0.1,0.3,0,0.4c0.2,0.2,0.4,0.5,0.6,0.7
		c0.3,0.3,0.5,0.7,0.5,1.2c0,0.4,0,0.9,0.1,1.3c0.1,0.4,0.4,0.8,0.6,1.2c0.3,0.5,0.4,1,0.2,1.6c-0.2,0.6-0.3,1.2-0.5,1.8
		c-0.1,0.3-0.1,0.7-0.1,1c0,0.9,0,1.7,0.1,2.6c0,1,0,1.9,0.1,2.9c0,0.2-0.1,0.3-0.2,0.5c-0.1,0.1-0.2,0.1-0.2,0.2
		c-1,0.8-1.9,1.6-2.9,2.4c-0.2,0.2-0.5,0.3-0.8,0.3c-0.2,0-0.5,0-0.7,0c-2.8,0-5.7,0-8.5,0c-0.2,0-0.5,0-0.7,0
		c-0.3,0-0.6,0.1-0.8,0.4c-0.1,0.1-0.1,0.2-0.2,0.2c-0.2,0.3-0.4,0.4-0.8,0.4c-0.2,0-0.3,0.1-0.3,0.3c0,0.5-0.1,1-0.1,1.6
		c0,0.1,0,0.3-0.1,0.4c0,0.1-0.1,0.1-0.1,0.1c-0.2,0-0.3,0-0.5,0c-0.6,0-1.2,0-1.8,0c-0.2,0-0.3,0.1-0.3,0.2
		c-0.1,0.1-0.2,0.3-0.3,0.4c-0.3,0.4-0.7,0.5-1.1,0.5c-0.1,0-0.1,0-0.2,0c-1.1-0.2-0.8-0.1-1.5,0.7c-0.2,0.2-0.4,0.5-0.6,0.8
		c-0.9,1.2-0.5,1-2,0.9c-1,0-2-0.3-3-0.5c-0.5-0.1-1.1-0.2-1.6-0.3c-0.1,0-0.2,0.1-0.2,0.2c0,0.1,0,0.2-0.1,0.3
		c-0.1,0.2-0.1,0.4-0.2,0.6c0,0.1-0.1,0.2-0.2,0.2c-0.3,0-0.6,0-0.8,0c-1.3-0.1-1.1,0-1.4-1.2c-0.1-0.2-0.1-0.4-0.2-0.6
		c-0.2-0.6-0.2-0.6-0.8-0.7c-0.5,0-1-0.1-1.5-0.1c-0.2,0-0.3,0.1-0.3,0.3c-0.1,0.3-0.1,0.5-0.2,0.8c0,0-0.1,0.1-0.1,0.1
		c-0.1,0-0.2,0-0.3,0c-0.3,0-0.6,0-0.9-0.1c-0.2,0-0.4,0-0.5,0.3c0,0.1-0.1,0.2-0.2,0.3c-0.3,0.4-0.7,0.6-1.2,0.6
		c-0.3,0-0.6,0-0.9-0.1c-0.3-0.1-0.5-0.1-0.8-0.2c0,0-0.1,0.1-0.2,0.1c0,0,0,0.1,0,0.1c-0.1,0.7-0.2,1.4-0.2,2.2
		c0,0.4,0,0.4,0.4,0.6c0,0,0.1,0,0.1,0c0.3,0,0.6,0,0.8,0.2c0.3,0.2,0.4,0.5,0.6,0.8c0.2,0.3,0.4,0.6,0.6,1c0.1,0.3,0.2,0.6,0.3,0.9
		c0.1,0.3-0.1,0.6-0.4,0.6c-0.2,0-0.4,0.1-0.6,0.1c-0.3,0-0.6-0.1-0.9-0.1c-0.2,0-0.4,0-0.5,0.2c-0.1,0.2-0.3,0.4-0.4,0.6
		c-0.5,0.6-0.9,1.3-1.4,1.9c-0.1,0.1-0.2,0.3-0.3,0.4c-0.5,0.6-1,0.6-1.5,0.1c-0.1-0.1-0.2-0.3-0.4-0.4c-0.2-0.1-0.3-0.2-0.5-0.3
		c-0.2-0.1-0.3,0-0.5,0.1c-0.1,0.1-0.2,0.2-0.3,0.3c-0.8,0.9-1.9,1.4-3.1,1.6c-0.3,0.1-0.7,0.1-1,0.3c-0.3,0.2-0.7,0.2-1,0
		c-0.1-0.1-0.3-0.1-0.4-0.2c-0.1,0-0.2,0-0.2,0.1c0,0.1,0,0.3-0.1,0.4c0,0.2-0.1,0.3-0.3,0.4c-0.1,0-0.1,0.1-0.2,0.1
		c-0.3,0.1-0.5,0.4-0.6,0.7c-0.1,0.1-0.1,0.2-0.2,0.4c-0.2,0.3-0.3,0.7-0.2,1.1c0.1,0.5,0.1,1.1,0.2,1.7c0,0.4-0.1,0.7-0.4,1
		c-0.1,0.1-0.2,0.1-0.3,0.1c-0.3,0-0.7,0-1,0c-0.2,0-0.3-0.2-0.3-0.4c0-0.4-0.1-0.9-0.1-1.3c0-0.1-0.1-0.3-0.2-0.4
		c-0.2-0.1-0.4-0.3-0.6-0.4c-0.3-0.2-0.6-0.4-1-0.3c-0.4,0-0.6-0.2-0.8-0.5c-0.1-0.1-0.2-0.2-0.2-0.3c-0.3-0.4-0.3-0.4,0-0.8
		c0.1-0.1,0.1-0.2,0.2-0.4c0.1-0.2-0.1-0.5-0.3-0.6c-0.5-0.1-1-0.1-1.4-0.2c-0.2,0-0.5-0.1-0.7-0.2c-0.2-0.1-0.4-0.3-0.3-0.6
		c0-1.6,0-3.1,0-4.7c0-0.7,0.3-1.1,0.9-1.4c0.1,0,0.2-0.1,0.3-0.1c0.3-0.1,0.4-0.4,0.2-0.7c-0.1-0.2-0.3-0.4-0.4-0.6
		c-0.1-0.1-0.2-0.2-0.2-0.4c0-0.4-0.1-0.8-0.1-1.2c0-1.3-0.1-2.7-0.1-4c0-0.6,0.2-1,0.7-1.3c0.2-0.2,0.5-0.3,0.7-0.4
		c0.5-0.2,1-0.3,1.5-0.4c0.4-0.1,0.8-0.1,1.2-0.2c0.2,0,0.4,0,0.5-0.1c0.8-0.3,0.7-0.2,0.9-1c0.1-0.5,0.2-1,0.2-1.4
		c0-0.1,0-0.3,0-0.4c0-0.6-0.1-1.1-0.1-1.7c0-0.1-0.1-0.3-0.2-0.4c-0.2-0.2-0.4-0.3-0.6-0.5c-0.3-0.3-0.5-0.7-0.5-1.2
		c0-0.5,0-0.9,0.1-1.3c0.3-1,0.8-2,1.3-2.9c0.1-0.1,0.2-0.2,0.3-0.3c0.4-0.3,0.6-0.7,0.8-1.2c0-0.1,0-0.2,0.1-0.3
		c0.1-0.5,0.3-1,0.4-1.5c0.2-0.5,0.3-0.9,0.4-1.4c0.1-0.4,0.1-0.8,0.1-1.2c0-0.4-0.2-0.6-0.5-0.7c-0.7-0.2-1.4-0.3-2.1-0.5
		c-0.2,0-0.4-0.2-0.6,0c-0.1,0.1-0.1,0.3-0.2,0.5c-0.2,0.6-0.6,0.8-1.2,0.8c-0.3,0-0.6,0-0.9,0c-0.2,0-0.4,0.1-0.4,0.4
		c0,0.7-0.1,1.4-0.1,2.1c0,0.1,0,0.1-0.1,0.2c0,0-0.1,0-0.1,0c-0.1,0-0.2,0-0.3-0.1c-1.4-0.6-2.8-1.2-4.2-1.7
		c-0.3-0.1-0.5-0.3-0.6-0.5c-0.6-1-0.7-1.1-0.9-2.3c0-0.2-0.1-0.3-0.1-0.5c0-0.1,0-0.2,0.1-0.3c0.2-0.2,0.4-0.3,0.5-0.5
		c0.5-0.4,1-0.9,1.5-1.3c0.2-0.1,0.2-0.3,0.2-0.5c0-0.2,0-0.3-0.1-0.5c0-0.1-0.1-0.2-0.2-0.3c-0.1-0.1-0.2-0.2-0.3-0.3
		c-0.5-0.3-0.9-0.6-1.4-1c-0.6-0.5-0.6-0.4-0.4-1.1c0.2-0.7,0.3-1.4,0.2-2.2c0-1.7-0.7-3-2-4c-0.4-0.3-0.9-0.6-1.4-0.9
		c-1.1-0.6-2-1.4-2.8-2.4c-0.2-0.2-0.3-0.4-0.4-0.6c-0.2-0.5,0-0.9,0.4-1.2c0.3-0.2,0.7-0.3,1.1-0.3c0.4,0,0.9,0,1.3,0
		c0.5,0,1,0,1.5,0.2c0.1,0,0.2,0,0.3,0.1c0.5,0.2,1,0.1,1.5-0.1c0.3-0.2,0.6-0.2,0.9-0.2c1.3,0.1,2.6,0.3,3.9,0.4
		c0.4,0,0.8,0.1,1.1,0.1c0.3,0,0.7,0.1,1,0.1c0.2,0,0.3,0.1,0.5,0.2c0.3,0.2,0.5,0.4,0.5,0.7c0,0.1,0,0.3,0,0.4
		c0,0.1,0.1,0.2,0.2,0.2c0.4,0,0.5,0,0.6-0.4c0.1-0.4,0.4-0.5,0.8-0.6c0.1,0,0.3,0,0.4,0c0.2,0,0.5,0,0.7,0c0.3,0,0.4-0.1,0.4-0.3
		c0-0.2,0-0.4,0.1-0.6c0-0.2,0.2-0.3,0.4-0.3c0.6,0,1.2,0,1.8,0c0.2,0,0.5,0,0.7,0c0.2,0,0.3,0,0.4-0.2c0.1-0.2,0.2-0.4,0.3-0.6
		c0.1-0.2,0.2-0.3,0.5-0.2c0.6,0.1,1.1,0.3,1.7,0.4c0.3,0.1,0.6,0.1,0.9,0c0.2,0,0.4-0.1,0.6-0.1c0.1,0,0.2-0.1,0.2-0.2
		c0-0.6,0-1.1,0-1.7c0-0.1-0.1-0.1-0.1-0.1c0,0-0.1,0-0.1,0c-0.6-0.1-1-0.5-1.3-1c-0.2-0.4-0.5-0.9-0.6-1.3
		c-0.2-0.7-0.4-1.4-0.6-2.1c-0.1-0.3-0.2-0.7-0.3-1c0-0.1-0.1-0.2-0.2-0.2c-0.1,0-0.3,0-0.4,0c-0.7,0.1-1.4,0.1-2.1,0.2
		c-0.1,0-0.2-0.1-0.2-0.2c0-0.1,0-0.3,0-0.4c0.1-1.8,0.3-3.5,0.4-5.3c0-0.2,0-0.5,0.1-0.7c0.1-0.8,0.1-1.6,0.2-2.4
		c0.1-1.1-0.1-0.8,0.9-1.4c3.3-1.8,6.7-3.6,10-5.5c1.1-0.6,0.9-0.3,1-1.5c0-0.1,0-0.3,0-0.4c0-0.2,0.1-0.3,0.3-0.3
		c0.2,0,0.5-0.1,0.7-0.1c0.1,0,0.2-0.1,0.3-0.3c0-0.2,0-0.4,0-0.6c0-0.4,0.3-0.7,0.7-0.8c0.2-0.1,0.5-0.1,0.7-0.1
		c0.8,0,1.6,0.2,2.4,0.3c2,0.4,3.9,0.7,5.9,1.1c0.3,0,0.6,0,0.8,0c3.8,0,7.6,0,11.4,0c0.4,0,0.8,0,1.1,0c0.3,0,0.6,0,0.8-0.1
		c2.4-0.1,4.8-0.2,7.2-0.3c1.8-0.1,3.7-0.1,5.5-0.2c0.8,0,1.6-0.1,2.4-0.2c1.2-0.1,2.3-0.3,3.5-0.4c0.2,0,0.4-0.1,0.5-0.3
		c0.4-0.6,0.8-1.2,1.2-1.9c0.2-0.4,0.5-0.7,0.8-0.9c0.8-0.7,1.6-1.4,2.4-2.1c0.2-0.1,0.2-0.3,0.2-0.5c0-0.5,0-1,0.2-1.4
		c0.3-1.1,1-1.7,2.1-1.9c0.4-0.1,0.8-0.1,1.1-0.1c0.4-0.1,0.7-0.3,0.8-0.7c0.1-0.2,0.1-0.5,0.1-0.7c0-0.4,0-0.8,0-1.2
		c0-1-0.1-0.7,0.6-1.4c0.4-0.4,0.8-0.7,1.1-1.1c0.1-0.1,0.2-0.3,0.3-0.4c0-0.1,0.1-0.2,0-0.3c-0.1-0.2-0.2-0.3-0.3-0.4
		c-0.2-0.3-0.1-0.6,0-0.9c0.2-0.3,0.4-0.6,0.7-0.8c0.1-0.1,0.3-0.2,0.5-0.2C119.9,32,120.3,32,120.7,32C120.7,32,120.7,32,120.7,32z
		"/>
	<path class="st0" d="M150.9,83.9c0,0.7,0,1.7,0,2.7c-0.1,1.6-0.2,3.1-0.3,4.7c-0.1,1.2-0.3,2.4-0.4,3.6c-0.2,1.7-0.5,3.3-0.9,5
		c-0.8,3.8-2,7.6-3.5,11.2c-1.1,2.7-2.4,5.2-3.9,7.7c-0.1,0.2-0.3,0.4-0.4,0.6c-0.1,0.2,0,0.6,0.2,0.7c0.2,0.1,0.3,0.2,0.5,0.3
		c0.4,0.2,0.8,0.5,1.2,0.7c0.4,0.3,0.8,0.6,1.1,0.9c0.8,0.9,1.3,1.9,1.4,3.1c0.1,1.5-0.4,2.8-1.5,3.8c-0.1,0.1-0.3,0.2-0.4,0.3
		c-0.7,0.4-1.4,0.7-2.2,0.8c-1.3,0.2-2.7,0.4-4,0.6c-1.2,0.2-2.4,0.3-3.6,0.5c-1.2,0.2-2.4,0.3-3.6,0.5c-1.2,0.2-2.3,0.3-3.5,0.5
		c-1.3,0.2-2.5,0.4-3.8,0.5c-1.2,0.2-2.4,0.3-3.6,0.5c-1.6,0.2-3.2,0.4-4.7,0.7c-0.7,0.1-1.3,0.2-2,0.2c-0.7,0-1.4-0.3-1.9-0.6
		c-0.9-0.6-1.4-1.3-1.6-2.3c-0.4-2.1-0.7-4.3-1.1-6.4c-0.4-2.1-0.8-4.3-1.1-6.4c-0.3-1.7-0.6-3.5-0.9-5.2c-0.3-1.8-0.6-3.7-1-5.5
		c-0.3-1.6-0.6-3.2-0.8-4.8c-0.2-1.8,0.2-3.4,1.5-4.7c0.5-0.5,1-0.8,1.7-1c0.8-0.3,1.6-0.2,2.4,0.2c0.9,0.5,1.7,1,2.6,1.6
		c1.1,0.7,2.3,1.4,3.4,2c0.7,0.4,0.9,0.5,1.3-0.4c1.2-3.2,2.2-6.5,2.7-9.9c0.4-2.6,0.6-5.3,0.5-8c0-1.3-0.1-2.6-0.3-3.8
		c-0.4-4.1-1.5-8.1-2.9-12c-0.1-0.3-0.2-0.5-0.3-0.8c-0.1-0.3,0-0.5,0.2-0.7c0.1-0.1,0.2-0.1,0.3-0.2c0.4-0.1,0.9,0.1,1.1,0.4
		c0.1,0.1,0.1,0.2,0.2,0.3c1.6,3,3.1,6,4.2,9.2c0.6,1.8,1.1,3.6,1.4,5.4c0.1,0.9,0.3,1.8,0.3,2.8c0.1,2,0,3.9-0.3,5.9
		c-0.3,1.8-0.6,3.5-1.1,5.3c-0.8,3.1-1.8,6.1-2.9,9.1c-0.3,0.9-0.6,1.8-1,2.7c-0.1,0.3-0.2,0.7-0.4,1c-0.1,0.2-0.2,0.3-0.4,0.5
		c-0.2,0.2-0.6,0.3-0.9,0.1c-0.3-0.1-0.5-0.3-0.8-0.5c-2.3-1.6-4.6-3.3-7-4.9c-0.3-0.2-0.6-0.4-0.9-0.6c-0.2-0.1-0.4,0.1-0.5,0.3
		c0,0.1,0,0.2,0,0.3c0.4,2.1,0.7,4.2,1.1,6.2c0.4,2.1,0.7,4.3,1.1,6.4c0.3,1.8,0.6,3.5,0.9,5.3c0.3,1.7,0.6,3.5,0.9,5.2
		c0.2,0.9,0.3,1.8,0.5,2.8c0,0.1,0.1,0.3,0.1,0.4c0.1,0.5,0.5,0.7,0.9,0.8c0.4,0.1,0.8,0,1.1,0c1.6-0.2,3.2-0.5,4.8-0.7
		c1.2-0.2,2.3-0.3,3.5-0.5c1.1-0.2,2.3-0.3,3.4-0.5c1.2-0.2,2.3-0.3,3.5-0.5c1.2-0.2,2.5-0.4,3.7-0.5c1.2-0.2,2.3-0.3,3.5-0.5
		c1-0.1,2-0.3,3-0.5c0.1,0,0.3-0.1,0.3-0.3c0.1-0.2,0-0.3-0.1-0.5c-0.1-0.1-0.2-0.1-0.2-0.2c-0.2-0.1-0.3-0.2-0.5-0.4
		c-1.1-0.8-2.1-1.5-3.2-2.3c-0.2-0.2-0.4-0.3-0.7-0.5c-0.3-0.2-0.4-0.6-0.3-0.9c0.1-0.3,0.2-0.5,0.3-0.8c0.7-1.5,1.5-3,2.2-4.5
		c2.3-5.1,4.1-10.3,5.4-15.7c0.6-2.4,1-4.7,1.4-7.1c0.3-2,0.5-4,0.6-6c0.2-2.4,0.2-4.7,0.1-7.1c0-1.5-0.2-3-0.3-4.6
		c-0.1-1.2-0.3-2.3-0.4-3.5c-0.4-2.8-1-5.5-1.8-8.2c-2.4-8.5-6.4-16.1-11.9-23c-4.5-5.7-9.7-10.5-15.6-14.7
		c-5-3.6-10.3-6.6-15.9-9.2c-1.1-0.5-2.2-1-3.3-1.5c-0.2-0.1-0.4-0.2-0.6-0.3c-0.2-0.1-0.3-0.5-0.2-0.7c0.1-0.2,0.3-0.4,0.5-0.4
		c0.3,0,0.5,0,0.8,0.1c2.1,0.5,4.1,1.1,6.2,1.8c5.6,1.9,11,4.3,16,7.5c8.7,5.5,15.6,12.8,20.9,21.6c3.6,5.9,6.1,12.3,7.9,19
		c0.7,2.6,1.2,5.3,1.6,7.9c0.3,2.2,0.6,4.4,0.7,6.6C150.9,79.9,150.9,81.7,150.9,83.9z"/>
	<path class="st0" d="M252.8,29.5c0.4,0,0.8,0,1.1,0c0.3,0,0.5,0.1,0.8,0.2c0.3,0.1,0.5,0.3,0.4,0.6c0,0.2-0.1,0.5-0.1,0.7
		c-0.5,2.6-1.1,5.2-1.6,7.8c-0.4,2.2-0.9,4.3-1.4,6.5c0,0.2,0,0.4-0.1,0.6c0,0,0,0.1,0,0.1c0,0,0.1,0,0.1,0c0.1-0.1,0.1-0.1,0.2-0.2
		c1.2-1.7,2.6-3.2,4-4.8c2.8-3.2,5.6-6.4,8.4-9.6c0.3-0.4,0.6-0.7,1-1.1c0.4-0.4,0.9-0.7,1.5-0.7c0.9-0.1,1.7-0.1,2.6,0
		c0.2,0,0.5,0.1,0.7,0.2c0.2,0.1,0.3,0.3,0.3,0.5c-0.1,0.5-0.2,1-0.3,1.5c-0.6,3-1.2,6-1.8,9.1c-0.6,3-1.2,5.9-1.8,8.8
		c-0.3,1.5-0.6,2.9-0.9,4.4c0,0.1,0,0.3-0.1,0.4c-0.1,0.2-0.2,0.3-0.3,0.4c-0.2,0.1-0.3,0.2-0.5,0.2c-1.2,0.2-2.5,0.3-3.7,0
		c-0.1,0-0.2-0.1-0.3-0.1c-0.2-0.1-0.4-0.3-0.3-0.5c0-0.2,0-0.4,0.1-0.6c0.9-4.4,1.8-8.8,2.7-13.2c0.1-0.6,0.3-1.1,0.4-1.7
		c0,0-0.1-0.1-0.1-0.1c0,0-0.1,0-0.1,0c0,0,0,0-0.1,0.1c0,0.1-0.1,0.1-0.1,0.2c-1.7,2.3-3.6,4.4-5.5,6.5c-2.4,2.8-4.8,5.5-7.3,8.3
		c-0.2,0.2-0.4,0.5-0.6,0.7c-0.2,0.3-0.5,0.4-0.9,0.5c-1.2,0.2-2.4,0.2-3.6,0c-0.3-0.1-0.5-0.3-0.4-0.7c0.1-0.5,0.2-1,0.3-1.4
		c0.7-3.4,1.4-6.8,2-10.2c0.7-3.6,1.5-7.3,2.2-10.9c0.1-0.5,0.2-1,0.3-1.5c0.1-0.3,0.3-0.5,0.5-0.6c0.3-0.1,0.7-0.2,1-0.2
		C252,29.5,252.4,29.5,252.8,29.5C252.8,29.5,252.8,29.5,252.8,29.5z"/>
	<path class="st0" d="M327.5,86.9c0.1-1.4,0.2-2.8,0.5-4.2c0.5-2.2,1.3-4.3,2.5-6.2c1.1-1.8,2.6-3.3,4.4-4.4
		c1.5-0.9,3.1-1.5,4.8-1.7c1.3-0.2,2.6-0.2,3.9-0.1c1.2,0.1,2.5,0.3,3.6,0.8c2.2,0.9,3.6,2.4,4.3,4.6c0.3,0.8,0.4,1.7,0.5,2.5
		c0.1,3.4-0.4,6.8-1.8,9.9c-0.8,1.8-1.8,3.4-3.2,4.8c-2.1,2-4.5,3.2-7.3,3.6c-1.1,0.2-2.2,0.2-3.3,0.1c-1.2-0.1-2.3-0.2-3.5-0.6
		c-0.2-0.1-0.5-0.1-0.7-0.2c-2.4-0.9-3.8-2.7-4.4-5.1C327.5,89.4,327.5,88.2,327.5,86.9z M333,86.8c0,0.8,0,1.5,0.2,2.3
		c0.4,1.6,1.3,2.5,2.9,3c0.7,0.2,1.5,0.2,2.3,0.2c1.4,0,2.6-0.4,3.7-1.2c1.1-0.8,2-1.8,2.6-3c0.5-1,1-2.1,1.3-3.2
		c0.5-1.6,0.7-3.2,0.8-4.9c0-0.9-0.1-1.8-0.3-2.7c-0.4-1.2-1.2-2.1-2.4-2.5c-0.6-0.2-1.1-0.3-1.7-0.3c-0.8-0.1-1.7,0-2.5,0.2
		c-1.2,0.3-2.3,1-3.1,1.9c-0.7,0.7-1.3,1.6-1.8,2.6C333.6,81.6,333.1,84.2,333,86.8z"/>
	<path class="st0" d="M284.6,55.5c-1.3,0-2.6-0.1-3.9-0.4c-0.6-0.2-1.3-0.4-1.8-0.7c-1.6-0.8-2.8-2.1-3.4-3.9c-0.4-1-0.6-2-0.6-3
		c-0.1-3,0.3-6,1.4-8.8c0.7-1.7,1.6-3.3,2.7-4.7c2.1-2.5,4.7-4,7.9-4.5c2.1-0.3,4.1-0.3,6.2,0.2c0.4,0.1,0.9,0.2,1.3,0.4
		c2.5,0.9,4,2.6,4.7,5.1c0.3,1.2,0.4,2.5,0.4,3.8c-0.1,1.4-0.2,2.8-0.5,4.2c-0.5,2.2-1.3,4.4-2.6,6.3c-1.9,3-4.7,5-8.2,5.8
		C287.1,55.4,285.9,55.5,284.6,55.5z M280.4,45.6c0,0.3,0,0.6,0,0.9c0,0.4,0,0.8,0.1,1.1c0.3,1.7,1.2,3.1,3.6,3.5
		c0.2,0,0.5,0.1,0.7,0.1c0.9,0.1,1.7,0,2.6-0.2c1.4-0.4,2.6-1.2,3.5-2.3c0.5-0.6,0.9-1.2,1.3-1.9c1.4-2.8,2-5.9,1.9-9
		c0-0.6-0.2-1.1-0.3-1.6c-0.4-1.2-1.2-2-2.4-2.4c-0.4-0.1-0.9-0.3-1.3-0.3c-0.5,0-1,0-1.6,0c-0.9,0-1.8,0.3-2.6,0.7
		c-1.2,0.6-2.1,1.5-2.9,2.6c-0.5,0.7-0.9,1.5-1.2,2.3C280.9,41.2,280.5,43.3,280.4,45.6z"/>
	<path class="st0" d="M179.5,87.3c0-2.7,0.5-5.3,1.5-7.8c0.5-1.4,1.3-2.7,2.1-3.9c2-2.7,4.7-4.5,8-5.1c1.8-0.4,3.6-0.4,5.5-0.1
		c0.7,0.1,1.4,0.2,2.1,0.5c0.3,0.1,0.7,0.2,1,0.4c1.9,0.9,3.2,2.4,3.9,4.4c0.3,0.8,0.4,1.7,0.5,2.5c0.2,3.5-0.4,6.9-1.9,10.1
		c-0.4,0.9-0.9,1.7-1.4,2.5c-2.1,3-4.9,4.9-8.5,5.6c-1.7,0.3-3.4,0.4-5.2,0.1c-0.8-0.1-1.6-0.3-2.3-0.5c-1-0.3-1.8-0.8-2.6-1.4
		c-1.3-1.1-2-2.5-2.4-4.1C179.5,89.4,179.5,88.4,179.5,87.3z M198.6,79.9c0-0.7-0.1-1.5-0.2-2.2c-0.4-1.6-1.3-2.6-2.9-3
		c-0.4-0.1-0.8-0.1-1.2-0.2c-0.9-0.1-1.7,0-2.6,0.2c-1.1,0.3-2.1,0.9-2.9,1.7c-0.8,0.8-1.4,1.7-1.9,2.7c-0.4,0.8-0.8,1.7-1,2.6
		c-0.4,1.5-0.7,3-0.8,4.5c-0.1,0.9,0,1.9,0.2,2.8c0.3,1.6,1.3,2.6,2.9,3.1c0.7,0.2,1.5,0.2,2.3,0.2c1.4,0,2.6-0.4,3.7-1.2
		c0.7-0.5,1.2-1,1.7-1.6c0.5-0.7,0.9-1.4,1.3-2.1C198.1,85,198.5,82.5,198.6,79.9z"/>
	<path class="st0" d="M230.6,137.3c-1.3,0-2.7,0-4,0c-0.3,0-0.7,0-1-0.1c-0.6-0.1-0.9-0.6-0.8-1.1c0-0.2,0.1-0.3,0.1-0.5
		c0.4-2,0.8-4.1,1.2-6.1c0.4-2.2,0.9-4.5,1.3-6.7c0.4-2.2,0.9-4.5,1.3-6.7c0.2-0.8,0.3-1.7,0.5-2.5c0-0.2,0.1-0.3,0.1-0.5
		c0.2-0.7,0.8-1,1.5-1.1c0.2,0,0.4,0,0.6,0c2.1,0,4.3,0,6.4,0c1.2,0,2.4,0.1,3.6,0.5c0.7,0.2,1.3,0.5,1.9,0.8
		c1.1,0.8,1.8,1.8,1.9,3.2c0.2,1.8-0.2,3.5-1.3,5c-0.6,0.8-1.3,1.4-2.2,1.9c-0.2,0.1-0.4,0.2-0.6,0.3c0,0-0.1,0.1-0.1,0.1
		c0.1,0,0.1,0.1,0.2,0.1c0.2,0.1,0.3,0.1,0.5,0.2c1.6,0.7,2.6,1.9,2.8,3.7c0.2,1.6-0.1,3.1-0.8,4.5c-0.7,1.4-1.7,2.4-3,3.3
		c-1.2,0.8-2.6,1.3-4,1.6c-1.1,0.2-2.3,0.3-3.4,0.3C232.3,137.3,231.5,137.3,230.6,137.3C230.6,137.3,230.6,137.3,230.6,137.3z
		 M232.6,133.3C232.6,133.3,232.6,133.3,232.6,133.3c0.6,0,1.1,0,1.7,0c0.2,0,0.3,0,0.5,0c0.7,0,1.4-0.3,2-0.6
		c1.9-1,2.4-2.9,2.2-4.3c-0.1-0.5-0.3-1-0.7-1.4c-0.3-0.3-0.7-0.5-1.1-0.6c-0.6-0.2-1.3-0.3-1.9-0.3c-1,0-2,0-3,0
		c-0.1,0-0.2,0-0.3,0c-0.1,0-0.3,0.1-0.3,0.2c0,0.2-0.1,0.3-0.1,0.5c-0.4,1.9-0.7,3.7-1.1,5.6c0,0.1,0,0.2,0,0.3c0,0.1,0,0.1,0,0.2
		c0,0.2,0.1,0.3,0.3,0.3C231.3,133.3,232,133.3,232.6,133.3z M234.4,122.2C234.4,122.2,234.4,122.2,234.4,122.2c0.6,0,1.1,0,1.7,0
		c0.5,0,1-0.2,1.5-0.4c1.6-0.8,2.3-2.1,2.4-3.8c0-1-0.5-1.7-1.3-2c-0.3-0.1-0.5-0.2-0.8-0.2c-0.3-0.1-0.7-0.1-1-0.1
		c-0.8,0-1.6,0-2.4,0c-0.1,0-0.2,0-0.3,0c-0.1,0-0.3,0.1-0.3,0.2c-0.1,0.3-0.2,0.7-0.2,1c-0.3,1.3-0.5,2.5-0.7,3.8
		c-0.1,0.5-0.2,0.9-0.2,1.4c0.5,0.2,1,0.1,1.5,0.1C234.2,122.2,234.3,122.2,234.4,122.2z"/>
	<path class="st0" d="M423.8,44.1c-1.3,0-2.6,0-3.9,0c-0.2,0-0.4,0-0.6,0c-0.1,0-0.1,0.1-0.2,0.1c-0.1,0.2-0.1,0.5-0.2,0.7
		c-0.4,1.9-0.7,3.7-1.1,5.6c-0.2,1.2-0.5,2.3-0.7,3.5c-0.2,0.8-0.4,1-1.2,1.1c-1.1,0.2-2.3,0.2-3.4,0c-0.1,0-0.3-0.1-0.4-0.1
		c-0.2-0.1-0.4-0.3-0.3-0.6c0.3-1.4,0.6-2.8,0.9-4.3c0.5-2.2,0.9-4.5,1.4-6.7c0.4-2.2,0.9-4.5,1.3-6.7c0.4-1.9,0.8-3.9,1.2-5.8
		c0-0.2,0.1-0.3,0.1-0.5c0.1-0.4,0.3-0.6,0.7-0.7c0.2-0.1,0.5-0.1,0.7-0.1c0.9,0,1.7,0,2.6,0c0.3,0,0.5,0.1,0.8,0.2
		c0.2,0.1,0.4,0.3,0.3,0.6c0,0.2-0.1,0.5-0.1,0.7c-0.5,2.5-1,5-1.5,7.5c-0.1,0.3-0.1,0.5-0.1,0.8c0,0.2,0.1,0.3,0.3,0.3
		c0.2,0,0.4,0,0.6,0c2.5,0,5.1,0,7.6,0c0.2,0,0.4,0,0.6,0c0.2,0,0.3-0.1,0.4-0.3c0.1-0.5,0.2-1,0.3-1.5c0.5-2.4,1-4.8,1.4-7.2
		c0-0.1,0-0.1,0-0.2c0.1-0.4,0.3-0.6,0.7-0.7c0.2-0.1,0.5-0.1,0.7-0.2c0.9-0.1,1.9-0.1,2.8,0c0.3,0,0.5,0.1,0.8,0.2
		c0.1,0.1,0.2,0.2,0.2,0.3c0,0.2,0,0.4,0,0.6c-0.5,2.5-1,5-1.5,7.5c-0.4,2.2-0.9,4.5-1.3,6.7c-0.5,2.6-1,5.2-1.6,7.8
		c-0.1,0.5-0.2,0.9-0.3,1.4c-0.1,0.5-0.4,0.7-0.8,0.8c-0.3,0.1-0.5,0.1-0.8,0.1c-0.9,0.1-1.9,0.1-2.8-0.1c-0.2,0-0.3-0.1-0.5-0.2
		c-0.2-0.1-0.3-0.2-0.3-0.4c0-0.1,0-0.2,0-0.3c0.5-2.5,1-5.1,1.5-7.6c0.1-0.5,0.2-1.1,0.3-1.6c0.2-0.9,0.2-0.9-0.8-0.9
		C426.3,44.1,425.1,44.1,423.8,44.1z"/>
	<path class="st0" d="M315.6,44.1c-1.3,0-2.6,0-3.8,0c-0.2,0-0.3,0-0.5,0c-0.1,0-0.3,0.1-0.3,0.3c0,0.1-0.1,0.2-0.1,0.3
		c-0.3,1.5-0.6,3-0.9,4.5c-0.3,1.7-0.7,3.4-1,5.1c-0.1,0.5-0.4,0.7-0.8,0.8c-0.2,0.1-0.5,0.1-0.7,0.1c-1,0.1-2,0.1-3-0.1
		c-0.2,0-0.3-0.1-0.5-0.2c-0.1-0.1-0.2-0.2-0.2-0.3c0-0.2,0-0.4,0.1-0.6c0.6-2.9,1.2-5.8,1.7-8.6c0.6-2.9,1.2-5.8,1.7-8.8
		c0.4-2,0.8-4.1,1.2-6.1c0.1-0.4,0.3-0.7,0.7-0.8c0.2-0.1,0.5-0.1,0.7-0.1c0.9,0,1.7,0,2.6,0c0.3,0,0.6,0.1,0.9,0.2
		c0.2,0.1,0.3,0.2,0.3,0.4c0,0.2,0,0.4-0.1,0.6c-0.6,2.8-1.1,5.6-1.7,8.4c0,0.1,0,0.1,0,0.2c0,0.1,0.1,0.2,0.2,0.2
		c0.2,0,0.3,0,0.5,0c2.7,0,5.3,0,8,0c0.2,0,0.3,0,0.5,0c0.1,0,0.2-0.1,0.3-0.3c0.1-0.2,0.1-0.5,0.2-0.7c0.5-2.6,1-5.2,1.5-7.7
		c0-0.1,0.1-0.3,0.1-0.4c0.1-0.5,0.4-0.8,0.9-0.9c0.2,0,0.3-0.1,0.5-0.1c0.9-0.1,1.9-0.1,2.8,0c0.3,0,0.5,0.1,0.8,0.2
		c0.2,0.1,0.3,0.3,0.3,0.5c0,0.3-0.1,0.5-0.2,0.8c-0.4,2.2-0.9,4.5-1.3,6.7c-0.4,2.2-0.9,4.5-1.3,6.7c-0.4,2.2-0.9,4.5-1.3,6.7
		c-0.2,0.9-0.4,1.8-0.5,2.7c-0.1,0.6-0.3,1-1.1,1.1c-1.1,0.2-2.2,0.2-3.3,0c-0.1,0-0.3-0.1-0.4-0.1c-0.2-0.1-0.4-0.3-0.4-0.6
		c0-0.2,0-0.4,0.1-0.6c0.4-1.8,0.7-3.7,1.1-5.5c0.2-1.2,0.5-2.3,0.7-3.5c0-0.2,0-0.4,0-0.6c0-0.1,0-0.1-0.1-0.1
		c-0.2,0-0.4,0-0.6-0.1C318.3,44.1,316.9,44.1,315.6,44.1z"/>
	<path class="st0" d="M223.2,70.7c2.6,0,5.3,0,7.9,0c0.3,0,0.6,0,0.8,0c0.7,0.1,1,0.6,1,1.2c0,0.4-0.1,0.8-0.2,1.2
		c-0.5,2.6-1.1,5.3-1.6,7.9c-0.5,2.5-1,5.1-1.5,7.6c-0.4,1.9-0.8,3.9-1.2,5.8c-0.1,0.3-0.1,0.7-0.2,1c-0.1,0.2-0.2,0.4-0.4,0.5
		c-0.3,0.1-0.5,0.2-0.8,0.2c-1,0.1-2,0.1-3,0c-0.1,0-0.3,0-0.4-0.1c-0.5-0.1-0.6-0.4-0.5-0.9c0.8-4.1,1.6-8.2,2.5-12.3
		c0.5-2.5,1-5,1.5-7.4c0-0.1,0-0.2,0-0.3c0-0.1,0-0.1-0.1-0.2c-0.1,0-0.2-0.1-0.3-0.1c-2.9,0-5.7,0-8.6,0c-0.1,0-0.1,0-0.2,0
		c-0.1,0-0.2,0.1-0.2,0.2c-0.1,0.6-0.3,1.3-0.4,1.9c-0.6,3.1-1.2,6.1-1.8,9.2c-0.6,2.9-1.1,5.8-1.7,8.7c0,0.1,0,0.2-0.1,0.3
		c-0.1,0.5-0.4,0.7-0.8,0.8c-0.2,0-0.3,0.1-0.5,0.1c-1,0.1-2,0.1-3,0c-0.2,0-0.4-0.1-0.6-0.2c-0.2-0.1-0.3-0.3-0.3-0.5
		c0-0.2,0.1-0.5,0.1-0.7c0.4-2.2,0.9-4.4,1.3-6.6c0.4-2.2,0.9-4.5,1.3-6.7c0.5-2.6,1-5.2,1.6-7.8c0.1-0.4,0.2-0.9,0.3-1.3
		c0-0.1,0-0.2,0.1-0.3c0.2-0.9,0.9-1.3,1.7-1.4c0.3,0,0.6,0,0.8,0C218.1,70.7,220.6,70.7,223.2,70.7z"/>
	<path class="st0" d="M374.8,33.8c-0.7,0-1.5,0-2.2,0c-0.4,0-0.5,0-0.7,0.5c-0.2,0.5-0.3,1.1-0.5,1.6c-1,3-1.9,5.9-3.1,8.8
		c-0.6,1.6-1.4,3.2-2.2,4.7c-0.6,1-1.2,2-1.9,2.8c-0.6,0.8-1.4,1.5-2.2,2c-0.8,0.5-1.7,0.9-2.7,1c-0.6,0.1-1.2,0.2-1.8,0.2
		c-0.1,0-0.3,0-0.4,0c-0.6,0-0.9-0.3-0.8-0.8c0-1.1,0.3-2.1,0.7-3.1c0.1-0.1,0.1-0.2,0.2-0.4c0.1-0.2,0.3-0.3,0.6-0.4
		c0.1,0,0.1,0,0.2,0c0.8,0,1.5-0.4,2.1-1c0.4-0.4,0.8-1,1.1-1.5c0.6-0.9,1-1.8,1.4-2.8c0.9-2.1,1.7-4.2,2.5-6.4
		c0.9-2.5,1.7-5,2.5-7.5c0.1-0.3,0.2-0.5,0.3-0.8c0.1-0.2,0.2-0.4,0.3-0.5c0.2-0.3,0.5-0.6,0.9-0.6c0.3,0,0.5-0.1,0.8-0.1
		c3.9,0,7.8,0,11.7,0c0.3,0,0.6,0,0.9,0.1c0.4,0.1,0.7,0.4,0.7,0.8c0,0.3,0,0.6-0.1,0.9c-0.5,2.5-1,4.9-1.5,7.4
		c-0.5,2.2-0.9,4.5-1.3,6.7c-0.6,2.8-1.1,5.7-1.7,8.5c0,0,0,0.1,0,0.1c-0.1,0.5-0.4,0.7-0.8,0.8c-1.3,0.2-2.5,0.3-3.8,0
		c-0.1,0-0.3-0.1-0.4-0.2c-0.1-0.1-0.2-0.2-0.2-0.3c0-0.2,0-0.5,0.1-0.7c0.1-0.8,0.3-1.6,0.5-2.3c0.5-2.7,1.1-5.4,1.6-8
		c0.5-2.6,1.1-5.2,1.6-7.8c0.1-0.5,0.2-1,0.3-1.5c0-0.2-0.1-0.3-0.3-0.3c-0.1,0-0.3,0-0.4,0C376.1,33.8,375.4,33.8,374.8,33.8
		C374.8,33.8,374.8,33.8,374.8,33.8z"/>
	<path class="st0" d="M308.5,111.6c0.5,0,1,0,1.5,0c0.4,0,0.8,0.1,1.2,0.2c0.3,0.1,0.6,0.3,0.6,0.6c0.1,0.3,0.1,0.5,0.2,0.8
		c0.3,2.3,0.7,4.6,1,6.9c0.3,2.1,0.6,4.2,0.9,6.4c0.2,1.6,0.5,3.2,0.7,4.8c0.2,1.4,0.4,2.9,0.6,4.3c0,0.3,0.1,0.6,0,0.9
		c0,0.3-0.2,0.5-0.5,0.6c-0.3,0.1-0.5,0.2-0.8,0.2c-0.9,0-1.9,0-2.8,0c-0.2,0-0.5-0.1-0.7-0.1c-0.2-0.1-0.4-0.2-0.4-0.4
		c-0.1-0.2-0.1-0.5-0.1-0.7c-0.2-1.2-0.3-2.5-0.5-3.7c0-0.2-0.1-0.3-0.1-0.5c0-0.2-0.2-0.4-0.4-0.4c-0.2,0-0.4,0-0.6,0
		c-2.6,0-5.1,0-7.7,0c-0.2,0-0.3,0-0.5,0c-0.2,0-0.4,0.1-0.5,0.3c-0.1,0.2-0.2,0.4-0.3,0.6c-0.7,1.3-1.4,2.6-2,3.9
		c-0.3,0.7-0.8,1-1.5,1.1c-1,0.1-2.1,0.1-3.1,0c-0.1,0-0.2,0-0.3-0.1c-0.4-0.1-0.6-0.4-0.4-0.8c0.1-0.4,0.3-0.8,0.5-1.1
		c0.4-0.9,0.9-1.7,1.4-2.6c3.5-6.5,7.1-13,10.6-19.5c0.1-0.3,0.3-0.5,0.5-0.8c0.2-0.4,0.6-0.6,1-0.7c0.5-0.1,1-0.1,1.4-0.1
		C307.8,111.6,308.2,111.6,308.5,111.6C308.5,111.6,308.5,111.6,308.5,111.6z M305.4,127.4C305.4,127.4,305.4,127.4,305.4,127.4
		c1,0,1.9,0,2.9,0c0.2,0,0.3,0,0.5-0.1c0,0,0.1-0.1,0.1-0.1c0-0.1,0-0.3,0-0.4c-0.1-1.1-0.3-2.1-0.4-3.2c-0.3-2-0.5-4-0.8-6.1
		c0-0.2-0.1-0.3-0.1-0.5c0,0,0-0.1-0.1-0.1c0,0-0.1,0-0.1,0c-0.1,0.2-0.2,0.3-0.3,0.5c-1.6,3.1-3.2,6.2-4.9,9.3
		c-0.3,0.5-0.2,0.6,0.3,0.6c0.2,0,0.4,0,0.6,0C303.9,127.4,304.6,127.4,305.4,127.4z"/>
	<path class="st0" d="M295.2,70.5c0.7,0,1.4,0.1,2.1,0.1c0.2,0,0.3,0,0.5,0.1c0.3,0.1,0.6,0.3,0.6,0.6c0,0.2,0.1,0.3,0.1,0.5
		c0.2,1.6,0.5,3.2,0.7,4.7c0.2,1.6,0.5,3.3,0.7,4.9c0.2,1.1,0.3,2.2,0.5,3.3c0.2,1.3,0.4,2.5,0.6,3.8c0.2,1.1,0.3,2.1,0.5,3.2
		c0.1,0.8,0.3,1.6,0.4,2.5c0.1,0.4,0.1,0.8,0.1,1.2c0,0.4-0.2,0.6-0.5,0.7c-0.2,0.1-0.3,0.1-0.5,0.1c-1.1,0.1-2.1,0.1-3.2,0
		c-0.2,0-0.3,0-0.5-0.1c-0.2-0.1-0.4-0.2-0.4-0.4c-0.1-0.4-0.1-0.7-0.2-1.1c-0.2-1.2-0.3-2.5-0.5-3.7c0-0.1,0-0.1,0-0.2
		c0-0.1-0.2-0.3-0.3-0.3c-0.2,0-0.3,0-0.5,0c-2.7,0-5.4,0-8.1,0c-0.1,0-0.2,0-0.3,0c-0.3,0-0.4,0.1-0.6,0.4
		c-0.1,0.2-0.2,0.4-0.3,0.6c-0.6,1.2-1.2,2.3-1.8,3.5c-0.1,0.2-0.2,0.4-0.3,0.6c-0.2,0.4-0.6,0.7-1.1,0.7c-0.1,0-0.3,0-0.4,0
		c-1,0.1-1.9,0.1-2.9,0c-0.2,0-0.3,0-0.5-0.1c-0.3-0.1-0.4-0.4-0.4-0.7c0.1-0.4,0.3-0.8,0.5-1.2c0.5-1,1.1-2,1.6-3
		c3.5-6.3,6.9-12.7,10.4-19c0.2-0.3,0.3-0.6,0.5-0.9c0.2-0.4,0.6-0.6,1-0.6c0.4-0.1,0.8-0.1,1.2-0.1
		C294.3,70.5,294.7,70.6,295.2,70.5C295.2,70.5,295.2,70.5,295.2,70.5z M291.9,86.4C291.9,86.4,291.9,86.4,291.9,86.4
		c1,0,2.1,0,3.1,0c0.3,0,0.4-0.1,0.4-0.4c0-0.2,0-0.4-0.1-0.6c-0.1-0.7-0.2-1.4-0.3-2.2c-0.3-2.3-0.6-4.6-0.9-6.9
		c0-0.1-0.1-0.2-0.1-0.3c0,0-0.1-0.1-0.1,0c-0.1,0.1-0.2,0.1-0.2,0.2c-0.5,0.9-0.9,1.7-1.4,2.6c-1.2,2.2-2.3,4.4-3.5,6.6
		c-0.1,0.2-0.2,0.5-0.4,0.7c0,0.1,0.1,0.2,0.1,0.2c0.2,0,0.3,0.1,0.5,0.1C290.1,86.4,291,86.4,291.9,86.4z"/>
	<path class="st0" d="M350.2,55.2c-0.7,0-1.3,0-2-0.1c-0.3-0.1-0.4-0.2-0.5-0.5c0-0.2-0.1-0.3-0.1-0.5c-0.2-1.2-0.3-2.5-0.5-3.7
		c0-0.1,0-0.2,0-0.3c-0.2-0.9-0.1-0.8-1-0.8c-2.6,0-5.3,0-7.9,0c-0.2,0-0.4,0-0.6,0c-0.1,0-0.2,0.1-0.2,0.2
		c-0.1,0.2-0.2,0.4-0.4,0.6c-0.6,1.2-1.3,2.4-1.9,3.6c-0.1,0.2-0.2,0.4-0.3,0.6c-0.3,0.5-0.7,0.8-1.3,0.9c-1.1,0.1-2.2,0.2-3.3,0
		c-0.7-0.1-0.9-0.4-0.6-1.1c0.2-0.4,0.4-0.9,0.6-1.3c1.9-3.4,3.7-6.9,5.6-10.3c2-3.7,4-7.4,6.1-11.1c0.2-0.3,0.4-0.7,0.6-1
		c0.3-0.5,0.7-0.7,1.3-0.8c0.2,0,0.3,0,0.5,0c1.2,0,2.5,0,3.7,0c0.3,0,0.7,0.1,1,0.2c0.2,0.1,0.3,0.2,0.4,0.4
		c0.1,0.3,0.1,0.5,0.2,0.8c0.2,1.1,0.3,2.3,0.5,3.4c0.2,1.6,0.5,3.2,0.7,4.8c0.2,1.2,0.4,2.4,0.5,3.6c0.2,1.2,0.4,2.4,0.5,3.6
		c0.2,1.1,0.3,2.1,0.5,3.2c0.2,1.3,0.4,2.5,0.5,3.8c0,0.3,0.1,0.7,0.1,1c0,0.3-0.3,0.6-0.6,0.7c-0.3,0.1-0.7,0.1-1,0.2
		C350.9,55.2,350.6,55.2,350.2,55.2z M342.9,45.3C342.9,45.3,342.9,45.3,342.9,45.3c0.3,0,0.7,0,1,0c0.7,0,1.3,0,2,0
		c0.1,0,0.3,0,0.4,0c0.1,0,0.2-0.1,0.2-0.2c-0.1-0.7-0.2-1.4-0.3-2.1c-0.2-1.3-0.4-2.7-0.5-4c-0.2-1.2-0.3-2.4-0.5-3.6
		c0-0.2-0.1-0.3-0.1-0.5c0,0,0-0.1-0.1-0.1c0,0-0.1,0-0.1,0c-0.1,0.2-0.2,0.3-0.3,0.5c-1.2,2.2-2.3,4.4-3.5,6.6
		c-0.4,0.9-0.9,1.7-1.3,2.6c-0.1,0.1-0.1,0.2-0.2,0.4c-0.1,0.2,0,0.4,0.2,0.4C340.8,45.3,341.9,45.3,342.9,45.3z"/>
	<path class="st0" d="M392.6,55.1c-1.3,0-2.6,0-3.8,0c-0.3,0-0.6,0-0.8,0c-0.5-0.1-0.9-0.5-0.9-1c0-0.3,0-0.6,0.1-0.9
		c0.4-1.8,0.7-3.7,1.1-5.5c0.5-2.6,1-5.2,1.5-7.7c0.5-2.3,0.9-4.5,1.4-6.8c0.2-0.9,0.4-1.8,0.5-2.6c0.1-0.4,0.3-0.6,0.6-0.7
		c0.3-0.1,0.5-0.2,0.8-0.2c0.9-0.1,1.8-0.1,2.7,0c0.3,0,0.5,0.1,0.8,0.2c0.2,0.1,0.3,0.2,0.3,0.4c0,0.2,0,0.5-0.1,0.7
		c-0.5,2.5-1,5-1.5,7.5c0,0.1,0,0.2,0,0.3c0,0.1,0.1,0.1,0.1,0.1c0.1,0,0.3,0.1,0.4,0.1c0.7,0,1.5,0,2.2,0c1,0,2,0,3,0.1
		c0.9,0.1,1.8,0.3,2.7,0.7c1.2,0.5,2.1,1.3,2.8,2.4c0.5,0.8,0.7,1.7,0.8,2.7c0.1,1.5-0.2,3-0.8,4.4c-1.2,2.7-3.2,4.5-6,5.3
		c-1.3,0.4-2.7,0.6-4.1,0.6C395.1,55.1,393.8,55.1,392.6,55.1C392.6,55.1,392.6,55.1,392.6,55.1z M396.6,43
		C396.6,43,396.6,43,396.6,43c-0.6,0-1.2,0-1.8,0c-0.1,0-0.3,0-0.4,0c-0.1,0-0.1,0.1-0.2,0.1c-0.1,0.2-0.2,0.5-0.2,0.7
		c-0.3,1.7-0.7,3.4-1,5.1c-0.1,0.6-0.2,1.2-0.3,1.7c0,0.2,0.1,0.4,0.4,0.4c0.1,0,0.2,0,0.3,0c0.8,0,1.5,0,2.3,0c0.7,0,1.3-0.1,2-0.1
		c1.1-0.2,2.1-0.6,2.9-1.5c1-1.1,1.4-2.5,1.2-3.9c-0.1-1.1-0.8-1.9-1.9-2.2c-0.4-0.1-0.9-0.2-1.3-0.2C397.9,43,397.3,43,396.6,43z"
		/>
	<path class="st0" d="M445.4,55.1c-1.2,0-2.4,0-3.6,0c-0.3,0-0.6,0-0.8,0c-0.5-0.1-0.9-0.5-0.9-1c0-0.3,0-0.6,0.1-0.8
		c0.3-1.5,0.6-2.9,0.9-4.4c0.4-2.2,0.9-4.5,1.3-6.7c0.4-2.2,0.9-4.4,1.3-6.6c0.3-1.6,0.6-3.2,1-4.8c0,0,0-0.1,0-0.1
		c0.1-0.9,0.4-0.9,1.1-1.1c0.1,0,0.3,0,0.4,0c0.9,0,1.7,0,2.6,0c0.3,0,0.6,0.1,0.9,0.2c0.1,0.1,0.3,0.3,0.2,0.4
		c-0.1,0.4-0.1,0.8-0.2,1.1c-0.5,2.5-1,4.9-1.5,7.4c0,0.2,0,0.3,0.2,0.3c0.1,0,0.2,0,0.3,0c0.4,0,0.8,0,1.1,0c0.8,0,1.5,0,2.3,0
		c1,0,2,0.1,3,0.4c0.8,0.2,1.5,0.5,2.2,1c1.9,1.3,2.7,3.2,2.6,5.4c-0.1,1.5-0.5,2.9-1.3,4.2c-1.2,2.2-3.1,3.6-5.5,4.3
		c-1.4,0.4-2.8,0.6-4.2,0.6C447.8,55.1,446.6,55.1,445.4,55.1C445.4,55.1,445.4,55.1,445.4,55.1z M449.5,43
		C449.5,43,449.5,43,449.5,43c-0.2,0-0.3,0-0.5,0c-0.4,0-0.9,0-1.3,0c-0.2,0-0.3,0.1-0.4,0.3c0,0.2-0.1,0.4-0.1,0.6
		c-0.4,2.1-0.8,4.3-1.3,6.4c0,0.1,0,0.1,0,0.2c0,0.1,0,0.1,0,0.2c0,0.2,0.1,0.3,0.3,0.3c1.1,0,2.2,0,3.3,0c0.5,0,1-0.1,1.4-0.2
		c1-0.2,1.9-0.7,2.5-1.5c0.8-1,1.2-2.1,1.1-3.4c0-1.3-0.6-2.4-2.3-2.8c-0.5-0.1-1-0.2-1.5-0.2C450.2,43,449.8,43,449.5,43z"/>
	<path class="st0" d="M181.2,55.2c-0.7,0-1.2,0-1.8-0.2c-0.1,0-0.3-0.1-0.4-0.1c-0.2-0.1-0.2-0.2-0.2-0.4c0-0.1,0-0.3,0.1-0.4
		c0.9-4.3,1.7-8.5,2.6-12.8c0.6-2.9,1.2-5.9,1.8-8.9c0.1-0.3,0.1-0.7,0.2-1c0.1-0.2,0.1-0.5,0.2-0.7c0.3-0.5,0.7-0.9,1.2-1
		c0.3-0.1,0.6-0.1,0.9-0.1c2,0,3.9,0,5.9,0c1,0,2.1,0.1,3.1,0.3c0.8,0.2,1.5,0.4,2.2,0.8c1.4,0.8,2.2,1.9,2.6,3.5
		c0.1,0.6,0.2,1.2,0.2,1.9c-0.1,1.7-0.4,3.4-1.3,4.9c-1.2,2.2-3,3.7-5.3,4.5c-1,0.4-2.1,0.6-3.1,0.7c-1.2,0.1-2.4,0.1-3.6,0.1
		c-0.2,0-0.4,0-0.6,0.1c-0.1,0-0.1,0.1-0.1,0.1c-0.1,0.1-0.1,0.2-0.1,0.3c-0.3,1.5-0.6,3-0.9,4.5c-0.2,1-0.4,2-0.6,3.1
		c-0.1,0.4-0.4,0.7-0.8,0.8c-0.5,0.1-1,0.1-1.4,0.2C181.5,55.2,181.3,55.2,181.2,55.2z M188.1,42.2
		C188.1,42.2,188.1,42.2,188.1,42.2c0.5,0,1,0,1.4,0c1.6-0.2,2.9-0.9,3.8-2.4c0.6-1,0.9-2.2,0.9-3.4c0-0.3-0.1-0.6-0.1-0.9
		c-0.2-0.8-0.7-1.4-1.5-1.7c-0.4-0.2-0.9-0.3-1.3-0.3c-0.8,0-1.7,0-2.5,0c-0.7,0-0.7,0-0.9,0.7c0,0.1,0,0.1,0,0.2
		c-0.3,1.6-0.7,3.2-1,4.9c-0.2,0.8-0.3,1.6-0.5,2.4c-0.1,0.3,0,0.4,0.3,0.4C187.2,42.2,187.6,42.2,188.1,42.2z"/>
	<path class="st0" d="M268.9,70.7c1,0,1.9,0,2.9,0c1,0,2.1,0.2,3.1,0.4c0.8,0.2,1.6,0.5,2.4,1c1.1,0.8,1.8,1.8,2.2,3.2
		c0.1,0.6,0.2,1.2,0.2,1.9c-0.1,1.8-0.5,3.4-1.3,5c-1,1.9-2.5,3.3-4.5,4.1c-1.4,0.6-2.8,1-4.3,1c-1.1,0-2.2,0-3.3,0
		c-0.6,0-0.7,0-0.9,0.7c-0.5,2.4-0.9,4.7-1.4,7.1c0,0.1,0,0.2-0.1,0.3c-0.1,0.2-0.2,0.4-0.5,0.5c-0.2,0.1-0.5,0.2-0.7,0.2
		c-1,0.1-2.1,0.1-3.1,0c-0.2,0-0.5-0.1-0.7-0.2c-0.1-0.1-0.2-0.2-0.2-0.3c0-0.2,0-0.3,0-0.5c0.5-2.5,1-5,1.5-7.5
		c0.5-2.6,1-5.2,1.6-7.7c0.5-2.4,1-4.7,1.4-7.1c0-0.2,0.1-0.3,0.1-0.5c0.3-1,1-1.5,2-1.6c0.2,0,0.5,0,0.7,0
		C267,70.7,268,70.7,268.9,70.7C268.9,70.7,268.9,70.7,268.9,70.7z M267.9,83.3C267.9,83.3,267.9,83.3,267.9,83.3c0.4,0,0.8,0,1.1,0
		c2.2-0.1,3.8-1.2,4.6-3.2c0.3-0.6,0.4-1.3,0.5-2c0.1-0.5,0-1-0.1-1.4c-0.2-0.7-0.6-1.2-1.3-1.5c-0.3-0.2-0.7-0.3-1.1-0.3
		c-1.1-0.2-2.3-0.1-3.4-0.1c-0.1,0-0.3,0.1-0.3,0.2c-0.1,0.2-0.1,0.4-0.2,0.6c-0.3,1.6-0.7,3.2-1,4.9c-0.2,0.8-0.3,1.6-0.5,2.4
		c-0.1,0.4-0.1,0.5,0.4,0.5C267.1,83.3,267.5,83.3,267.9,83.3z"/>
	<path class="st0" d="M282.6,111.8c1.1,0,2.2,0,3.3,0c0.9,0,1.9,0.2,2.8,0.4c0.6,0.2,1.2,0.4,1.8,0.8c1.4,0.8,2.2,2.1,2.5,3.7
		c0.3,1.5,0.1,3-0.3,4.5c-1,3.3-3.2,5.5-6.5,6.6c-1.3,0.4-2.6,0.6-3.9,0.6c-0.8,0-1.7,0-2.5,0c-0.2,0-0.4,0-0.6,0
		c-0.1,0-0.2,0.1-0.2,0.2c-0.1,0.1-0.1,0.2-0.1,0.3c-0.5,2.4-1,4.8-1.4,7.2c0,0.1,0,0.3-0.1,0.4c-0.1,0.3-0.3,0.5-0.6,0.6
		c-0.4,0.1-0.7,0.2-1.1,0.2c-0.7,0-1.5,0-2.2,0c-0.3,0-0.6-0.1-0.9-0.2c-0.3-0.1-0.4-0.3-0.4-0.6c0.1-0.5,0.2-1,0.3-1.4
		c0.7-3.3,1.3-6.6,2-9.9c0.7-3.3,1.3-6.6,2-9.9c0.1-0.6,0.2-1.3,0.4-1.9c0.2-0.7,0.5-1.2,1.2-1.5c0.2-0.1,0.4-0.1,0.6-0.2
		c0.3,0,0.6,0,0.8,0C280.4,111.8,281.5,111.8,282.6,111.8C282.6,111.8,282.6,111.8,282.6,111.8z M283.2,115.8
		C283.2,115.8,283.2,115.8,283.2,115.8c-0.5,0-1,0-1.4,0c-0.2,0-0.3,0.1-0.4,0.3c0,0.1-0.1,0.2-0.1,0.3c-0.4,2-0.8,4.1-1.2,6.1
		c-0.1,0.4-0.2,0.9-0.3,1.3c0,0.1,0,0.3,0,0.4c0,0.1,0.1,0.2,0.2,0.2c0.8,0,1.6,0,2.4,0c0.4,0,0.8-0.1,1.2-0.2
		c1-0.2,1.9-0.7,2.6-1.6c1.1-1.3,1.5-2.9,1.3-4.5c-0.1-1.1-0.7-1.8-1.7-2.1c-0.5-0.2-0.9-0.3-1.4-0.3
		C284,115.8,283.6,115.8,283.2,115.8z"/>
	<path class="st0" d="M366.7,70.7c0.9,0,1.7,0,2.6,0c1.1,0,2.2,0.1,3.3,0.4c0.7,0.2,1.3,0.4,1.9,0.8c1.6,0.9,2.5,2.3,2.7,4.2
		c0.2,2.1-0.2,4.1-1.2,6c-1.1,2-2.6,3.4-4.7,4.3c-1.4,0.6-2.8,1-4.3,1c-1,0-2,0-3,0c-0.2,0-0.4,0-0.6,0c-0.1,0-0.3,0.1-0.3,0.2
		c0,0.2-0.1,0.3-0.1,0.5c-0.3,1.5-0.6,3-0.9,4.5c-0.2,0.8-0.3,1.6-0.5,2.3c0,0.2-0.1,0.5-0.2,0.7c-0.1,0.2-0.2,0.3-0.3,0.4
		c-0.3,0.1-0.6,0.2-0.9,0.3c-1,0.1-1.9,0.1-2.9,0c-0.3,0-0.5-0.1-0.8-0.2c-0.1-0.1-0.2-0.3-0.2-0.4c0-0.3,0.1-0.6,0.2-0.9
		c0.5-2.5,1-5.1,1.5-7.6c0.4-2.2,0.9-4.5,1.4-6.7c0.5-2.5,1-5,1.5-7.5c0-0.2,0.1-0.4,0.2-0.6c0.3-0.9,0.9-1.3,1.8-1.5
		c0.2,0,0.5,0,0.7,0C364.6,70.7,365.7,70.7,366.7,70.7C366.7,70.7,366.7,70.7,366.7,70.7z M365.6,83.3
		C365.6,83.3,365.6,83.3,365.6,83.3c0.4,0,0.9,0,1.3,0c1.4-0.1,2.6-0.6,3.5-1.7c1.1-1.3,1.5-2.8,1.4-4.4c-0.1-1-0.6-1.8-1.6-2.2
		c-0.3-0.1-0.5-0.2-0.8-0.2c-1.1-0.2-2.2-0.1-3.3-0.1c-0.3,0-0.4,0.1-0.5,0.4c-0.2,0.8-0.3,1.6-0.5,2.3c-0.4,1.8-0.7,3.7-1.1,5.5
		c-0.1,0.3,0,0.4,0.3,0.4C364.7,83.3,365.1,83.3,365.6,83.3z"/>
	<path class="st0" d="M244,96.2c-1.9,0-3.7,0-5.6,0c-0.3,0-0.6,0-0.8,0c-0.7-0.1-1.1-0.5-1.1-1.2c0-0.2,0-0.5,0.1-0.7
		c0.9-4.8,1.9-9.6,2.9-14.3c0.5-2.4,0.9-4.7,1.4-7.1c0.1-0.3,0.1-0.5,0.2-0.8c0.2-0.8,0.9-1.3,1.7-1.3c0.2,0,0.3,0,0.5,0
		c3.9,0,7.8,0,11.7,0c0.2,0,0.3,0,0.5,0c0.3,0,0.5,0.2,0.5,0.5c0,0.9-0.1,1.9-0.5,2.7c0,0.1-0.1,0.2-0.2,0.4
		c-0.2,0.3-0.4,0.4-0.8,0.4c-0.3,0-0.6,0-0.8,0c-2.3,0-4.6,0-7,0c-0.3,0-0.6,0-0.8,0c-0.2,0-0.3,0.1-0.3,0.3
		c-0.1,0.4-0.2,0.9-0.3,1.3c-0.3,1.4-0.6,2.9-0.8,4.3c0,0.1,0.1,0.2,0.2,0.2c0.1,0,0.2,0,0.3,0c0.3,0,0.6,0,0.8,0c1.9,0,3.7,0,5.6,0
		c0.3,0,0.6,0,0.8,0c0.1,0,0.3,0.1,0.3,0.3c0.1,0.2,0.1,0.3,0.1,0.5c0,0.8-0.2,1.5-0.4,2.2c-0.1,0.2-0.2,0.4-0.3,0.5
		c-0.2,0.2-0.4,0.4-0.7,0.4c-0.3,0-0.6,0-0.8,0c-1.9,0-3.8,0-5.7,0c-0.2,0-0.5,0-0.7,0c-0.2,0-0.3,0.1-0.4,0.3
		c-0.1,0.3-0.1,0.5-0.2,0.8c-0.3,1.7-0.7,3.4-1,5.1c0,0.2-0.1,0.3-0.1,0.5c0,0.3,0,0.4,0.4,0.4c0.6,0,1.2,0,1.9,0c2,0,4,0,6,0
		c0.3,0,0.6,0,0.8,0c0.2,0,0.4,0.2,0.4,0.4c0,0.3,0.1,0.7,0,1c-0.1,0.6-0.2,1.2-0.4,1.7c-0.1,0.2-0.2,0.4-0.3,0.5
		c-0.2,0.2-0.4,0.4-0.7,0.4c-0.3,0-0.6,0-0.8,0C247.7,96.2,245.8,96.2,244,96.2z"/>
	<path class="st0" d="M210,137.3c-1.9,0-3.8,0-5.7,0c-0.3,0-0.7,0-1-0.1c-0.5-0.1-0.8-0.4-0.8-0.9c0-0.3,0-0.6,0.1-0.8
		c0.4-1.8,0.7-3.6,1.1-5.4c0.4-2.2,0.9-4.5,1.3-6.7c0.5-2.3,0.9-4.6,1.4-6.9c0.2-0.8,0.3-1.7,0.5-2.5c0.1-0.3,0.1-0.5,0.2-0.8
		c0.2-0.8,0.8-1.2,1.6-1.3c0.2,0,0.4,0,0.6,0c3.9,0,7.7,0,11.6,0c0.1,0,0.2,0,0.3,0c0.6,0,0.8,0.1,0.8,0.8c0,0.7-0.2,1.4-0.4,2.1
		c-0.1,0.2-0.2,0.4-0.3,0.7c-0.2,0.3-0.4,0.5-0.8,0.5c-0.3,0-0.6,0-0.8,0c-2.3,0-4.6,0-7,0c-0.3,0-0.6,0-0.9,0
		c-0.1,0-0.2,0.1-0.2,0.2c-0.1,0.2-0.1,0.3-0.2,0.5c-0.3,1.7-0.7,3.5-1,5.2c0,0.1,0.1,0.3,0.2,0.3c0.3,0,0.6,0,0.8,0
		c1.9,0,3.8,0,5.7,0c0.3,0,0.6,0,0.8,0c0.3,0,0.5,0.2,0.6,0.5c0,0.1,0,0.2,0,0.3c-0.1,0.7-0.2,1.4-0.4,2.1c-0.1,0.2-0.1,0.3-0.2,0.5
		c-0.2,0.3-0.4,0.5-0.8,0.5c-0.3,0-0.6,0-0.8,0c-1.8,0-3.7,0-5.5,0c-0.3,0-0.6,0-0.8,0c-0.3,0-0.4,0.1-0.4,0.3
		c-0.1,0.2-0.1,0.4-0.1,0.6c-0.4,1.8-0.7,3.5-1.1,5.3c0,0.2-0.1,0.4-0.1,0.6c0,0.2,0.1,0.3,0.3,0.3c0.3,0,0.6,0,0.9,0
		c2.4,0,4.7,0,7.1,0c0.3,0,0.6,0,0.8,0c0.2,0,0.4,0.2,0.4,0.4c0,0.1,0,0.3,0,0.4c0,0.8-0.2,1.6-0.5,2.4c0,0.1-0.1,0.1-0.1,0.2
		c-0.2,0.4-0.5,0.6-1,0.6c-0.2,0-0.5,0-0.7,0C213.6,137.3,211.8,137.3,210,137.3z"/>
	<path class="st0" d="M210.4,55.1c-1.9,0-3.8,0-5.7,0c-0.3,0-0.6,0-0.8,0c-0.5,0-0.9-0.4-0.9-1c0-0.4,0-0.8,0.1-1.1
		c0.5-2.5,1-5,1.5-7.5c0.5-2.6,1-5.2,1.6-7.8c0.4-2.1,0.8-4.1,1.2-6.2c0-0.2,0.1-0.4,0.2-0.6c0.2-0.6,0.6-1,1.3-1.1
		c0.2-0.1,0.4-0.1,0.6-0.1c0.1,0,0.3,0,0.4,0c3.8,0,7.7,0,11.5,0c0.2,0,0.4,0,0.6,0c0.2,0,0.4,0.2,0.5,0.5c0,0.1,0,0.3,0,0.4
		c-0.1,0.7-0.2,1.4-0.4,2c-0.1,0.2-0.2,0.4-0.3,0.7c-0.2,0.3-0.5,0.5-0.8,0.5c-0.3,0-0.6,0-0.8,0c-2.3,0-4.6,0-6.9,0
		c-0.3,0-0.6,0-0.8,0c-0.2,0-0.4,0.1-0.4,0.3c-0.1,0.3-0.1,0.5-0.2,0.8c-0.3,1.5-0.6,3-0.9,4.5c0,0.1,0,0.2,0,0.3
		c0,0.1,0.1,0.2,0.2,0.2c0.2,0,0.5,0,0.7,0c1.8,0,3.7,0,5.5,0c0.2,0,0.5,0,0.7,0c0.9,0,1.1,0.1,1,1.1c0,0.6-0.1,1.1-0.3,1.6
		c-0.1,0.3-0.2,0.5-0.3,0.8c-0.2,0.3-0.4,0.5-0.8,0.5c-0.3,0-0.6,0-0.8,0c-1.9,0-3.8,0-5.7,0c-0.3,0-0.6,0-0.8,0
		c-0.1,0-0.2,0.1-0.2,0.2c-0.1,0.1-0.1,0.3-0.1,0.4c-0.4,2-0.8,4.1-1.2,6.1c0,0,0,0.1,0,0.1c0,0.2,0.1,0.3,0.3,0.3
		c0.3,0,0.6,0,0.9,0c2.4,0,4.7,0,7.1,0c0.3,0,0.6,0,0.8,0c0.2,0,0.4,0.2,0.4,0.4c0,0.2,0.1,0.3,0.1,0.5c0,0.8-0.2,1.5-0.4,2.2
		c-0.1,0.2-0.1,0.3-0.2,0.5c-0.2,0.3-0.4,0.5-0.8,0.5c-0.3,0-0.6,0-0.8,0C214.2,55.1,212.3,55.1,210.4,55.1z"/>
	<path class="st0" d="M257.5,137.3c-1.9,0-3.8,0-5.7,0c-0.3,0-0.6,0-0.8,0c-0.7-0.1-1.1-0.5-1.1-1.3c0-0.2,0-0.4,0.1-0.6
		c0.6-2.8,1.1-5.7,1.7-8.5c0.4-2.2,0.9-4.4,1.3-6.6c0.4-2.2,0.9-4.3,1.3-6.5c0.1-0.3,0.1-0.5,0.2-0.8c0.3-0.6,0.7-1,1.4-1.1
		c0.2,0,0.5,0,0.7,0c3.9,0,7.8,0,11.7,0c0.2,0,0.3,0,0.5,0c0.3,0,0.5,0.2,0.5,0.5c0,0.2,0,0.4,0,0.6c-0.1,0.6-0.2,1.2-0.4,1.7
		c-0.1,0.3-0.2,0.5-0.4,0.7c-0.1,0.3-0.4,0.4-0.7,0.4c-0.3,0-0.6,0-0.8,0c-2.4,0-4.7,0-7.1,0c-0.3,0-0.6,0-0.8,0
		c-0.2,0-0.2,0.1-0.3,0.2c0,0.1-0.1,0.3-0.1,0.4c-0.3,1.7-0.7,3.5-1,5.2c0,0.2,0.1,0.3,0.3,0.3c0.1,0,0.3,0,0.4,0c1,0,1.9,0,2.9,0
		c1.1,0,2.3,0,3.4,0c0.2,0,0.4,0,0.6,0c0.2,0,0.4,0.2,0.4,0.4c0,0.1,0.1,0.3,0.1,0.4c-0.1,0.7-0.1,1.4-0.4,2
		c-0.1,0.2-0.1,0.3-0.2,0.5c-0.2,0.4-0.5,0.6-1,0.6c-1.3,0-2.7,0-4,0c-0.9,0-1.8,0-2.7,0c-0.2,0-0.3,0-0.5,0c-0.1,0-0.2,0.1-0.2,0.2
		c-0.2,0.6-0.3,1.3-0.4,1.9c-0.3,1.3-0.5,2.6-0.8,3.9c0,0.1,0,0.1,0,0.2c-0.2,1-0.2,1,0.8,1c2.4,0,4.8,0,7.3,0c0.3,0,0.6,0,0.9,0
		c0.2,0,0.4,0.2,0.4,0.4c0,0.1,0,0.2,0.1,0.3c0,0.9-0.2,1.9-0.6,2.7c-0.1,0.1-0.1,0.2-0.2,0.3c-0.1,0.1-0.3,0.2-0.4,0.3
		c-0.3,0-0.6,0-0.8,0C261.3,137.3,259.4,137.3,257.5,137.3z"/>
	<path class="st0" d="M188.7,137.6c-1.1,0-2.3-0.1-3.5-0.5c-2.5-0.8-4.2-2.4-5.1-4.8c-0.3-0.9-0.5-1.9-0.6-2.8
		c-0.2-3.8,0.6-7.4,2.3-10.7c0.7-1.4,1.7-2.7,2.8-3.8c1.7-1.6,3.6-2.7,5.9-3.3c2.1-0.5,4.2-0.5,6.4,0.1c0.7,0.2,1.4,0.5,2.1,0.9
		c0.2,0.1,0.4,0.3,0.6,0.4c0.3,0.3,0.5,0.6,0.5,1c0,1-0.2,2-0.6,2.9c-0.1,0.1-0.1,0.2-0.2,0.4c-0.2,0.3-0.6,0.4-0.9,0.2
		c-0.2-0.2-0.4-0.3-0.7-0.5c-0.7-0.5-1.5-0.9-2.3-1.1c-2.1-0.5-4-0.2-5.8,1.1c-0.9,0.7-1.6,1.5-2.2,2.4c-0.9,1.5-1.6,3.1-2,4.8
		c-0.3,1.3-0.5,2.7-0.4,4c0,0.7,0.1,1.3,0.3,1.9c0.6,1.8,1.9,2.8,3.8,3c1.8,0.2,3.4-0.1,5-0.9c0.3-0.2,0.7-0.4,1-0.6
		c0.2-0.1,0.4-0.2,0.7-0.3c0.3-0.1,0.6,0,0.7,0.4c0,0.1,0,0.2,0,0.3c-0.1,0.9-0.2,1.8-0.5,2.6c-0.2,0.6-0.6,1.1-1.1,1.4
		c-0.7,0.4-1.4,0.7-2.2,0.9C191.5,137.5,190.2,137.6,188.7,137.6z"/>
	<path class="st0" d="M317.2,70.7c2.7,0,5.3,0,8,0c0.3,0,0.6,0,0.8,0c0.4,0,0.6,0.2,0.6,0.7c0,1-0.2,2-0.6,2.9
		c-0.1,0.1-0.1,0.2-0.2,0.3c-0.1,0.2-0.3,0.3-0.5,0.3c-0.3,0-0.6,0-0.8,0c-1.5,0-3,0-4.5,0c-0.3,0-0.6,0-0.8,0
		c-0.1,0-0.3,0.1-0.3,0.3c-0.1,0.2-0.1,0.4-0.2,0.6c-0.5,2.5-1,5-1.5,7.5c-0.4,2.2-0.9,4.5-1.3,6.7c-0.3,1.6-0.6,3.2-1,4.8
		c0,0.2-0.1,0.5-0.2,0.7c-0.1,0.2-0.2,0.4-0.4,0.4c-0.3,0.1-0.6,0.2-0.9,0.2c-0.9,0.1-1.9,0.1-2.8,0c-0.2,0-0.3-0.1-0.5-0.1
		c-0.5-0.1-0.6-0.4-0.5-0.9c0.6-3.2,1.3-6.3,1.9-9.5c0.5-2.6,1-5.2,1.6-7.8c0.2-0.8,0.3-1.7,0.5-2.5c0-0.1,0-0.2,0-0.3
		c0-0.1-0.1-0.1-0.1-0.1c-0.2,0-0.4-0.1-0.6-0.1c-1.5,0-3,0-4.5,0c-0.2,0-0.5,0-0.7,0c-0.6,0-0.8-0.2-0.8-0.8c0-0.9,0.2-1.8,0.5-2.6
		c0.1-0.2,0.2-0.4,0.3-0.5c0.1-0.2,0.3-0.3,0.5-0.3c0.3,0,0.6,0,0.8,0C311.8,70.7,314.5,70.7,317.2,70.7z"/>
	<path class="st0" d="M237.7,29.6c1.9,0,3.7,0,5.6,0c0.8,0,0.9,0.2,0.9,0.9c0,0.8-0.2,1.7-0.5,2.4c-0.1,0.2-0.2,0.4-0.3,0.5
		c-0.2,0.2-0.4,0.4-0.7,0.4c-0.3,0-0.6,0-0.8,0c-2.2,0-4.4,0-6.5,0c-0.2,0-0.4,0-0.6,0c-0.2,0-0.3,0.1-0.4,0.3
		c-0.1,0.3-0.1,0.6-0.2,0.9c-0.5,2.7-1.1,5.4-1.6,8c-0.5,2.6-1,5.2-1.5,7.7c-0.2,1.1-0.4,2.2-0.6,3.3c0,0.1,0,0.2-0.1,0.3
		c-0.1,0.3-0.3,0.5-0.6,0.6c-0.1,0-0.2,0.1-0.3,0.1c-1.2,0.2-2.5,0.3-3.7,0c-0.1,0-0.2-0.1-0.3-0.1c-0.2-0.1-0.4-0.3-0.3-0.6
		c0.1-0.7,0.3-1.4,0.4-2c0.5-2.6,1.1-5.3,1.6-7.9c0.5-2.5,1-5.1,1.5-7.6c0.3-1.6,0.6-3.2,1-4.8c0.1-0.3,0.1-0.7,0.2-1
		c0.2-0.8,0.7-1.2,1.5-1.4c0.3,0,0.6,0,0.8,0C234,29.6,235.9,29.6,237.7,29.6z"/>
	<path class="st0" d="M74.4,133.3c-2,0-3.9-0.1-5.8-0.3c-3.2-0.4-6.3-1-9.3-2c-0.1,0-0.3-0.1-0.4-0.1c0,0,0-0.1,0-0.1
		c0-0.1,0-0.1,0.1-0.1c0.3,0,0.7,0,1,0c0.4,0,0.8-0.1,1.2-0.2c0.6-0.1,1-0.5,1.3-1c0.2-0.3,0.3-0.7,0.5-1c0.4-0.8,0.3-0.9,1.3-0.7
		c1.8,0.4,3.5,0.6,5.3,0.8c2.1,0.2,4.2,0.2,6.3,0.2c1.7,0,3.3-0.2,5-0.4c2.7-0.3,5.3-0.9,7.9-1.7c4.7-1.5,9-3.6,12.8-6.6
		c0.1-0.1,0.3-0.2,0.4-0.3c0.2-0.1,0.5-0.2,0.7-0.1c0.2,0.1,0.3,0.2,0.4,0.3c0.3,0.2,0.3,0.7,0.2,0.9c-0.1,0.2-0.3,0.4-0.4,0.6
		c-1.6,2-3.5,3.7-5.5,5.1c-2.8,1.9-5.8,3.4-9,4.4c-2.4,0.8-4.9,1.3-7.5,1.7C78.8,133.2,76.6,133.2,74.4,133.3z"/>
	<path class="st0" d="M468.8,29.5c0.4,0,0.9,0,1.3,0c0.2,0,0.4,0.1,0.6,0.1c0.4,0.1,0.6,0.4,0.5,0.8c-0.4,1.8-0.7,3.7-1.1,5.5
		c-0.5,2.6-1,5.1-1.5,7.7c-0.5,2.6-1,5.2-1.6,7.8c-0.2,0.9-0.3,1.8-0.5,2.6c0,0.1-0.1,0.3-0.1,0.4c-0.1,0.2-0.3,0.4-0.5,0.5
		c-0.1,0.1-0.3,0.1-0.4,0.1c-1.2,0.2-2.3,0.2-3.5,0c-0.1,0-0.2,0-0.3-0.1c-0.3-0.1-0.5-0.3-0.4-0.6c0-0.2,0.1-0.5,0.1-0.7
		c0.5-2.5,1-5.1,1.5-7.6c0.4-2.2,0.9-4.4,1.3-6.6c0.5-2.3,0.9-4.6,1.4-6.9c0.1-0.7,0.3-1.5,0.5-2.2c0.1-0.4,0.3-0.6,0.7-0.7
		c0.3-0.1,0.7-0.1,1-0.1C468.2,29.5,468.5,29.5,468.8,29.5C468.8,29.5,468.8,29.5,468.8,29.5z"/>
	<path class="st0" d="M490.9,28.3c-1.2,0-2.3-0.1-3.3-0.4c-0.3-0.1-0.7-0.2-1-0.4c-1.4-0.6-2.2-1.8-2.3-3.3c0-0.6,0.1-1.1,0.2-1.6
		c0.1-0.4,0.4-0.6,0.7-0.7c1-0.2,2-0.2,3,0c0.3,0.1,0.5,0.4,0.5,0.7c0,0.1,0,0.2,0,0.3c0,0.1,0,0.3,0,0.4c0,0.8,0.3,1.5,1.5,1.7
		c0.6,0.1,1.2,0.1,1.9,0c1-0.2,1.8-0.8,2.1-1.7c0.1-0.3,0.2-0.5,0.3-0.8c0.1-0.2,0.2-0.3,0.4-0.4c0.1-0.1,0.3-0.1,0.4-0.1
		c1-0.1,1.9-0.2,2.9,0c0.1,0,0.2,0.1,0.3,0.1c0.2,0.1,0.3,0.3,0.3,0.5c0,0.2,0,0.5-0.1,0.7c-0.4,1.7-1.3,3-2.8,3.9
		c-0.8,0.5-1.8,0.8-2.7,1C492.4,28.2,491.6,28.3,490.9,28.3z"/>
</g>
</svg>
